<?xml version="1.0" encoding="utf-8"?>
<!-- Generator: Adobe Illustrator 25.0.1, SVG Export Plug-In . SVG Version: 6.00 Build 0)  -->
<svg version="1.1" id="Calque_1" xmlns="http://www.w3.org/2000/svg" xmlns:xlink="http://www.w3.org/1999/xlink" x="0px" y="0px"
	 viewBox="0 0 14.31 40.43" style="enable-background:new 0 0 14.31 40.43;" xml:space="preserve">
<style type="text/css">
	.st0{clip-path:url(#SVGID_2_);fill:url(#SVGID_3_);}
	.st1{clip-path:url(#SVGID_5_);fill:url(#SVGID_6_);}
	.st2{clip-path:url(#SVGID_8_);fill:url(#SVGID_9_);}
	.st3{clip-path:url(#SVGID_11_);fill:url(#SVGID_12_);}
	.st4{clip-path:url(#SVGID_14_);fill:url(#SVGID_15_);}
	.st5{clip-path:url(#SVGID_17_);fill:url(#SVGID_18_);}
	.st6{clip-path:url(#SVGID_20_);fill:url(#SVGID_21_);}
	.st7{clip-path:url(#SVGID_23_);fill:url(#SVGID_24_);}
	.st8{clip-path:url(#SVGID_26_);fill:url(#SVGID_27_);}
	.st9{clip-path:url(#SVGID_29_);fill:url(#SVGID_30_);}
	.st10{clip-path:url(#SVGID_32_);fill:url(#SVGID_33_);}
	.st11{clip-path:url(#SVGID_35_);fill:url(#SVGID_36_);}
	.st12{clip-path:url(#SVGID_38_);fill:url(#SVGID_39_);}
	.st13{clip-path:url(#SVGID_41_);fill:url(#SVGID_42_);}
	.st14{clip-path:url(#SVGID_44_);fill:url(#SVGID_45_);}
	.st15{clip-path:url(#SVGID_47_);fill:url(#SVGID_48_);}
</style>
<g>
	<g>
		<g>
			<g>
				<defs>
					<path id="SVGID_1_" d="M13.77,4.71c0.03,0.05,0.06,0.1,0.09,0.16V4.42c-0.08,0.03-0.12,0.09-0.12,0.17
						C13.74,4.63,13.75,4.67,13.77,4.71"/>
				</defs>
				<clipPath id="SVGID_2_">
					<use xlink:href="#SVGID_1_"  style="overflow:visible;"/>
				</clipPath>
				
					<linearGradient id="SVGID_3_" gradientUnits="userSpaceOnUse" x1="-1089.9414" y1="276.4383" x2="-1089.804" y2="276.4383" gradientTransform="matrix(91.2905 0 0 -91.2905 99505.3906 25240.832)">
					<stop  offset="0" style="stop-color:#B05105"/>
					<stop  offset="0.1495" style="stop-color:#B05105"/>
					<stop  offset="0.4059" style="stop-color:#C37015"/>
					<stop  offset="0.7131" style="stop-color:#DEA030"/>
					<stop  offset="0.7976" style="stop-color:#E6B446"/>
					<stop  offset="0.9754" style="stop-color:#FAE786"/>
					<stop  offset="1" style="stop-color:#FDEE91"/>
				</linearGradient>
				<rect x="13.74" y="4.42" class="st0" width="0.12" height="0.44"/>
			</g>
		</g>
	</g>
	<g>
		<g>
			<g>
				<defs>
					<path id="SVGID_4_" d="M12.74,26.5c-0.7,0.47-1.43,0.53-2.18,0.17c-0.05-0.02-0.09-0.05-0.14-0.08
						c-0.08-0.06-0.12-0.14-0.13-0.25c0-0.58,0.1-1.14,0.35-1.65c0.17-0.34,0.4-0.62,0.7-0.81c0.02-0.02,0.05-0.03,0.07-0.05
						c0.01-0.01,0.02-0.01,0.05-0.02c0.48,0.83,0.97,1.67,1.46,2.52C12.86,26.4,12.8,26.46,12.74,26.5 M11.47,16.64
						c-0.05-0.03-0.09-0.06-0.13-0.09c-0.67-0.56-1.04-1.3-1.05-2.27c0-0.05,0-0.09,0.01-0.14c0.01-0.14,0.07-0.25,0.18-0.32
						c0.34-0.21,0.7-0.28,1.07-0.27c0.35,0.01,0.7,0.09,1.01,0.28c0.13,0.08,0.25,0.17,0.39,0.27
						C12.44,14.97,11.96,15.8,11.47,16.64 M11.14,23.48c-0.55,0.14-1.06,0.03-1.53-0.32c-0.19-0.14-0.37-0.3-0.56-0.45
						c-0.02-0.02-0.04-0.04-0.06-0.06c-0.14-0.15-0.17-0.26-0.08-0.45c0.19-0.41,0.39-0.82,0.69-1.15c0.25-0.28,0.53-0.48,0.88-0.56
						c0.11-0.02,0.22-0.03,0.35-0.05c0.17,1,0.34,1.98,0.51,2.97C11.26,23.44,11.2,23.46,11.14,23.48 M10.81,20.01
						c-0.04,0-0.08,0.01-0.12,0c-0.48-0.08-0.89-0.32-1.22-0.74c-0.08-0.1-0.15-0.2-0.21-0.31c-0.13-0.25-0.26-0.5-0.38-0.75
						c-0.07-0.14-0.06-0.22,0.04-0.32c0.35-0.36,0.71-0.68,1.16-0.85c0.37-0.14,0.75-0.15,1.13-0.04c0.03,0.01,0.05,0.02,0.08,0.03
						c0.01,0,0.01,0.01,0.03,0.03C11.15,18.03,10.98,19.02,10.81,20.01 M6.12,20.52c0.11,0.25,0.33,0.36,0.56,0.27
						c0.12-0.04,0.22-0.12,0.33-0.18c0.05-0.03,0.09-0.06,0.13-0.1c0.03,0.04,0.05,0.07,0.07,0.1c0.27,0.4,0.53,0.78,0.83,1.15
						c0.39,0.48,0.48,1.05,0.29,1.66c-0.15,0.46-0.27,0.94-0.39,1.41c-0.01,0.04-0.03,0.08-0.04,0.13c-0.07-0.02-0.14-0.04-0.2-0.05
						c-0.1-0.02-0.2-0.04-0.31-0.04c-0.14,0-0.24,0.08-0.32,0.2c-0.2,0.32-0.14,0.7,0.15,0.91c0.15,0.11,0.31,0.12,0.46,0.01
						c0.08-0.06,0.16-0.14,0.23-0.22c0.15-0.17,0.29-0.2,0.48-0.1c0.39,0.23,0.76,0.5,1.17,0.69c0.04,0.02,0.07,0.04,0.1,0.07
						c0.22,0.16,0.37,0.39,0.43,0.69c0.02,0.12,0.04,0.23,0.05,0.35c0.03,0.36,0.06,0.73,0.09,1.09c0.02,0.22,0.05,0.43,0.07,0.66
						c-0.05,0.01-0.09,0.02-0.13,0.04c-0.14,0.04-0.29,0.08-0.41,0.17c-0.11,0.08-0.19,0.18-0.21,0.33
						c-0.02,0.17,0.01,0.34,0.09,0.48c0.2,0.34,0.65,0.32,0.83-0.03c0.05-0.11,0.09-0.23,0.13-0.35c0.02-0.05,0.03-0.11,0.05-0.18
						c0.07-0.01,0.14-0.02,0.2-0.01c0.61,0.08,1.22,0.16,1.83,0.23c0.11,0.01,0.18,0.07,0.24,0.18c0.28,0.58,0.57,1.16,0.85,1.74
						c0.02,0.05,0.05,0.11,0.06,0.16c0.04,0.14,0.01,0.24-0.09,0.32c-0.04,0.03-0.09,0.06-0.13,0.09c-0.15,0.1-0.22,0.26-0.2,0.45
						c0.01,0.1,0.03,0.2,0.07,0.29c0.07,0.19,0.21,0.3,0.38,0.31v-3.87l-0.02,0.01c-0.19,0.05-0.38,0.06-0.58,0.05
						c-0.16-0.01-0.27-0.08-0.35-0.24c-0.13-0.28-0.19-0.58-0.21-0.89c-0.03-0.49,0.04-0.97,0.22-1.42
						c0.07-0.17,0.15-0.32,0.28-0.47c0.22,0.17,0.44,0.34,0.66,0.51v-0.5c-1.6-1.53-2.62-3.84-2.62-6.43c0-2.58,1.02-4.88,2.62-6.41
						v-0.5c-0.23,0.17-0.45,0.35-0.68,0.52c-0.2-0.28-0.34-0.57-0.41-0.91c-0.1-0.47-0.07-0.94,0.03-1.41
						c0.03-0.15,0.07-0.3,0.11-0.45c0.06-0.2,0.15-0.27,0.33-0.26c0.21,0.01,0.41,0.04,0.61,0.08v-3.9
						c-0.16,0.02-0.29,0.12-0.38,0.29c-0.1,0.2-0.11,0.4,0.01,0.58c0.07,0.11,0.17,0.2,0.26,0.3c0.03,0.03,0.06,0.06,0.1,0.09
						c-0.02,0.05-0.03,0.08-0.05,0.11c-0.29,0.66-0.59,1.31-0.88,1.97c-0.06,0.13-0.14,0.19-0.26,0.21
						c-0.18,0.03-0.35,0.07-0.53,0.1c-0.47,0.09-0.95,0.17-1.43,0.13c-0.03,0-0.06-0.01-0.08-0.01c-0.05-0.18-0.09-0.34-0.14-0.5
						c-0.04-0.13-0.13-0.23-0.25-0.28c-0.29-0.11-0.62,0.08-0.7,0.43c-0.05,0.26,0.01,0.48,0.22,0.61c0.09,0.05,0.18,0.09,0.28,0.12
						c0.06,0.02,0.12,0.03,0.19,0.05c0.02,0.12,0.04,0.23,0.05,0.35c0.01,0.08-0.01,0.16-0.01,0.25c-0.01,0.1-0.02,0.2-0.03,0.3
						c-0.06,0.5-0.11,1-0.17,1.5c-0.01,0.1-0.05,0.18-0.13,0.23c-0.5,0.32-0.99,0.65-1.49,0.97c-0.05,0.03-0.1,0.05-0.15,0.08
						c-0.13,0.05-0.24,0.01-0.33-0.11c-0.04-0.05-0.07-0.11-0.1-0.17c-0.07-0.13-0.18-0.2-0.31-0.21c-0.21-0.02-0.48,0.17-0.56,0.39
						c-0.02,0.05-0.03,0.11-0.03,0.17c-0.01,0.16,0.03,0.3,0.11,0.43c0.08,0.14,0.2,0.22,0.34,0.23c0.1,0.01,0.2-0.02,0.3-0.03
						c0.04-0.01,0.07-0.02,0.11-0.04c0.03,0.06,0.06,0.1,0.08,0.15c0.26,0.57,0.44,1.17,0.57,1.8c0.06,0.3,0.01,0.57-0.16,0.81
						c-0.03,0.05-0.06,0.09-0.09,0.14c-0.07,0.11-0.16,0.21-0.22,0.33c-0.23,0.43-0.54,0.78-0.84,1.15
						c-0.01,0.01-0.02,0.02-0.04,0.03C7.07,19.87,7.04,19.84,7,19.82c-0.11-0.06-0.21-0.14-0.32-0.18c-0.24-0.09-0.47,0.03-0.57,0.3
						c-0.03,0.09-0.05,0.18-0.05,0.27C6.06,20.33,6.08,20.42,6.12,20.52"/>
				</defs>
				<clipPath id="SVGID_5_">
					<use xlink:href="#SVGID_4_"  style="overflow:visible;"/>
				</clipPath>
				
					<linearGradient id="SVGID_6_" gradientUnits="userSpaceOnUse" x1="-1089.9414" y1="277.5098" x2="-1089.804" y2="277.5098" gradientTransform="matrix(91.2905 0 0 -91.2905 99505.3906 25354.2441)">
					<stop  offset="0" style="stop-color:#B05105"/>
					<stop  offset="0.1495" style="stop-color:#B05105"/>
					<stop  offset="0.4059" style="stop-color:#C37015"/>
					<stop  offset="0.7131" style="stop-color:#DEA030"/>
					<stop  offset="0.7976" style="stop-color:#E6B446"/>
					<stop  offset="0.9754" style="stop-color:#FAE786"/>
					<stop  offset="1" style="stop-color:#FDEE91"/>
				</linearGradient>
				<rect x="6.06" y="6.99" class="st1" width="7.83" height="26.49"/>
			</g>
		</g>
	</g>
	<g>
		<g>
			<g>
				<defs>
					<path id="SVGID_7_" d="M8.72,13.15c-0.04-0.13-0.08-0.25-0.12-0.39c0.1-0.04,0.19-0.08,0.29-0.11c0.05,0.12,0.1,0.23,0.15,0.35
						C8.93,13.06,8.83,13.1,8.72,13.15 M7.68,12.44c0.08,0.09,0.16,0.18,0.24,0.27c0.04,0.05,0.08,0.1,0.06,0.18
						C7.96,13.01,8,13.06,8.1,13.07c0.11,0.02,0.2-0.04,0.28-0.12c0.03-0.03,0.05-0.06,0.09-0.1c0.05,0.12,0.09,0.22,0.14,0.34
						c-0.21,0.02-0.41,0.03-0.45,0.33c0.15,0.07,0.18,0.21,0.17,0.38c-0.01,0.07-0.01,0.14,0,0.21c0,0.03,0.02,0.07,0.02,0.11
						c0.09-0.04,0.14-0.13,0.19-0.2c0.09-0.14,0.2-0.22,0.36-0.17l0.02-0.01c0.09-0.21,0.02-0.38-0.12-0.54
						c0.09-0.06,0.17-0.11,0.27-0.18c-0.02,0.26,0.05,0.44,0.25,0.52c0.14-0.21,0.17-0.22,0.41-0.21c0.04,0,0.08,0.01,0.12,0
						c0.03,0,0.07-0.01,0.12-0.03c-0.13-0.16-0.25-0.3-0.37-0.43c0.01-0.08,0.03-0.15,0.04-0.24c-0.08-0.01-0.15-0.03-0.22-0.02
						c-0.13,0-0.2,0.11-0.3,0.2c-0.04-0.09-0.07-0.17-0.11-0.26c0.05-0.03,0.09-0.06,0.13-0.09c0.07-0.05,0.15-0.1,0.22-0.16
						c0.06-0.05,0.06-0.15,0-0.18c-0.09-0.05-0.1-0.14-0.1-0.24c0-0.14-0.01-0.27-0.01-0.44c-0.05,0.05-0.09,0.08-0.12,0.11
						c-0.05,0.06-0.09,0.12-0.14,0.19c-0.07,0.09-0.16,0.14-0.27,0.11c-0.02-0.01-0.04-0.01-0.06-0.01
						c-0.09,0.22-0.02,0.39,0.12,0.55c-0.08,0.05-0.14,0.09-0.22,0.13c-0.03-0.08-0.05-0.14-0.07-0.2
						c-0.03-0.07-0.06-0.15-0.11-0.21c-0.07-0.1-0.13-0.09-0.19,0.02c-0.04,0.07-0.09,0.1-0.15,0.11c-0.08,0.01-0.15,0.01-0.23,0.02
						c-0.06,0-0.13,0-0.21,0C7.65,12.39,7.66,12.42,7.68,12.44"/>
				</defs>
				<clipPath id="SVGID_8_">
					<use xlink:href="#SVGID_7_"  style="overflow:visible;"/>
				</clipPath>
				
					<linearGradient id="SVGID_9_" gradientUnits="userSpaceOnUse" x1="-1089.9414" y1="277.0044" x2="-1089.804" y2="277.0044" gradientTransform="matrix(91.2905 0 0 -91.2905 99505.3906 25300.7422)">
					<stop  offset="0" style="stop-color:#B05105"/>
					<stop  offset="0.1495" style="stop-color:#B05105"/>
					<stop  offset="0.4059" style="stop-color:#C37015"/>
					<stop  offset="0.7131" style="stop-color:#DEA030"/>
					<stop  offset="0.7976" style="stop-color:#E6B446"/>
					<stop  offset="0.9754" style="stop-color:#FAE786"/>
					<stop  offset="1" style="stop-color:#FDEE91"/>
				</linearGradient>
				<rect x="7.61" y="11.54" class="st2" width="2.36" height="2.67"/>
			</g>
		</g>
	</g>
	<g>
		<g>
			<g>
				<defs>
					<path id="SVGID_10_" d="M7.06,17.97c-0.07-0.11-0.14-0.22-0.21-0.33c0.08-0.07,0.16-0.14,0.24-0.21
						c0.08,0.1,0.15,0.19,0.24,0.29C7.24,17.8,7.16,17.88,7.06,17.97 M5.91,17.65c0.1,0.06,0.19,0.11,0.29,0.17
						c0.05,0.03,0.09,0.07,0.1,0.14c0.01,0.11,0.06,0.15,0.16,0.13c0.11-0.02,0.19-0.1,0.24-0.2c0.02-0.04,0.04-0.08,0.06-0.13
						c0.08,0.09,0.15,0.18,0.22,0.27c-0.18,0.1-0.38,0.16-0.34,0.48c0.16,0.02,0.23,0.14,0.26,0.3c0.01,0.05,0.02,0.11,0.04,0.16
						c0.02,0.05,0.04,0.09,0.07,0.16c0.04-0.08,0.07-0.12,0.09-0.18c0.02-0.06,0.04-0.12,0.06-0.18c0.04-0.13,0.12-0.2,0.24-0.21
						c0.02,0,0.03-0.01,0.04-0.01c0.04-0.25-0.08-0.38-0.25-0.48c0.07-0.09,0.13-0.17,0.21-0.26c0.05,0.24,0.16,0.4,0.38,0.41
						c0.08-0.25,0.1-0.27,0.34-0.34c0.03-0.01,0.07-0.02,0.1-0.03c0.03-0.02,0.07-0.04,0.12-0.07c-0.12-0.07-0.22-0.14-0.32-0.19
						c-0.11-0.05-0.17-0.13-0.16-0.28c0-0.01-0.01-0.02-0.02-0.04c-0.22-0.02-0.35,0.11-0.43,0.34c-0.05-0.06-0.08-0.1-0.12-0.14
						c-0.02-0.02-0.03-0.05-0.06-0.08c0.04-0.05,0.08-0.1,0.11-0.14c0.05-0.07,0.11-0.14,0.16-0.21c0.04-0.06,0.02-0.17-0.04-0.18
						c-0.12-0.02-0.14-0.11-0.17-0.22c-0.04-0.12-0.07-0.25-0.12-0.38c-0.09,0.09-0.11,0.19-0.15,0.29
						c-0.05,0.16-0.14,0.26-0.3,0.27L6.7,16.84c-0.01,0.1,0,0.2,0.06,0.28c0.05,0.07,0.12,0.13,0.19,0.2
						c-0.06,0.06-0.11,0.13-0.17,0.19c-0.06-0.08-0.11-0.15-0.16-0.21c-0.04-0.05-0.09-0.1-0.15-0.14
						c-0.07-0.05-0.13-0.02-0.14,0.06c-0.02,0.14-0.1,0.19-0.2,0.22c-0.11,0.04-0.21,0.09-0.34,0.14
						C5.85,17.61,5.88,17.64,5.91,17.65"/>
				</defs>
				<clipPath id="SVGID_11_">
					<use xlink:href="#SVGID_10_"  style="overflow:visible;"/>
				</clipPath>
				
					<linearGradient id="SVGID_12_" gradientUnits="userSpaceOnUse" x1="-1089.9414" y1="277.335" x2="-1089.804" y2="277.335" gradientTransform="matrix(91.2905 0 0 -91.2905 99505.3906 25335.7344)">
					<stop  offset="0" style="stop-color:#B05105"/>
					<stop  offset="0.1495" style="stop-color:#B05105"/>
					<stop  offset="0.4059" style="stop-color:#C37015"/>
					<stop  offset="0.7131" style="stop-color:#DEA030"/>
					<stop  offset="0.7976" style="stop-color:#E6B446"/>
					<stop  offset="0.9754" style="stop-color:#FAE786"/>
					<stop  offset="1" style="stop-color:#FDEE91"/>
				</linearGradient>
				<rect x="5.81" y="16.25" class="st3" width="2.52" height="2.87"/>
			</g>
		</g>
	</g>
	<g>
		<g>
			<g>
				<defs>
					<path id="SVGID_13_" d="M8.37,31.25c-0.01,0.05-0.04,0.09-0.07,0.13c-0.06,0.06-0.15,0.09-0.22,0.13
						c-0.07-0.18-0.16-0.34-0.29-0.46s-0.29-0.19-0.46-0.22c-0.03-0.08-0.06-0.15-0.09-0.22c-0.04-0.07-0.09-0.12-0.16-0.15
						c-0.07-0.03-0.14-0.04-0.2-0.05c0.03-0.05,0.06-0.1,0.1-0.16c0,0,0.02-0.01,0.04-0.01c0.19-0.03,0.38-0.02,0.57,0.04
						c0.28,0.08,0.51,0.23,0.7,0.47c0.08,0.11,0.12,0.23,0.12,0.35C8.39,31.14,8.38,31.2,8.37,31.25 M7.92,31.9
						c-0.07,0.14-0.21,0.29-0.43,0.28c-0.23-0.01-0.43-0.11-0.62-0.25l-0.01-0.01c0.04-0.12,0.38-0.81,0.44-0.88
						c0.02,0.05,0.04,0.1,0.06,0.15s0.03,0.1,0.06,0.14c0.06,0.11,0.17,0.13,0.26,0.05c0.02-0.02,0.03-0.04,0.04-0.06
						c0.03-0.04,0.05-0.08,0.08-0.13c0.09,0.11,0.15,0.26,0.15,0.37c-0.15,0.05-0.32,0.07-0.49,0.1c0.15,0.1,0.3,0.16,0.46,0.21
						C7.92,31.89,7.93,31.9,7.92,31.9 M6.81,31.85c-0.11-0.12-0.21-0.23-0.25-0.4c0.1-0.02,0.2-0.04,0.29-0.07
						c0.09-0.03,0.17-0.08,0.27-0.13C7.01,31.46,6.91,31.65,6.81,31.85 M7.15,31.04C7.12,31.13,7.07,31.19,7,31.23
						c-0.14,0.09-0.3,0.11-0.47,0.14c-0.01-0.1-0.03-0.18-0.03-0.27c-0.01-0.2,0.04-0.38,0.2-0.5c0.11-0.08,0.22-0.1,0.34-0.07
						s0.18,0.15,0.16,0.27c-0.11,0-0.22-0.01-0.34,0.01c0.12,0.04,0.24,0.04,0.33,0.11C7.17,30.97,7.16,31,7.15,31.04 M6.22,29.33
						c-0.01-0.09-0.02-0.18-0.03-0.27c-0.03-0.27-0.15-0.49-0.35-0.65L5.82,28.4c-0.01-0.01-0.02-0.02-0.04-0.04
						c0.04-0.05,0.08-0.1,0.12-0.16c0.04-0.05,0.09-0.08,0.15-0.09c0.18-0.01,0.33,0.05,0.45,0.2c0.09,0.12,0.16,0.25,0.2,0.39
						c0.07,0.21,0.09,0.44,0.07,0.66c-0.01,0.14-0.04,0.28-0.09,0.42c-0.01,0.02-0.02,0.05-0.03,0.05
						c-0.05,0.02-0.11,0.04-0.16,0.06C6.5,29.84,6.5,29.8,6.5,29.76C6.5,29.55,6.41,29.42,6.22,29.33 M6.4,29.83
						c-0.06,0.2-0.19,0.3-0.37,0.33c-0.16,0.03-0.3-0.03-0.44-0.11c0.01-0.04,0.01-0.07,0.02-0.11c0.04-0.15,0.12-0.28,0.22-0.4
						C5.9,29.45,6,29.44,6.1,29.42c0.03,0.1,0.02,0.19,0.01,0.28h0.02c0.03-0.09,0.06-0.18,0.09-0.27c0.07,0,0.11,0.04,0.15,0.09
						c0.04,0.06,0.05,0.12,0.05,0.18C6.42,29.76,6.41,29.79,6.4,29.83 M6.36,31.35c-0.03,0-0.06,0-0.09-0.01
						c-0.09-0.02-0.17-0.05-0.26-0.08C5.9,31.22,5.8,31.17,5.7,31.12c-0.03-0.02-0.05-0.04-0.05-0.08c0-0.03-0.01-0.06-0.01-0.09
						c-0.02-0.14-0.05-0.28-0.07-0.43c-0.01-0.09-0.02-0.18,0-0.29c0.22,0.09,0.43,0.12,0.65,0c-0.07,0.17-0.14,0.32-0.18,0.49
						c0.16-0.01,0.31-0.05,0.48-0.09c-0.08,0.11-0.14,0.22-0.15,0.35c-0.01,0.08-0.01,0.17-0.01,0.26c0,0.03,0,0.05,0,0.08
						C6.36,31.32,6.36,31.33,6.36,31.35 M5.61,29.7c-0.05,0.09-0.08,0.2-0.12,0.29c-0.12-0.05-0.22-0.18-0.31-0.36
						c0.2-0.06,0.4-0.13,0.6-0.19C5.73,29.53,5.66,29.61,5.61,29.7 M5.13,29.55C5.05,29.32,5,29.08,5.04,28.83
						c0.03-0.19,0.17-0.35,0.34-0.38c0.01,0.1,0.02,0.2,0.03,0.29c0.01,0.1,0.02,0.19,0.06,0.3c0.07-0.2,0.14-0.39,0.23-0.56
						c0.12,0.05,0.21,0.13,0.29,0.24c-0.06,0.03-0.12,0.05-0.17,0.07c-0.12,0.06-0.15,0.2-0.05,0.3c0.04,0.04,0.08,0.07,0.12,0.1
						S5.96,29.25,6,29.28C5.92,29.35,5.23,29.56,5.13,29.55 M5.08,26.47c0-0.08-0.03-0.15-0.08-0.2c-0.05-0.05-0.11-0.1-0.16-0.14
						c0.05-0.03,0.09-0.06,0.15-0.1c0,0,0.02,0,0.03,0.01c0.18,0.07,0.34,0.17,0.49,0.3c0.21,0.2,0.36,0.44,0.43,0.74
						c0.04,0.19,0,0.35-0.12,0.5c-0.03,0.04-0.07,0.07-0.11,0.08c-0.08,0.02-0.16,0.01-0.25,0.01c0.01-0.19,0-0.37-0.07-0.54
						s-0.18-0.31-0.32-0.41c0-0.07,0.01-0.13,0.01-0.19C5.08,26.5,5.08,26.48,5.08,26.47 M4.69,24.87c0.03-0.09,0.06-0.17,0.09-0.25
						c0.09-0.25,0.06-0.5-0.05-0.73l-0.01-0.02c-0.01-0.02-0.01-0.03-0.02-0.05c0.06-0.03,0.11-0.05,0.16-0.08s0.11-0.03,0.17-0.01
						c0.16,0.07,0.27,0.2,0.31,0.38c0.03,0.14,0.04,0.29,0.02,0.44c-0.02,0.22-0.1,0.42-0.2,0.62c-0.06,0.12-0.15,0.23-0.24,0.32
						c-0.02,0.02-0.04,0.03-0.05,0.03c-0.05,0-0.11-0.02-0.17-0.02c0.07-0.12,0.11-0.22,0.11-0.32C4.82,25.07,4.78,24.97,4.69,24.87
						 M6.37,31.67c0,0.1-0.03,0.18-0.09,0.25C6.21,32,6.13,32.05,6.04,32.08c-0.13,0.05-0.27,0.05-0.41,0.03
						c-0.2-0.03-0.4-0.06-0.6-0.09C4.88,32,4.72,32,4.57,32.04c-0.04,0.01-0.09,0.03-0.14,0.05c0.02-0.05,0.04-0.1,0.05-0.15
						c0.06-0.19,0.09-0.39,0.12-0.59c0.03-0.19,0.05-0.38,0.08-0.57c0.02-0.17,0.07-0.34,0.18-0.48c0.07-0.09,0.15-0.16,0.26-0.17
						c0.12-0.02,0.23,0.02,0.35,0.06C5.44,30.47,5.52,30.74,5.53,31c-0.06,0.02-0.11,0.03-0.17,0.04c-0.03-0.07-0.09-0.08-0.16-0.06
						C5.14,31,5.08,31.02,5.02,31.04c-0.07,0.02-0.13,0.03-0.2,0c-0.01,0-0.02-0.01-0.04-0.01c0.03,0.06,0.07,0.08,0.12,0.09
						c0.06,0.02,0.12,0,0.18-0.01c0.04-0.01,0.08-0.03,0.12-0.03c0.02,0,0.05,0.01,0.05,0.03c0.02,0.05-0.01,0.14-0.06,0.17
						c-0.06,0.03-0.12,0.07-0.13,0.15c-0.01,0.07-0.04,0.12-0.08,0.17c-0.02,0.02-0.03,0.04-0.05,0.07
						c0.03-0.01,0.04-0.02,0.05-0.02c0.07-0.04,0.14-0.07,0.23-0.06c0.03,0,0.07-0.02,0.1-0.04c0.02-0.02,0.04-0.05,0.06-0.07
						c0.02-0.03,0.1-0.06,0.13-0.04c0.04,0.03,0.02,0.07,0.01,0.1c-0.01,0.05-0.03,0.1-0.05,0.16c-0.01,0.05-0.03,0.09-0.04,0.14
						s0,0.1,0.07,0.14c-0.01-0.08,0-0.15,0.02-0.21c0.02-0.07,0.05-0.14,0.07-0.21c0.02-0.05,0.03-0.11,0.02-0.17
						c0-0.01,0-0.03,0.01-0.04c0.02-0.05,0.05-0.09,0.07-0.14c0.21,0.12,0.44,0.2,0.69,0.24C6.37,31.53,6.37,31.6,6.37,31.67
						 M5.17,27.93c-0.12,0.09-0.3,0.16-0.49,0.05c-0.2-0.12-0.34-0.3-0.45-0.51v-0.02c0.08-0.09,0.65-0.53,0.73-0.57
						c0,0.06,0,0.11,0,0.16s-0.01,0.1-0.01,0.15c0.01,0.13,0.1,0.2,0.21,0.16c0.02-0.01,0.04-0.02,0.06-0.03
						c0.04-0.02,0.08-0.05,0.12-0.08c0.04,0.13,0.03,0.3-0.02,0.39c-0.16-0.03-0.31-0.08-0.47-0.14c0.09,0.16,0.2,0.28,0.32,0.4
						C5.18,27.92,5.18,27.93,5.17,27.93 M4.84,26.81c-0.06,0.06-0.13,0.09-0.21,0.09c-0.16,0.01-0.3-0.04-0.47-0.09
						c0.03-0.09,0.05-0.17,0.08-0.25c0.07-0.18,0.19-0.31,0.37-0.35c0.13-0.02,0.24,0.01,0.33,0.1s0.1,0.21,0.03,0.31
						c-0.09-0.05-0.19-0.11-0.31-0.15c0.09,0.09,0.2,0.14,0.25,0.25C4.88,26.76,4.86,26.78,4.84,26.81 M4.21,27.37
						c-0.05-0.15-0.09-0.3-0.06-0.46c0.1,0.02,0.19,0.06,0.28,0.07s0.18,0.01,0.29,0.01C4.55,27.12,4.38,27.24,4.21,27.37
						 M4.66,25.4c-0.13,0.15-0.29,0.17-0.46,0.12c-0.15-0.05-0.25-0.17-0.35-0.3c0.02-0.03,0.04-0.06,0.06-0.09
						c0.1-0.11,0.22-0.19,0.35-0.25c0.1-0.05,0.19-0.01,0.29,0.02c-0.01,0.1-0.05,0.18-0.1,0.26l0.01,0.01
						c0.06-0.06,0.12-0.13,0.18-0.2C4.7,25,4.72,25.06,4.73,25.12c0,0.02,0,0.03,0,0.05C4.74,25.26,4.71,25.33,4.66,25.4
						 M4.02,24.92c-0.08,0.06-0.15,0.14-0.22,0.2c-0.08-0.09-0.12-0.27-0.13-0.46c0.2,0.04,0.4,0.08,0.61,0.12
						C4.18,24.82,4.09,24.86,4.02,24.92 M3.65,24.56c0.02-0.24,0.07-0.47,0.21-0.67c0.11-0.16,0.29-0.23,0.45-0.17
						c-0.03,0.09-0.06,0.18-0.09,0.27s-0.05,0.18-0.06,0.29c0.14-0.14,0.28-0.27,0.43-0.39c0.08,0.1,0.13,0.21,0.16,0.34
						c-0.06-0.01-0.12-0.01-0.18-0.01c-0.13,0-0.21,0.11-0.17,0.24c0.02,0.05,0.04,0.1,0.07,0.14c0.02,0.04,0.04,0.09,0.06,0.13
						C4.43,24.75,3.73,24.61,3.65,24.56 M4.17,26.39c-0.06,0.1-0.1,0.21-0.15,0.33C4,26.7,3.97,26.69,3.95,26.67
						c-0.07-0.06-0.13-0.12-0.2-0.19c-0.08-0.09-0.15-0.18-0.22-0.27c-0.02-0.03-0.03-0.06-0.01-0.1c0.01-0.03,0.02-0.06,0.03-0.09
						c0.04-0.14,0.07-0.27,0.11-0.41c0.02-0.09,0.06-0.17,0.11-0.25c0.16,0.18,0.33,0.3,0.57,0.31c-0.13,0.12-0.25,0.22-0.35,0.35
						c0.15,0.07,0.29,0.1,0.46,0.15C4.32,26.21,4.23,26.28,4.17,26.39 M3.9,27.01c-0.04,0.08-0.1,0.14-0.18,0.17
						c-0.09,0.04-0.19,0.05-0.28,0.03c-0.14-0.02-0.26-0.08-0.38-0.16c-0.16-0.12-0.33-0.24-0.49-0.36
						c-0.13-0.09-0.26-0.16-0.41-0.2c-0.04-0.01-0.09-0.02-0.14-0.02c0.04-0.04,0.08-0.07,0.11-0.11c0.13-0.14,0.23-0.3,0.34-0.46
						c0.1-0.16,0.19-0.31,0.29-0.47c0.09-0.14,0.2-0.26,0.35-0.33c0.1-0.05,0.2-0.07,0.3-0.03c0.11,0.04,0.2,0.13,0.28,0.22
						c-0.14,0.23-0.17,0.5-0.27,0.74C3.36,26.02,3.31,26,3.26,25.99c0-0.08-0.05-0.11-0.12-0.13c-0.06-0.02-0.12-0.03-0.18-0.03
						c-0.07-0.01-0.13-0.03-0.18-0.09c-0.01-0.01-0.02-0.02-0.03-0.03c0,0.06,0.03,0.1,0.06,0.14c0.05,0.04,0.1,0.06,0.16,0.07
						c0.04,0.01,0.08,0.01,0.12,0.03c0.02,0.01,0.04,0.03,0.04,0.05c0,0.05-0.07,0.12-0.12,0.12c-0.07,0-0.13,0.01-0.17,0.07
						s-0.09,0.09-0.14,0.12c-0.02,0.01-0.04,0.02-0.08,0.04c0.03,0,0.04,0,0.05,0c0.08,0,0.16,0.01,0.23,0.05
						c0.03,0.02,0.07,0.01,0.1,0.01s0.05-0.02,0.08-0.04s0.11,0,0.13,0.03c0.02,0.04-0.01,0.07-0.03,0.09
						c-0.03,0.04-0.07,0.08-0.11,0.12c-0.03,0.04-0.06,0.07-0.09,0.11s-0.04,0.09,0,0.15c0.02-0.08,0.06-0.13,0.1-0.18
						c0.05-0.05,0.1-0.1,0.15-0.15c0.04-0.04,0.07-0.08,0.09-0.14c0-0.01,0.01-0.03,0.02-0.03c0.04-0.03,0.08-0.06,0.12-0.09
						c0.14,0.2,0.31,0.38,0.51,0.53C3.96,26.88,3.93,26.95,3.9,27.01 M1.19,26.69c0.12,0.01,0.24,0.02,0.36,0.03
						c0.07,0.01,0.14,0,0.18-0.08c0.05,0.04,0.1,0.08,0.17,0.06c0.06-0.02,0.1-0.06,0.12-0.13c0.05,0,0.1,0.03,0.14,0.06
						c0.14,0.09,0.27,0.19,0.4,0.3c0.17,0.15,0.35,0.3,0.53,0.45c0.09,0.07,0.19,0.13,0.3,0.16c0.15,0.05,0.29,0.04,0.43-0.04
						c0.04-0.02,0.08-0.05,0.12-0.08c0.02,0.06,0.04,0.12,0.05,0.17c-0.06,0.11-0.13,0.22-0.2,0.33c-0.03,0-0.06-0.02-0.1-0.01
						c-0.05,0-0.1,0-0.15,0.02c-0.1,0.04-0.14,0.17-0.08,0.27c0.05,0.07,0.1,0.14,0.16,0.2c0.1,0.1,0.2,0.19,0.31,0.27
						c0-0.02,0-0.04-0.01-0.06c-0.02-0.09-0.04-0.17-0.05-0.26c-0.04-0.22-0.01-0.43,0.1-0.62c0.01-0.02,0.02-0.03,0.04-0.05
						c0.02,0.03,0.03,0.05,0.04,0.07c0.09,0.15,0.19,0.29,0.32,0.4c0.22,0.17,0.46,0.19,0.71,0.1c0.08-0.03,0.16-0.09,0.21-0.17
						c0.02-0.04,0.05-0.05,0.09-0.04c0.04,0.01,0.08,0.02,0.11,0.01c-0.02,0.01-0.03,0.03-0.04,0.06c-0.04,0.08-0.09,0.1-0.17,0.11
						c-0.24,0.03-0.39,0.2-0.49,0.42c-0.06,0.14-0.08,0.29-0.05,0.44c0.02,0.13,0.04,0.26,0.07,0.4c0.01,0.03,0.01,0.06,0.02,0.1
						c-0.22-0.02-0.4-0.1-0.54-0.27c-0.06-0.07-0.11-0.14-0.16-0.21c-0.02-0.03-0.04-0.06-0.05-0.09l-0.02,0.01
						c0,0.05,0,0.09,0,0.13c0.01,0.16,0.02,0.31,0.02,0.47c0,0.03,0.01,0.05,0.01,0.08c0.03,0.16,0.19,0.18,0.28,0.11
						c0.03-0.03,0.06-0.06,0.08-0.1c0.02-0.03,0.04-0.06,0.05-0.1h0.03c0.09,0.04,0.19,0.05,0.29,0.05c0.04,0,0.06,0.01,0.08,0.05
						c0.02,0.04,0.04,0.08,0.07,0.12c-0.05,0.02-0.1,0.03-0.15,0.05c-0.17,0.09-0.28,0.24-0.33,0.44c-0.03,0.12-0.05,0.24-0.05,0.37
						c0,0.14,0,0.28,0,0.43c0,0.12,0,0.25,0,0.37c0,0.18-0.02,0.36-0.07,0.54C4.31,32.01,4.25,32,4.19,32.05
						c-0.05,0.05-0.07,0.1-0.07,0.18c-0.13,0-0.19,0.1-0.25,0.2c-0.05,0.09-0.11,0.18-0.17,0.28c0.02-0.01,0.04-0.01,0.05-0.01
						c0.11-0.05,0.22-0.1,0.34-0.15c0.07-0.03,0.12-0.07,0.14-0.16c0.06,0.01,0.13,0.02,0.18-0.03c0.05-0.05,0.07-0.11,0.06-0.18
						c0.05-0.02,0.11-0.02,0.16-0.02c0.16,0.01,0.33,0.04,0.49,0.08c0.22,0.05,0.45,0.11,0.67,0.16c0.11,0.02,0.23,0.02,0.34,0.01
						c0.16-0.03,0.28-0.11,0.38-0.24c0.03-0.04,0.05-0.08,0.08-0.14c0.04,0.05,0.08,0.09,0.12,0.13c-0.01,0.13-0.03,0.26-0.04,0.4
						c-0.02,0.01-0.06,0.02-0.09,0.03c-0.04,0.02-0.09,0.05-0.13,0.09c-0.08,0.09-0.06,0.23,0.04,0.28c0.07,0.04,0.15,0.07,0.23,0.1
						c0.13,0.04,0.26,0.07,0.4,0.1c-0.01-0.02-0.02-0.03-0.03-0.05c-0.05-0.07-0.1-0.14-0.15-0.21c-0.13-0.18-0.19-0.39-0.16-0.62
						c0-0.02,0.01-0.04,0.01-0.06c0.03,0.02,0.05,0.03,0.07,0.05c0.14,0.1,0.29,0.18,0.46,0.21c0.27,0.05,0.5-0.05,0.69-0.26
						c0.06-0.07,0.11-0.16,0.12-0.26c0.01-0.05,0.02-0.07,0.07-0.08c0.14-0.03,0.18-0.09,0.17-0.25c0-0.04-0.01-0.08-0.01-0.13
						l0.02-0.02c0.21-0.19,0.23-0.57,0.06-0.82c-0.15-0.21-0.34-0.37-0.57-0.46c-0.27-0.12-0.55-0.16-0.84-0.1
						c-0.01,0-0.02,0-0.04,0c0-0.04,0-0.08,0-0.12c0.03,0,0.06-0.01,0.08-0.01c0.09-0.01,0.18-0.03,0.26-0.09
						c0.11-0.08,0.13-0.22,0.05-0.33s-0.21-0.12-0.31-0.02c-0.06,0.06-0.1,0.14-0.13,0.23c-0.01,0.03-0.02,0.06-0.03,0.11
						c-0.04-0.01-0.07-0.02-0.11-0.02c0.03-0.12,0.07-0.23,0.09-0.34c0.08-0.47,0.02-0.9-0.25-1.29c-0.1-0.15-0.24-0.24-0.41-0.26
						C6.11,27.94,6,27.97,5.9,28.04c-0.04,0.03-0.07,0.03-0.11,0.01s-0.08-0.03-0.13-0.04c-0.02,0-0.04,0-0.06,0
						c0.03-0.02,0.05-0.06,0.07-0.12c0.02-0.04,0.02-0.08,0.04-0.12l0.02-0.01c0.26-0.07,0.43-0.39,0.38-0.69
						c-0.04-0.26-0.15-0.48-0.32-0.67c-0.19-0.23-0.42-0.4-0.7-0.48c-0.01,0-0.02-0.01-0.03-0.01c0.02-0.04,0.03-0.07,0.05-0.11
						c0.03,0.01,0.05,0.02,0.08,0.03c0.09,0.04,0.17,0.06,0.27,0.04c0.13-0.02,0.2-0.13,0.17-0.27c-0.03-0.13-0.14-0.2-0.26-0.16
						c-0.08,0.03-0.15,0.08-0.21,0.14c-0.02,0.02-0.04,0.05-0.07,0.08c-0.03-0.02-0.06-0.05-0.08-0.07
						c0.08-0.09,0.15-0.16,0.22-0.25c0.26-0.37,0.38-0.78,0.29-1.25c-0.03-0.18-0.12-0.32-0.26-0.42c-0.1-0.07-0.21-0.1-0.33-0.08
						c-0.05,0.01-0.07-0.01-0.1-0.05c-0.03-0.04-0.06-0.06-0.1-0.09c-0.06-0.04-0.13-0.05-0.19,0s-0.12,0.05-0.19,0.02
						c-0.22-0.08-0.42-0.01-0.6,0.14c-0.11,0.09-0.18,0.22-0.22,0.36c-0.04,0.13-0.07,0.25-0.1,0.38c-0.01,0.03-0.02,0.05-0.02,0.09
						c-0.19-0.12-0.31-0.28-0.37-0.49C3.02,23.86,3,23.78,2.98,23.69c-0.01-0.03-0.01-0.07-0.01-0.11H2.94
						c-0.02,0.04-0.04,0.08-0.05,0.12c-0.06,0.14-0.11,0.28-0.17,0.43c-0.01,0.02-0.01,0.05-0.02,0.07c-0.04,0.16,0.1,0.25,0.2,0.23
						c0.04-0.01,0.08-0.03,0.11-0.05c0.03-0.02,0.06-0.04,0.09-0.06l0.02,0.01c0.07,0.08,0.15,0.13,0.23,0.18
						c0.03,0.02,0.05,0.04,0.05,0.08c0,0.04,0.01,0.09,0.01,0.13c-0.05-0.01-0.1-0.02-0.15-0.02c-0.19,0-0.34,0.08-0.46,0.23
						c-0.07,0.09-0.14,0.19-0.19,0.3c-0.11,0.23-0.21,0.47-0.32,0.7c-0.08,0.16-0.16,0.31-0.28,0.44c-0.05-0.05-0.1-0.08-0.17-0.07
						c-0.06,0.01-0.1,0.06-0.13,0.13c-0.11-0.06-0.21,0-0.3,0.05c-0.08,0.05-0.17,0.11-0.26,0.17C1.16,26.68,1.18,26.69,1.19,26.69"
						/>
				</defs>
				<clipPath id="SVGID_14_">
					<use xlink:href="#SVGID_13_"  style="overflow:visible;"/>
				</clipPath>
				
					<linearGradient id="SVGID_15_" gradientUnits="userSpaceOnUse" x1="-1089.9414" y1="278.0648" x2="-1089.804" y2="278.0648" gradientTransform="matrix(91.2905 0 0 -91.2905 99505.3906 25412.9551)">
					<stop  offset="0" style="stop-color:#B05105"/>
					<stop  offset="0.1495" style="stop-color:#B05105"/>
					<stop  offset="0.4059" style="stop-color:#C37015"/>
					<stop  offset="0.7131" style="stop-color:#DEA030"/>
					<stop  offset="0.7976" style="stop-color:#E6B446"/>
					<stop  offset="0.9754" style="stop-color:#FAE786"/>
					<stop  offset="1" style="stop-color:#FDEE91"/>
				</linearGradient>
				<rect x="1.14" y="23.4" class="st4" width="7.45" height="9.77"/>
			</g>
		</g>
	</g>
	<g>
		<g>
			<g>
				<defs>
					<path id="SVGID_16_" d="M7.16,23.12c-0.1-0.08-0.19-0.16-0.29-0.24c0.06-0.1,0.11-0.18,0.17-0.28c0.1,0.06,0.2,0.12,0.3,0.19
						C7.28,22.9,7.23,23,7.16,23.12 M6.3,23.28c0.06,0.01,0.11,0.04,0.14,0.11c0.03,0.09,0.09,0.11,0.17,0.07
						c0.11-0.06,0.16-0.17,0.18-0.3c0.01-0.04,0.01-0.08,0.02-0.13c0.1,0.06,0.18,0.12,0.28,0.18c-0.15,0.16-0.33,0.3-0.2,0.57
						c0.2,0.01,0.23,0.03,0.33,0.22c0.02,0.05,0.05,0.09,0.08,0.14c0.03,0.04,0.06,0.06,0.11,0.11c0.02-0.09,0.03-0.15,0.03-0.21
						c0.01-0.07,0.01-0.15,0.02-0.22c0.01-0.1,0.06-0.18,0.14-0.22c0.02-0.01,0.05-0.03,0.07-0.04c-0.03-0.24-0.18-0.34-0.37-0.37
						c0.04-0.11,0.08-0.21,0.13-0.33c0.12,0.22,0.26,0.33,0.48,0.26c-0.04-0.2,0.05-0.32,0.19-0.41c0.05-0.03,0.09-0.06,0.13-0.1
						c0.03-0.02,0.05-0.06,0.08-0.1c-0.16-0.03-0.3-0.06-0.43-0.08c-0.06-0.01-0.1-0.04-0.12-0.11c-0.01-0.04-0.03-0.08-0.05-0.12
						c-0.21,0.05-0.26,0.13-0.34,0.46c-0.07-0.04-0.14-0.09-0.21-0.13c0.05-0.14,0.11-0.27,0.15-0.4C7.36,22,7.32,21.94,7.2,21.94
						c-0.06,0-0.1-0.02-0.13-0.07c-0.03-0.04-0.05-0.08-0.08-0.12c-0.06-0.09-0.12-0.18-0.19-0.28c-0.02,0.05-0.03,0.09-0.04,0.12
						c-0.01,0.08-0.02,0.16-0.02,0.24c-0.01,0.15-0.06,0.27-0.19,0.31c-0.01,0-0.02,0.02-0.03,0.03c0.04,0.23,0.17,0.33,0.37,0.37
						c-0.04,0.09-0.08,0.17-0.12,0.26c-0.06-0.04-0.1-0.08-0.15-0.11c-0.07-0.04-0.13-0.09-0.2-0.11c-0.1-0.04-0.16,0.02-0.15,0.13
						c0.01,0.09-0.02,0.15-0.08,0.2c-0.08,0.08-0.17,0.15-0.26,0.23c-0.02,0.02-0.04,0.05-0.08,0.08
						C6.02,23.23,6.16,23.25,6.3,23.28"/>
				</defs>
				<clipPath id="SVGID_17_">
					<use xlink:href="#SVGID_16_"  style="overflow:visible;"/>
				</clipPath>
				
					<linearGradient id="SVGID_18_" gradientUnits="userSpaceOnUse" x1="-1089.9414" y1="277.6893" x2="-1089.804" y2="277.6893" gradientTransform="matrix(91.2905 0 0 -91.2905 99505.3906 25373.2422)">
					<stop  offset="0" style="stop-color:#B05105"/>
					<stop  offset="0.1495" style="stop-color:#B05105"/>
					<stop  offset="0.4059" style="stop-color:#C37015"/>
					<stop  offset="0.7131" style="stop-color:#DEA030"/>
					<stop  offset="0.7976" style="stop-color:#E6B446"/>
					<stop  offset="0.9754" style="stop-color:#FAE786"/>
					<stop  offset="1" style="stop-color:#FDEE91"/>
				</linearGradient>
				<rect x="5.87" y="21.44" class="st5" width="2.45" height="2.81"/>
			</g>
		</g>
	</g>
	<g>
		<g>
			<g>
				<defs>
					<path id="SVGID_19_" d="M8.88,27.94c-0.11-0.04-0.22-0.08-0.34-0.13c0.03-0.11,0.06-0.21,0.09-0.33
						c0.11,0.03,0.22,0.05,0.34,0.08C8.94,27.69,8.91,27.8,8.88,27.94 M7.83,28.44c0.09-0.02,0.19-0.03,0.28-0.05
						c0.06-0.01,0.11,0.01,0.15,0.06c0.05,0.07,0.11,0.07,0.18,0.01c0.07-0.07,0.11-0.17,0.1-0.28c0-0.06-0.01-0.12-0.02-0.21
						c0.11,0.02,0.2,0.05,0.31,0.07c-0.1,0.21-0.23,0.4-0.04,0.61c0.18-0.07,0.22-0.05,0.36,0.08c0.04,0.04,0.08,0.08,0.12,0.11
						s0.08,0.05,0.14,0.08c-0.01-0.09-0.01-0.15-0.02-0.21c-0.01-0.07-0.03-0.14-0.04-0.21c-0.02-0.11,0.01-0.21,0.08-0.28
						c0.02-0.02,0.04-0.02,0.05-0.03c-0.1-0.25-0.27-0.28-0.46-0.25c0.02-0.12,0.01-0.23,0.05-0.34c0.17,0.16,0.33,0.21,0.52,0.06
						c-0.1-0.19-0.03-0.33,0.08-0.47c0.02-0.03,0.05-0.06,0.07-0.1c0.03-0.05,0.05-0.09,0.07-0.15c-0.03,0-0.04-0.01-0.06,0
						C9.62,26.96,9.5,26.97,9.37,27c-0.06,0.02-0.11,0-0.14-0.06c-0.02-0.04-0.05-0.07-0.07-0.1c-0.2,0.13-0.24,0.33-0.19,0.57
						c-0.09-0.02-0.17-0.05-0.25-0.06c0.01-0.16,0.03-0.31,0.04-0.46c0-0.1-0.06-0.15-0.14-0.11c-0.07,0.04-0.13,0.01-0.19-0.04
						c-0.09-0.07-0.17-0.15-0.26-0.22c-0.02-0.02-0.05-0.03-0.08-0.05c0.01,0.07,0.01,0.12,0.01,0.17c0.01,0.08,0.03,0.16,0.04,0.24
						c0.02,0.12-0.01,0.23-0.09,0.31c-0.02,0.01-0.03,0.03-0.04,0.05c0.05,0.09,0.11,0.17,0.2,0.2c0.08,0.02,0.17,0.03,0.26,0.04
						c-0.01,0.09-0.03,0.17-0.04,0.27c-0.07-0.02-0.12-0.04-0.18-0.05c-0.08-0.02-0.16-0.04-0.24-0.03
						c-0.09,0.01-0.12,0.07-0.08,0.16c0.04,0.1,0.02,0.18-0.03,0.25c-0.05,0.08-0.1,0.16-0.15,0.25c-0.02,0.04-0.04,0.07-0.08,0.13
						C7.73,28.45,7.78,28.45,7.83,28.44"/>
				</defs>
				<clipPath id="SVGID_20_">
					<use xlink:href="#SVGID_19_"  style="overflow:visible;"/>
				</clipPath>
				
					<linearGradient id="SVGID_21_" gradientUnits="userSpaceOnUse" x1="-1089.9414" y1="278.0236" x2="-1089.804" y2="278.0236" gradientTransform="matrix(91.2905 0 0 -91.2905 99505.3906 25408.623)">
					<stop  offset="0" style="stop-color:#B05105"/>
					<stop  offset="0.1495" style="stop-color:#B05105"/>
					<stop  offset="0.4059" style="stop-color:#C37015"/>
					<stop  offset="0.7131" style="stop-color:#DEA030"/>
					<stop  offset="0.7976" style="stop-color:#E6B446"/>
					<stop  offset="0.9754" style="stop-color:#FAE786"/>
					<stop  offset="1" style="stop-color:#FDEE91"/>
				</linearGradient>
				<rect x="7.66" y="26.48" class="st6" width="2.15" height="2.46"/>
			</g>
		</g>
	</g>
	<g>
		<g>
			<g>
				<defs>
					<path id="SVGID_22_" d="M11.8,31.55v-0.34c0.11-0.01,0.21-0.03,0.32-0.04c0.03,0.13,0.02,0.25,0.03,0.39L11.8,31.55L11.8,31.55
						z M11.08,30.62c0.02,0.06,0.05,0.11,0.08,0.17c0.06,0.12,0.07,0.24-0.01,0.36c-0.01,0.01-0.01,0.03-0.02,0.05
						c0.15,0.16,0.31,0.15,0.49,0.06c0.01,0.1,0.02,0.19,0.03,0.27c-0.02,0.01-0.03,0.02-0.03,0.02c-0.06,0.01-0.12,0.01-0.18,0.02
						s-0.12,0.01-0.18,0.03c-0.11,0.04-0.13,0.11-0.06,0.21c0.05,0.06,0.06,0.13,0.04,0.2c-0.03,0.1-0.05,0.19-0.08,0.29
						c-0.01,0.05-0.03,0.11-0.05,0.18c0.05-0.02,0.08-0.03,0.1-0.05c0.1-0.05,0.19-0.11,0.29-0.16c0.05-0.03,0.1-0.04,0.16-0.01
						c0.09,0.06,0.15,0.03,0.2-0.08c0.04-0.11,0.03-0.21,0-0.32c-0.02-0.04-0.03-0.09-0.05-0.14c0.11-0.01,0.2-0.02,0.31-0.04
						c-0.02,0.09-0.03,0.16-0.04,0.24c-0.02,0.17,0.02,0.27,0.17,0.36c0.12-0.15,0.25-0.11,0.39-0.03c0.04,0.02,0.07,0.04,0.11,0.05
						s0.08,0.02,0.15,0.03c-0.03-0.08-0.04-0.14-0.07-0.19c-0.02-0.06-0.06-0.11-0.09-0.16c-0.06-0.12-0.07-0.23,0-0.35
						c0.01-0.01,0.01-0.03,0.02-0.06c-0.05-0.04-0.1-0.08-0.15-0.1c-0.11-0.05-0.22,0-0.34,0.05c-0.02-0.12-0.03-0.22-0.05-0.34
						c0.21,0.1,0.38,0.09,0.52-0.11c-0.15-0.14-0.12-0.3-0.05-0.47c0.02-0.05,0.03-0.09,0.05-0.14c0.01-0.04,0.02-0.09,0.02-0.15
						c-0.17,0.09-0.33,0.17-0.48,0.26c-0.06-0.04-0.11-0.08-0.17-0.12c-0.07,0.09-0.12,0.18-0.12,0.3c0.01,0.1,0.04,0.21,0.06,0.31
						c-0.08,0.01-0.15,0.02-0.23,0.03c-0.01-0.05-0.02-0.09-0.02-0.13c-0.02-0.1-0.03-0.21-0.05-0.31
						c-0.02-0.12-0.09-0.15-0.18-0.07c-0.06,0.05-0.12,0.05-0.18,0.03c-0.1-0.04-0.2-0.08-0.31-0.12c-0.02-0.01-0.05-0.01-0.09-0.02
						C11.04,30.51,11.05,30.57,11.08,30.62"/>
				</defs>
				<clipPath id="SVGID_23_">
					<use xlink:href="#SVGID_22_"  style="overflow:visible;"/>
				</clipPath>
				
					<linearGradient id="SVGID_24_" gradientUnits="userSpaceOnUse" x1="-1089.9414" y1="278.2765" x2="-1089.804" y2="278.2765" gradientTransform="matrix(91.2905 0 0 -91.2905 99505.3906 25435.3828)">
					<stop  offset="0" style="stop-color:#B05105"/>
					<stop  offset="0.1495" style="stop-color:#B05105"/>
					<stop  offset="0.4059" style="stop-color:#C37015"/>
					<stop  offset="0.7131" style="stop-color:#DEA030"/>
					<stop  offset="0.7976" style="stop-color:#E6B446"/>
					<stop  offset="0.9754" style="stop-color:#FAE786"/>
					<stop  offset="1" style="stop-color:#FDEE91"/>
				</linearGradient>
				<rect x="11.01" y="30.29" class="st7" width="1.9" height="2.19"/>
			</g>
		</g>
	</g>
	<g>
		<g>
			<g>
				<defs>
					<path id="SVGID_25_" d="M8.55,9.3c-0.2,0.27-0.46,0.43-0.76,0.52c-0.2,0.06-0.41,0.07-0.62,0.04c-0.02,0-0.04-0.01-0.04-0.01
						C7.09,9.78,7.06,9.73,7.02,9.67c0.07-0.02,0.15-0.03,0.22-0.06c0.07-0.03,0.13-0.09,0.17-0.16s0.07-0.16,0.1-0.24
						c0.18-0.03,0.35-0.1,0.5-0.24c0.15-0.13,0.24-0.31,0.32-0.51C8.42,8.5,8.5,8.54,8.57,8.6c0.04,0.03,0.06,0.09,0.08,0.14
						C8.66,8.8,8.67,8.86,8.67,8.91C8.68,9.05,8.64,9.18,8.55,9.3 M8.04,8.8C8.01,8.75,7.98,8.71,7.95,8.66
						C7.93,8.64,7.92,8.61,7.9,8.59C7.8,8.5,7.68,8.52,7.62,8.64C7.6,8.69,7.58,8.75,7.56,8.8S7.51,8.91,7.49,8.96
						C7.43,8.88,7.06,8.13,7.01,8l0.01-0.02c0.2-0.15,0.42-0.26,0.67-0.27C7.93,7.7,8.08,7.86,8.16,8.02c0,0.01,0,0.02,0,0.03
						C7.99,8.1,7.82,8.16,7.66,8.28c0.19,0.03,0.37,0.05,0.53,0.11c0,0.01,0,0.01,0,0.02C8.2,8.53,8.14,8.69,8.04,8.8 M7,8.59
						C6.9,8.55,6.8,8.54,6.69,8.51c0.04-0.18,0.15-0.3,0.27-0.43C7.07,8.3,7.18,8.51,7.29,8.73C7.18,8.68,7.09,8.63,7,8.59
						 M7.21,9.52C7.08,9.56,6.95,9.54,6.83,9.45C6.66,9.31,6.61,9.12,6.61,8.91c0-0.09,0.02-0.19,0.03-0.29
						c0.18,0.04,0.35,0.06,0.51,0.16c0.08,0.05,0.14,0.11,0.17,0.21c0.01,0.04,0.03,0.07,0.04,0.12C7.26,9.19,7.13,9.18,7,9.23
						c0.13,0.03,0.25,0.02,0.37,0.01c0,0.02,0.01,0.04,0.01,0.06C7.38,9.39,7.32,9.49,7.21,9.52 M6.84,11.51
						c-0.05,0.16-0.12,0.3-0.22,0.43c-0.13,0.16-0.29,0.23-0.49,0.22c-0.07,0-0.12-0.04-0.16-0.09c-0.04-0.05-0.08-0.11-0.13-0.17
						c0.02-0.02,0.03-0.03,0.04-0.04l0.02-0.02c0.22-0.18,0.35-0.41,0.38-0.71c0.01-0.1,0.02-0.19,0.03-0.3
						c0.25-0.1,0.34-0.29,0.3-0.62c0.06,0.02,0.12,0.04,0.18,0.06c0.02,0.01,0.03,0.04,0.04,0.06c0.05,0.15,0.08,0.3,0.09,0.45
						c0,0.05,0,0.1,0,0.15C6.92,11.13,6.9,11.32,6.84,11.51 M6.18,10.73c-0.11-0.02-0.22-0.03-0.3-0.13
						c-0.1-0.13-0.19-0.27-0.24-0.43c-0.01-0.04-0.02-0.08-0.02-0.12C5.78,9.96,5.93,9.9,6.1,9.93c0.2,0.04,0.34,0.15,0.4,0.36
						c0.03,0.11,0.02,0.22-0.04,0.31c-0.04,0.06-0.09,0.1-0.16,0.1c-0.03-0.1-0.06-0.2-0.09-0.29H6.19C6.2,10.46,6.2,10.5,6.2,10.55
						C6.2,10.61,6.2,10.67,6.18,10.73 M5.6,9.86c-0.02-0.12-0.01-0.22,0-0.31c0.02-0.16,0.05-0.31,0.08-0.47
						c0.01-0.03,0.01-0.07,0.01-0.1c0-0.05,0.02-0.07,0.06-0.09c0.11-0.05,0.23-0.11,0.34-0.15C6.18,8.7,6.28,8.68,6.37,8.65
						C6.4,8.64,6.43,8.64,6.46,8.64c0,0.04,0,0.09,0,0.13c0,0.09,0,0.19,0.01,0.28c0.01,0.13,0.07,0.26,0.16,0.38
						C6.45,9.39,6.29,9.35,6.11,9.34c0.05,0.18,0.12,0.35,0.2,0.53C6.06,9.73,5.83,9.77,5.6,9.86 M5.19,10.5
						c0.1-0.2,0.21-0.34,0.34-0.4c0.04,0.11,0.07,0.22,0.13,0.32c0.05,0.1,0.12,0.18,0.19,0.28C5.62,10.64,5.41,10.57,5.19,10.5
						 M5.76,11.75c-0.1-0.19-0.17-0.39-0.25-0.62c-0.04,0.12-0.05,0.22-0.07,0.33c-0.01,0.1-0.02,0.21-0.03,0.32
						c-0.19-0.04-0.34-0.2-0.37-0.41c-0.05-0.27,0.01-0.53,0.09-0.78C5.24,10.58,6,10.81,6.1,10.88c-0.04,0.03-0.08,0.07-0.12,0.1
						c-0.04,0.04-0.09,0.07-0.13,0.11c-0.1,0.11-0.08,0.26,0.06,0.33c0.06,0.03,0.12,0.05,0.18,0.08
						C5.98,11.61,5.88,11.7,5.76,11.75 M5.11,9.95C4.99,9.93,4.9,9.86,4.83,9.76c-0.12-0.15-0.17-0.33-0.2-0.52
						C4.6,9.03,4.58,8.82,4.55,8.62C4.52,8.4,4.48,8.19,4.42,7.98C4.4,7.93,4.38,7.88,4.36,7.82c0.05,0.02,0.1,0.04,0.15,0.05
						c0.16,0.05,0.33,0.04,0.5,0.02c0.22-0.03,0.43-0.07,0.65-0.1c0.15-0.02,0.3-0.01,0.45,0.04c0.1,0.04,0.19,0.09,0.27,0.18
						c0.07,0.08,0.1,0.17,0.1,0.27c0,0.08,0,0.15,0,0.24C6.21,8.56,5.96,8.65,5.73,8.78C5.7,8.72,5.68,8.67,5.65,8.62
						C5.64,8.61,5.64,8.59,5.64,8.57c0.01-0.06,0-0.13-0.02-0.19C5.59,8.31,5.57,8.23,5.54,8.16C5.51,8.09,5.5,8.02,5.52,7.93
						C5.45,7.97,5.44,8.02,5.45,8.08c0.01,0.05,0.02,0.11,0.04,0.16C5.51,8.3,5.53,8.35,5.54,8.41c0.01,0.04,0.03,0.08-0.01,0.11
						C5.5,8.54,5.42,8.51,5.39,8.48C5.37,8.45,5.35,8.42,5.33,8.4C5.3,8.38,5.26,8.35,5.22,8.35C5.13,8.36,5.05,8.32,4.97,8.28
						C4.96,8.27,4.95,8.27,4.92,8.26C4.95,8.3,4.96,8.32,4.98,8.34C5.02,8.4,5.06,8.45,5.07,8.53s0.07,0.13,0.14,0.16
						C5.26,8.71,5.3,8.82,5.27,8.87C5.26,8.89,5.23,8.9,5.21,8.9C5.17,8.89,5.12,8.88,5.08,8.87c-0.06-0.02-0.13-0.03-0.2-0.02
						c-0.05,0.01-0.1,0.04-0.13,0.1c0.02,0,0.03-0.01,0.05-0.01c0.07-0.03,0.14-0.02,0.22,0C5.08,8.96,5.15,8.99,5.22,9
						c0.07,0.02,0.14,0.02,0.17-0.06c0.06,0.02,0.12,0.03,0.18,0.05C5.56,9.28,5.47,9.57,5.5,9.87C5.37,9.93,5.24,9.97,5.11,9.95
						 M3.75,7.45c0.07,0.11,0.13,0.22,0.28,0.21C4.02,7.74,4.04,7.81,4.1,7.86C4.16,7.91,4.23,7.9,4.3,7.88
						c0.06,0.2,0.07,0.39,0.08,0.59c0,0.13,0,0.27,0,0.4c0,0.16,0,0.31,0,0.47c0,0.13,0.02,0.27,0.05,0.4
						c0.05,0.22,0.17,0.38,0.36,0.48c0.05,0.02,0.1,0.04,0.16,0.06c-0.03,0.04-0.05,0.08-0.07,0.13c-0.02,0.04-0.05,0.05-0.08,0.05
						c-0.11,0-0.21,0.01-0.31,0.05H4.46c-0.02-0.04-0.04-0.07-0.06-0.1c-0.03-0.04-0.06-0.08-0.09-0.11
						c-0.09-0.08-0.27-0.05-0.3,0.12C4,10.45,4,10.48,3.99,10.5c-0.01,0.17-0.02,0.34-0.03,0.52c0,0.05,0,0.1,0,0.15l0.03,0.01
						c0.02-0.03,0.03-0.07,0.06-0.1c0.06-0.08,0.11-0.16,0.18-0.23c0.16-0.18,0.35-0.27,0.59-0.29c-0.01,0.05-0.01,0.08-0.02,0.11
						c-0.02,0.14-0.05,0.29-0.07,0.43c-0.02,0.17-0.01,0.33,0.06,0.48C4.9,11.83,5.07,12,5.33,12.04c0.09,0.01,0.15,0.03,0.18,0.12
						c0.04,0.08,0.11,0.11,0.19,0.1c0.05-0.01,0.09-0.02,0.14-0.04c0.05-0.02,0.08-0.02,0.12,0.01c0.11,0.08,0.23,0.11,0.36,0.09
						c0.19-0.02,0.33-0.12,0.45-0.28c0.3-0.42,0.36-0.89,0.27-1.4c-0.02-0.12-0.07-0.24-0.1-0.37c0.04-0.01,0.08-0.02,0.12-0.03
						c0.01,0.05,0.02,0.08,0.03,0.12c0.03,0.1,0.07,0.18,0.14,0.25c0.11,0.11,0.25,0.09,0.33-0.03c0.09-0.12,0.06-0.27-0.05-0.36
						c-0.09-0.06-0.18-0.09-0.28-0.1c-0.03,0-0.06-0.01-0.09-0.01c0-0.05,0-0.09,0-0.13c0.02,0,0.03,0,0.04,0
						C7.5,10.05,7.8,10,8.1,9.87C8.35,9.76,8.56,9.6,8.72,9.36c0.19-0.27,0.16-0.69-0.07-0.89L8.63,8.45
						C8.64,8.4,8.64,8.36,8.65,8.31c0.01-0.17-0.03-0.23-0.19-0.27C8.41,8.03,8.4,8.01,8.39,7.96c-0.02-0.11-0.06-0.2-0.13-0.28
						C8.05,7.45,7.8,7.34,7.51,7.4c-0.18,0.03-0.35,0.12-0.5,0.23C6.99,7.65,6.96,7.66,6.93,7.68C6.92,7.65,6.92,7.63,6.92,7.61
						C6.89,7.36,6.96,7.13,7.1,6.93C7.15,6.85,7.21,6.78,7.27,6.7C7.28,6.68,7.29,6.66,7.3,6.65C7.15,6.67,7,6.71,6.86,6.76
						C6.77,6.79,6.69,6.82,6.61,6.87C6.5,6.93,6.48,7.08,6.57,7.18c0.04,0.04,0.09,0.07,0.14,0.1c0.03,0.02,0.07,0.03,0.1,0.04
						c0.02,0.15,0.03,0.29,0.05,0.44C6.82,7.81,6.77,7.86,6.73,7.9C6.7,7.84,6.68,7.8,6.65,7.75C6.55,7.6,6.41,7.51,6.24,7.49
						C6.12,7.47,5.99,7.47,5.87,7.5C5.63,7.55,5.38,7.61,5.14,7.67C4.96,7.71,4.79,7.75,4.61,7.76c-0.06,0-0.12,0.01-0.17-0.02
						c0.01-0.08-0.01-0.14-0.06-0.2c-0.06-0.05-0.13-0.05-0.2-0.03c-0.01-0.1-0.07-0.14-0.15-0.18C3.91,7.28,3.78,7.22,3.66,7.17
						C3.64,7.16,3.63,7.16,3.6,7.15C3.63,7.26,3.69,7.36,3.75,7.45"/>
				</defs>
				<clipPath id="SVGID_26_">
					<use xlink:href="#SVGID_25_"  style="overflow:visible;"/>
				</clipPath>
				
					<linearGradient id="SVGID_27_" gradientUnits="userSpaceOnUse" x1="-1089.9414" y1="276.7708" x2="-1089.804" y2="276.7708" gradientTransform="matrix(91.2905 0 0 -91.2905 99505.3906 25276.0254)">
					<stop  offset="0" style="stop-color:#B05105"/>
					<stop  offset="0.1495" style="stop-color:#B05105"/>
					<stop  offset="0.4059" style="stop-color:#C37015"/>
					<stop  offset="0.7131" style="stop-color:#DEA030"/>
					<stop  offset="0.7976" style="stop-color:#E6B446"/>
					<stop  offset="0.9754" style="stop-color:#FAE786"/>
					<stop  offset="1" style="stop-color:#FDEE91"/>
				</linearGradient>
				<rect x="3.57" y="6.64" class="st8" width="5.33" height="5.68"/>
			</g>
		</g>
	</g>
	<g>
		<g>
			<g>
				<defs>
					<path id="SVGID_28_" d="M12.36,3.3c0.03-0.02,0.07-0.04,0.1-0.05c0.09-0.03,0.18-0.06,0.27-0.08c0.23-0.05,0.43,0,0.64,0.14
						c-0.03,0.03-0.05,0.05-0.07,0.08c-0.1,0.1-0.2,0.2-0.29,0.3c-0.11,0.12-0.18,0.26-0.21,0.43c-0.05,0.27,0,0.52,0.18,0.71
						c0.06,0.06,0.1,0.12,0.08,0.22c-0.02,0.09,0.03,0.16,0.1,0.2c0.04,0.02,0.09,0.05,0.13,0.06c0.05,0.01,0.08,0.03,0.09,0.09
						c0.05,0.13,0.13,0.23,0.25,0.3c0.08,0.05,0.15,0.07,0.23,0.08V5.6c-0.1-0.02-0.2-0.06-0.29-0.14
						c-0.05-0.05-0.08-0.11-0.08-0.18c0-0.07-0.01-0.14-0.01-0.22c0.02,0,0.04-0.01,0.06-0.01h0.02c0.11,0,0.21-0.02,0.31-0.06v-0.1
						c-0.13,0.03-0.25,0.04-0.38,0.01c0.02-0.22,0.07-0.43,0.13-0.66c-0.1,0.07-0.16,0.14-0.23,0.22c-0.07,0.08-0.13,0.16-0.2,0.24
						c-0.13-0.15-0.16-0.38-0.08-0.57c0.11-0.25,0.29-0.42,0.5-0.57c0.04,0.03,0.15,0.16,0.27,0.32V3.75
						c-0.05-0.08-0.11-0.15-0.16-0.23c0.06-0.03,0.11-0.05,0.16-0.07V2.92c-0.03-0.07-0.05-0.14-0.05-0.22
						c-0.01-0.13,0.01-0.25,0.05-0.37V1.78c-0.06,0.1-0.13,0.19-0.19,0.29c-0.07,0.11-0.13,0.23-0.17,0.36
						c-0.09,0.21-0.09,0.42,0.01,0.61c0.03,0.05,0.06,0.09,0.1,0.15c-0.04,0.02-0.09,0.04-0.13,0.06c-0.04,0.02-0.06,0.01-0.09-0.01
						c-0.09-0.07-0.18-0.13-0.28-0.16l-0.02-0.02c0-0.04,0.01-0.08,0.01-0.12c0-0.05,0-0.1-0.02-0.14
						c-0.03-0.12-0.19-0.22-0.31-0.09c-0.02,0.02-0.04,0.04-0.06,0.06c-0.1,0.13-0.2,0.27-0.3,0.4C12.4,3.21,12.38,3.25,12.36,3.3
						L12.36,3.3z"/>
				</defs>
				<clipPath id="SVGID_29_">
					<use xlink:href="#SVGID_28_"  style="overflow:visible;"/>
				</clipPath>
				
					<linearGradient id="SVGID_30_" gradientUnits="userSpaceOnUse" x1="-1089.9414" y1="276.379" x2="-1089.804" y2="276.379" gradientTransform="matrix(91.2905 0 0 -91.2905 99505.3906 25234.5645)">
					<stop  offset="0" style="stop-color:#B05105"/>
					<stop  offset="0.1495" style="stop-color:#B05105"/>
					<stop  offset="0.4059" style="stop-color:#C37015"/>
					<stop  offset="0.7131" style="stop-color:#DEA030"/>
					<stop  offset="0.7976" style="stop-color:#E6B446"/>
					<stop  offset="0.9754" style="stop-color:#FAE786"/>
					<stop  offset="1" style="stop-color:#FDEE91"/>
				</linearGradient>
				<rect x="12.34" y="1.78" class="st9" width="1.52" height="4.01"/>
			</g>
		</g>
	</g>
	<g>
		<g>
			<g>
				<defs>
					<path id="SVGID_31_" d="M12.29,5.73c-0.02-0.05-0.03-0.11-0.05-0.16c-0.01-0.03-0.01-0.06-0.03-0.08
						c-0.07-0.12-0.19-0.14-0.28-0.04c-0.04,0.04-0.07,0.09-0.1,0.13c-0.04,0.04-0.07,0.09-0.11,0.13c-0.04-0.1-0.18-0.93-0.19-1.07
						l0.01-0.01c0.24-0.08,0.48-0.11,0.72-0.04s0.33,0.27,0.36,0.45c0,0.01,0,0.02-0.01,0.03c-0.18-0.01-0.35,0-0.54,0.05
						c0.17,0.09,0.33,0.17,0.48,0.28C12.53,5.52,12.41,5.66,12.29,5.73 M12.89,5.88c-0.01,0.21-0.09,0.38-0.26,0.5
						c-0.26,0.19-0.55,0.26-0.87,0.24c-0.21-0.01-0.41-0.06-0.6-0.16c-0.02-0.01-0.03-0.02-0.03-0.02c-0.02-0.08-0.04-0.14-0.05-0.2
						c0.08,0.01,0.15,0.02,0.23,0.02s0.15-0.04,0.21-0.1s0.11-0.13,0.16-0.2c0.18,0.03,0.36,0.01,0.54-0.06
						c0.18-0.08,0.31-0.22,0.44-0.38c0.07,0.07,0.15,0.13,0.2,0.21C12.88,5.77,12.89,5.82,12.89,5.88
						C12.89,5.87,12.89,5.87,12.89,5.88 M11.35,5.2c-0.09-0.07-0.18-0.12-0.28-0.18c0.09-0.16,0.23-0.24,0.38-0.32
						c0.05,0.24,0.09,0.48,0.14,0.73C11.5,5.34,11.43,5.26,11.35,5.2 M11.29,6.15c-0.14-0.01-0.25-0.07-0.34-0.19
						c-0.12-0.19-0.12-0.39-0.06-0.59C10.92,5.28,10.96,5.2,11,5.1c0.16,0.1,0.32,0.17,0.44,0.31c0.06,0.07,0.1,0.15,0.1,0.25
						c0,0.04,0.01,0.08,0.01,0.13c-0.12,0.05-0.24-0.01-0.38,0c0.12,0.07,0.24,0.1,0.35,0.13C11.52,6.06,11.42,6.16,11.29,6.15
						 M9.66,5.95c0.02-0.12,0.05-0.21,0.09-0.3c0.06-0.14,0.13-0.28,0.2-0.42C9.97,5.2,9.98,5.17,9.99,5.14
						c0.01-0.05,0.04-0.06,0.08-0.07c0.12-0.01,0.25-0.03,0.37-0.04c0.1,0,0.2,0,0.29,0.01c0.03,0,0.06,0.01,0.09,0.02
						c-0.04,0.13-0.08,0.26-0.11,0.39c-0.02,0.13,0,0.27,0.05,0.42c-0.16-0.1-0.31-0.19-0.47-0.26c0,0.19,0.02,0.37,0.04,0.57
						C10.14,5.98,9.91,5.94,9.66,5.95 M10.41,6.66c0,0.12-0.04,0.21-0.13,0.28c-0.05,0.05-0.11,0.07-0.18,0.05
						c0-0.1-0.01-0.21-0.01-0.31h-0.02c-0.02,0.1-0.04,0.2-0.1,0.29c-0.1-0.06-0.2-0.1-0.25-0.22C9.66,6.59,9.61,6.43,9.61,6.26
						c0-0.04,0.01-0.08,0.01-0.12c0.17-0.03,0.34-0.04,0.49,0.05C10.3,6.28,10.41,6.43,10.41,6.66L10.41,6.66 M10.66,7.26
						c-0.05,0.24-0.14,0.46-0.28,0.66c-0.09,0.13-0.2,0.25-0.33,0.34C9.89,8.37,9.71,8.39,9.53,8.31C9.47,8.28,9.42,8.24,9.4,8.17
						C9.38,8.1,9.35,8.04,9.32,7.97c0.02-0.01,0.04-0.02,0.05-0.03l0.02-0.01c0.26-0.1,0.45-0.28,0.56-0.55
						c0.04-0.09,0.07-0.18,0.11-0.27c0.27-0.02,0.41-0.17,0.46-0.49c0.05,0.04,0.1,0.08,0.15,0.12c0.02,0.01,0.02,0.05,0.02,0.07
						c0,0.03,0,0.06,0,0.09C10.7,7.02,10.69,7.14,10.66,7.26 M9.09,6.43c0.15-0.15,0.3-0.26,0.43-0.27
						c0.01,0.12,0.01,0.23,0.03,0.35c0.02,0.11,0.07,0.21,0.11,0.33C9.47,6.7,9.28,6.57,9.09,6.43 M9.56,5.94
						c-0.13,0.01-0.26,0-0.38-0.06C9.07,5.83,9.01,5.72,8.96,5.61C8.89,5.43,8.89,5.24,8.92,5.05c0.03-0.21,0.06-0.41,0.09-0.62
						C9.04,4.21,9.07,4,9.06,3.78c0-0.06-0.01-0.11-0.01-0.18C9.1,3.64,9.14,3.67,9.18,3.7c0.14,0.1,0.3,0.15,0.47,0.18
						C9.87,3.92,10.08,3.96,10.3,4c0.15,0.03,0.29,0.09,0.42,0.18c0.09,0.07,0.16,0.15,0.2,0.26c0.04,0.09,0.05,0.19,0.02,0.29
						c-0.02,0.07-0.04,0.15-0.06,0.23c-0.27-0.05-0.53-0.04-0.79,0c-0.01-0.06-0.02-0.12-0.03-0.17c0-0.02,0-0.03,0.01-0.05
						c0.03-0.06,0.03-0.12,0.03-0.18c0-0.08-0.01-0.16-0.01-0.24c-0.01-0.08,0-0.15,0.04-0.23c-0.08,0.02-0.1,0.06-0.11,0.12
						c-0.01,0.05-0.01,0.11-0.01,0.16c0,0.06,0.01,0.12,0,0.18c0,0.04,0,0.09-0.04,0.1c-0.03,0.01-0.1-0.04-0.12-0.08
						C9.84,4.54,9.83,4.5,9.81,4.48C9.79,4.45,9.76,4.41,9.72,4.4C9.63,4.38,9.56,4.32,9.5,4.25C9.49,4.24,9.48,4.23,9.46,4.21
						c0.02,0.05,0.02,0.07,0.03,0.1c0.02,0.07,0.04,0.13,0.03,0.21s0.03,0.15,0.09,0.2c0.04,0.04,0.05,0.15,0.01,0.19
						C9.61,4.92,9.57,4.93,9.56,4.92C9.52,4.9,9.48,4.87,9.44,4.85C9.38,4.81,9.33,4.78,9.26,4.77c-0.05-0.01-0.1,0.01-0.15,0.06
						c0.02,0,0.03,0.01,0.05,0C9.24,4.82,9.3,4.86,9.37,4.9c0.05,0.04,0.11,0.09,0.17,0.12C9.6,5.06,9.67,5.08,9.72,5.01
						c0.05,0.03,0.1,0.07,0.16,0.1C9.77,5.39,9.61,5.64,9.56,5.94 M9.29,7.81C9.25,7.59,9.23,7.38,9.22,7.14
						c-0.07,0.1-0.11,0.19-0.16,0.29C9.02,7.52,8.98,7.62,8.94,7.72C8.77,7.62,8.67,7.42,8.7,7.2c0.03-0.27,0.15-0.5,0.31-0.71
						c0.11,0.03,0.77,0.49,0.84,0.59C9.8,7.1,9.75,7.12,9.71,7.13C9.66,7.15,9.6,7.16,9.55,7.19C9.42,7.26,9.4,7.42,9.51,7.52
						c0.05,0.05,0.1,0.09,0.15,0.14C9.54,7.75,9.43,7.8,9.29,7.81 M7.76,6.68C7.79,6.65,7.81,6.62,7.84,6.6
						c0.08-0.06,0.15-0.12,0.23-0.16c0.2-0.12,0.41-0.15,0.65-0.08C8.7,6.4,8.69,6.43,8.67,6.46C8.61,6.59,8.54,6.72,8.48,6.85
						C8.41,7,8.38,7.16,8.4,7.33C8.44,7.6,8.55,7.82,8.78,7.94c0.08,0.04,0.13,0.08,0.14,0.18c0.01,0.09,0.07,0.14,0.15,0.15
						c0.05,0.01,0.09,0.01,0.14,0.01c0.05-0.01,0.08,0.01,0.11,0.05c0.08,0.11,0.19,0.18,0.32,0.2c0.18,0.04,0.35-0.01,0.5-0.12
						c0.4-0.3,0.59-0.74,0.65-1.25C10.8,7.08,10.8,6.99,10.8,6.9c0-0.04,0-0.08,0-0.13c0.04,0,0.08,0.01,0.12,0.01
						c0,0.05,0,0.09,0,0.12c0,0.1,0.02,0.2,0.07,0.29c0.07,0.13,0.21,0.17,0.33,0.08s0.14-0.24,0.05-0.36
						c-0.06-0.09-0.15-0.14-0.24-0.19c-0.03-0.01-0.05-0.02-0.08-0.04c0.01-0.05,0.03-0.08,0.04-0.13c0.02,0.01,0.03,0.01,0.04,0.02
						c0.28,0.17,0.59,0.22,0.91,0.19c0.27-0.02,0.51-0.11,0.73-0.28c0.25-0.2,0.34-0.6,0.18-0.87l-0.01-0.03
						c0.02-0.05,0.04-0.09,0.05-0.13c0.05-0.16,0.03-0.23-0.1-0.32c-0.04-0.03-0.05-0.05-0.05-0.1c0.01-0.11,0-0.21-0.05-0.31
						c-0.13-0.29-0.34-0.47-0.64-0.51c-0.18-0.03-0.36,0-0.54,0.05c-0.03,0.01-0.05,0.02-0.09,0.02c0-0.03,0-0.05,0.01-0.07
						c0.05-0.25,0.17-0.44,0.36-0.59c0.07-0.06,0.15-0.11,0.22-0.16c0.02-0.01,0.03-0.03,0.04-0.04C12,3.39,11.85,3.38,11.7,3.38
						c-0.09,0-0.18,0-0.27,0.02c-0.12,0.02-0.18,0.16-0.13,0.28c0.02,0.05,0.07,0.1,0.1,0.14c0.03,0.03,0.06,0.05,0.09,0.07
						c-0.03,0.15-0.05,0.29-0.08,0.43c-0.05,0.03-0.11,0.06-0.17,0.09c-0.01-0.06-0.02-0.12-0.04-0.17
						c-0.06-0.18-0.17-0.3-0.32-0.39c-0.11-0.06-0.23-0.1-0.36-0.12c-0.25-0.03-0.49-0.05-0.74-0.07C9.6,3.64,9.42,3.62,9.25,3.57
						C9.2,3.55,9.14,3.54,9.09,3.5c0.03-0.07,0.03-0.14,0-0.21C9.05,3.22,8.98,3.2,8.91,3.19c0.02-0.1-0.03-0.16-0.09-0.22
						C8.71,2.88,8.62,2.79,8.51,2.7C8.5,2.69,8.48,2.68,8.46,2.67C8.49,2.8,8.52,2.91,8.55,3.03s0.07,0.25,0.2,0.29
						C8.72,3.4,8.72,3.47,8.76,3.53C8.8,3.6,8.87,3.61,8.94,3.61c0,0.21-0.04,0.4-0.09,0.59C8.78,4.48,8.69,4.75,8.62,5.03
						c-0.03,0.13-0.05,0.26-0.06,0.4C8.55,5.65,8.61,5.85,8.77,6c0.04,0.04,0.09,0.07,0.14,0.11c-0.04,0.03-0.07,0.06-0.1,0.1
						C8.78,6.24,8.75,6.24,8.72,6.23c-0.1-0.03-0.2-0.06-0.31-0.05L8.38,6.17C8.37,6.13,8.37,6.09,8.35,6.05
						C8.33,6,8.32,5.96,8.29,5.92C8.22,5.81,8.05,5.78,7.97,5.94C7.96,5.96,7.94,5.99,7.93,6.02C7.87,6.18,7.82,6.34,7.76,6.5
						C7.74,6.55,7.73,6.59,7.72,6.64L7.76,6.68z"/>
				</defs>
				<clipPath id="SVGID_32_">
					<use xlink:href="#SVGID_31_"  style="overflow:visible;"/>
				</clipPath>
				
					<linearGradient id="SVGID_33_" gradientUnits="userSpaceOnUse" x1="-1089.9414" y1="276.5051" x2="-1089.804" y2="276.5051" gradientTransform="matrix(91.2905 0 0 -91.2905 99505.3906 25247.918)">
					<stop  offset="0" style="stop-color:#B05105"/>
					<stop  offset="0.1495" style="stop-color:#B05105"/>
					<stop  offset="0.4059" style="stop-color:#C37015"/>
					<stop  offset="0.7131" style="stop-color:#DEA030"/>
					<stop  offset="0.7976" style="stop-color:#E6B446"/>
					<stop  offset="0.9754" style="stop-color:#FAE786"/>
					<stop  offset="1" style="stop-color:#FDEE91"/>
				</linearGradient>
				<rect x="7.73" y="2.7" class="st10" width="5.38" height="5.86"/>
			</g>
		</g>
	</g>
	<g>
		<g>
			<g>
				<defs>
					<path id="SVGID_34_" d="M6.13,13.52c-0.07,0.33-0.24,0.6-0.47,0.82c-0.16,0.15-0.34,0.26-0.54,0.33
						c-0.02,0.01-0.04,0.01-0.04,0.01c-0.06-0.04-0.12-0.08-0.17-0.11c0.06-0.05,0.12-0.1,0.18-0.16c0.05-0.06,0.08-0.14,0.09-0.23
						c0.01-0.09,0-0.17-0.01-0.27c0.15-0.11,0.27-0.26,0.35-0.45s0.09-0.39,0.08-0.61c0.09,0,0.19-0.02,0.28,0.01
						c0.05,0.01,0.09,0.05,0.12,0.09c0.09,0.12,0.15,0.26,0.15,0.41C6.15,13.43,6.14,13.47,6.13,13.52 M4.83,16.25
						c-0.03-0.09-0.06-0.18-0.09-0.28c0.18-0.21,0.19-0.43,0.02-0.7c0.06-0.01,0.12-0.02,0.18-0.03c0.02,0,0.04,0.02,0.06,0.04
						c0.1,0.11,0.2,0.23,0.27,0.36c0.11,0.21,0.19,0.44,0.22,0.69c0.02,0.16,0.01,0.33-0.02,0.49c-0.05,0.21-0.17,0.35-0.35,0.43
						C5.06,17.28,5,17.27,4.94,17.24s-0.12-0.06-0.18-0.09c0.01-0.02,0.01-0.04,0.02-0.06l0.01-0.02c0.07-0.16,0.11-0.31,0.11-0.47
						C4.89,16.48,4.87,16.36,4.83,16.25 M5.43,18.69c0,0.23-0.05,0.44-0.14,0.65c-0.15,0.32-0.36,0.58-0.64,0.77
						c-0.02,0.01-0.04,0.03-0.06,0.03c-0.07-0.03-0.14-0.05-0.21-0.08c0.24-0.2,0.25-0.44,0.13-0.72c0.3-0.35,0.37-0.75,0.23-1.21
						c0.1-0.03,0.19-0.05,0.28-0.06c0.07,0,0.13,0.03,0.17,0.08c0.15,0.14,0.23,0.31,0.23,0.52C5.43,18.67,5.43,18.68,5.43,18.69
						 M4.58,21.15c-0.02-0.14-0.09-0.25-0.2-0.34c0.07-0.03,0.14-0.05,0.21-0.08c0.02,0.01,0.04,0.02,0.06,0.03
						c0.39,0.27,0.65,0.64,0.75,1.13c0.04,0.16,0.05,0.32,0.01,0.49c-0.04,0.15-0.11,0.26-0.22,0.35c-0.06,0.05-0.14,0.08-0.22,0.05
						c-0.07-0.02-0.13-0.03-0.21-0.05c0.04-0.22,0.09-0.43,0.03-0.64c-0.06-0.2-0.16-0.38-0.28-0.56c0.06-0.09,0.09-0.18,0.09-0.29
						C4.59,21.22,4.58,21.19,4.58,21.15 M4.23,13.1v-0.02c0.12-0.24,0.27-0.44,0.49-0.57c0.21-0.13,0.42-0.05,0.54,0.05
						c0.01,0,0.01,0.01,0.02,0.03c-0.13,0.13-0.26,0.26-0.36,0.44c0.18-0.06,0.35-0.13,0.52-0.16c0.05,0.1,0.06,0.29,0.02,0.44
						c-0.05-0.03-0.09-0.06-0.13-0.08c-0.02-0.01-0.05-0.03-0.07-0.04c-0.12-0.04-0.22,0.04-0.23,0.18c0,0.06,0.01,0.11,0.01,0.17
						s0,0.12,0,0.18C4.96,13.69,4.32,13.19,4.23,13.1 M5.01,14.36c-0.11,0.1-0.23,0.14-0.37,0.11c-0.21-0.04-0.33-0.19-0.42-0.39
						c-0.03-0.09-0.06-0.18-0.09-0.28c0.18-0.05,0.34-0.11,0.52-0.1c0.09,0.01,0.17,0.03,0.24,0.11c0.03,0.03,0.05,0.05,0.09,0.08
						c-0.06,0.12-0.18,0.18-0.28,0.28c0.13-0.04,0.24-0.11,0.34-0.17c0.04,0.05,0.05,0.1,0.05,0.16C5.1,14.24,5.07,14.31,5.01,14.36
						 M4.45,13.63c-0.1,0.01-0.2,0.05-0.31,0.08c-0.03-0.18,0.02-0.34,0.07-0.52c0.19,0.14,0.37,0.28,0.56,0.43
						C4.65,13.62,4.55,13.62,4.45,13.63 M4.26,15.96c-0.14-0.07-0.28-0.15-0.39-0.28c-0.02-0.03-0.05-0.06-0.07-0.1
						c0.11-0.15,0.22-0.28,0.39-0.34c0.19-0.06,0.37-0.03,0.51,0.13c0.07,0.08,0.1,0.19,0.09,0.3c-0.01,0.07-0.04,0.14-0.1,0.17
						c-0.07-0.07-0.13-0.15-0.2-0.22l-0.01,0.01c0.05,0.09,0.1,0.17,0.11,0.29C4.48,15.97,4.38,16.02,4.26,15.96 M3.6,16.21
						c0.01-0.22,0.05-0.41,0.14-0.52c0.08,0.08,0.16,0.16,0.24,0.23c0.09,0.06,0.18,0.1,0.29,0.16C4.04,16.13,3.82,16.17,3.6,16.21
						 M3.81,17.07c-0.15-0.22-0.21-0.48-0.23-0.74c0.1-0.06,0.87-0.22,0.99-0.2c-0.02,0.05-0.05,0.1-0.07,0.15s-0.06,0.1-0.07,0.16
						c-0.05,0.15,0.04,0.27,0.18,0.27c0.06,0,0.13-0.01,0.2-0.02c-0.03,0.15-0.09,0.27-0.18,0.38c-0.17-0.13-0.32-0.27-0.48-0.43
						c0.01,0.12,0.04,0.23,0.07,0.33c0.03,0.1,0.06,0.2,0.1,0.3C4.13,17.32,3.92,17.24,3.81,17.07 M4.01,21.65
						c-0.16-0.04-0.32-0.09-0.46-0.2c-0.03-0.02-0.05-0.05-0.08-0.07c0.11-0.24,0.24-0.45,0.49-0.51c0.17-0.04,0.33-0.01,0.45,0.14
						c0.06,0.07,0.1,0.16,0.09,0.26c0,0.07-0.02,0.12-0.07,0.17c-0.08-0.06-0.14-0.13-0.24-0.16c0.05,0.09,0.1,0.16,0.16,0.26
						C4.23,21.6,4.14,21.68,4.01,21.65 M4.47,19.79c-0.09,0.16-0.23,0.23-0.4,0.23c-0.13,0-0.24-0.05-0.34-0.14
						c-0.13-0.11-0.2-0.26-0.28-0.43c0.16-0.09,0.31-0.19,0.49-0.22c0.1-0.02,0.2-0.02,0.29,0.05c0.03,0.02,0.07,0.04,0.11,0.07
						c-0.04,0.14-0.15,0.23-0.21,0.35c0.11-0.07,0.21-0.16,0.3-0.24c0.06,0.06,0.09,0.13,0.09,0.2C4.51,19.69,4.5,19.74,4.47,19.79
						 M3.71,15.44c-0.06-0.1-0.1-0.19-0.13-0.28c-0.04-0.15-0.08-0.3-0.12-0.45c-0.01-0.03-0.02-0.07-0.03-0.1
						c-0.02-0.04-0.01-0.08,0.02-0.11c0.08-0.1,0.16-0.21,0.25-0.3c0.07-0.08,0.14-0.14,0.22-0.21c0.02-0.02,0.05-0.04,0.08-0.05
						c0.06,0.13,0.11,0.25,0.17,0.36c0.07,0.12,0.17,0.2,0.3,0.26c-0.18,0.05-0.34,0.09-0.51,0.17c0.12,0.14,0.25,0.25,0.39,0.38
						C4.07,15.1,3.88,15.24,3.71,15.44 M3.38,18.7c0-0.02,0-0.03,0.01-0.05c0.06-0.2,0.14-0.38,0.27-0.54
						C3.7,18.06,3.75,18,3.8,17.96c0.17-0.14,0.35-0.14,0.55-0.06c0.01,0,0.01,0.01,0.03,0.02c-0.11,0.16-0.21,0.33-0.28,0.53
						c0.17-0.1,0.34-0.2,0.51-0.29c0.08,0.14,0.12,0.31,0.11,0.46c-0.05-0.02-0.1-0.04-0.16-0.05c-0.03-0.01-0.06-0.02-0.09-0.02
						c-0.14,0-0.22,0.11-0.19,0.25c0.02,0.09,0.04,0.17,0.06,0.25c0.01,0.03,0.01,0.06,0.02,0.09C4.27,19.14,3.52,18.79,3.38,18.7
						 M4.24,23.01c-0.17,0.04-0.33,0.02-0.46-0.11c-0.08-0.07-0.14-0.16-0.2-0.25c-0.09-0.14-0.15-0.3-0.2-0.48
						c0.31-0.17,0.63-0.31,0.96-0.44l0.02,0.01c-0.01,0.04-0.02,0.09-0.03,0.13C4.31,21.93,4.29,22,4.28,22.06
						c-0.03,0.19,0.09,0.31,0.26,0.25c0.06-0.02,0.12-0.04,0.17-0.06c0.02,0.13-0.03,0.32-0.1,0.43c-0.19-0.09-0.38-0.2-0.57-0.31
						c0.07,0.22,0.18,0.4,0.3,0.6C4.3,22.99,4.27,23,4.24,23.01 M3.72,19.2c-0.1,0.04-0.2,0.1-0.3,0.16
						C3.34,19.18,3.37,19,3.38,18.81c0.22,0.1,0.44,0.2,0.67,0.3C3.93,19.14,3.82,19.16,3.72,19.2 M3.38,22.06
						c-0.03-0.2-0.04-0.4,0.04-0.57c0.19,0.14,0.38,0.26,0.61,0.27C3.83,21.87,3.6,21.96,3.38,22.06 M3.68,20.84
						c-0.07,0.05-0.13,0.11-0.19,0.17s-0.1,0.14-0.16,0.22c-0.02-0.03-0.05-0.05-0.07-0.07c-0.07-0.11-0.13-0.21-0.19-0.32
						c-0.07-0.13-0.13-0.27-0.2-0.41c-0.02-0.03-0.02-0.06-0.01-0.09c0.02-0.05,0.04-0.11,0.07-0.15c0.1-0.17,0.2-0.33,0.3-0.49
						c0.02-0.03,0.05-0.06,0.08-0.1c0.14,0.27,0.31,0.48,0.6,0.54c-0.17,0.1-0.33,0.19-0.49,0.29c0.16,0.12,0.32,0.21,0.48,0.29
						C3.83,20.76,3.75,20.79,3.68,20.84 M3.39,17.88C3.3,18,3.23,18.13,3.18,18.28c-0.03,0.07-0.05,0.14-0.07,0.21l-0.02-0.01
						c-0.01-0.01-0.03-0.02-0.04-0.04c-0.13-0.15-0.22-0.32-0.24-0.53c-0.02-0.16-0.01-0.31-0.02-0.47c0-0.02,0-0.03-0.01-0.05h0.01
						c0-0.04,0-0.08,0.01-0.12c0.02-0.1,0.04-0.2,0.06-0.29c0.07-0.24,0.21-0.42,0.42-0.55c0.01,0.04,0.02,0.07,0.03,0.1
						c0.04,0.14,0.07,0.28,0.11,0.42c0.05,0.16,0.13,0.3,0.25,0.4c0.1,0.09,0.21,0.15,0.32,0.18C3.76,17.56,3.56,17.67,3.39,17.88
						 M3.31,15.75c-0.11,0.04-0.23,0.02-0.33-0.04c-0.16-0.08-0.29-0.22-0.39-0.37c-0.11-0.17-0.22-0.35-0.33-0.52
						c-0.11-0.18-0.23-0.36-0.37-0.51c-0.04-0.04-0.08-0.08-0.12-0.12c0.06-0.01,0.11-0.02,0.15-0.03c0.17-0.04,0.31-0.12,0.45-0.22
						c0.18-0.13,0.36-0.27,0.55-0.4c0.13-0.09,0.27-0.16,0.42-0.18c0.11-0.02,0.21-0.01,0.31,0.03c0.09,0.04,0.16,0.1,0.2,0.2
						c0.03,0.07,0.06,0.14,0.1,0.21c-0.22,0.16-0.41,0.36-0.57,0.59c-0.05-0.04-0.09-0.07-0.13-0.1c-0.01-0.01-0.02-0.02-0.03-0.04
						c-0.02-0.06-0.05-0.11-0.09-0.16c-0.05-0.05-0.11-0.11-0.16-0.16s-0.09-0.11-0.12-0.2c-0.04,0.07-0.03,0.12,0,0.17
						c0.03,0.04,0.06,0.08,0.1,0.12c0.04,0.04,0.08,0.08,0.12,0.13c0.02,0.03,0.06,0.06,0.03,0.11c-0.02,0.03-0.1,0.05-0.14,0.03
						c-0.03-0.01-0.06-0.04-0.09-0.04c-0.04-0.01-0.08-0.01-0.11,0.01c-0.08,0.05-0.16,0.06-0.25,0.06c-0.01,0-0.02,0-0.06,0
						c0.04,0.02,0.06,0.03,0.08,0.05c0.06,0.03,0.12,0.06,0.15,0.13c0.04,0.07,0.12,0.08,0.19,0.08c0.05,0,0.13,0.08,0.13,0.13
						c0,0.02-0.02,0.05-0.04,0.05c-0.04,0.02-0.09,0.02-0.13,0.03c-0.07,0.01-0.13,0.03-0.18,0.08c-0.04,0.04-0.07,0.08-0.07,0.15
						C2.6,15.01,2.61,15,2.62,14.99c0.05-0.06,0.12-0.09,0.2-0.1c0.07-0.01,0.14-0.02,0.2-0.04c0.07-0.02,0.13-0.05,0.13-0.14
						c0.06-0.02,0.12-0.03,0.18-0.04c0.1,0.27,0.14,0.57,0.3,0.83C3.53,15.61,3.43,15.7,3.31,15.75 M3.12,21.54
						C3,21.7,2.83,21.74,2.65,21.7c-0.11-0.02-0.22-0.07-0.31-0.14s-0.18-0.16-0.27-0.24c-0.19-0.18-0.37-0.37-0.55-0.56
						c-0.13-0.13-0.27-0.25-0.44-0.33l0.01-0.02c0.22-0.07,0.39-0.21,0.55-0.38c0.17-0.18,0.33-0.37,0.49-0.56
						c0.14-0.16,0.31-0.28,0.51-0.32c0.19-0.04,0.36,0,0.49,0.18c0.04,0.05,0.08,0.1,0.12,0.16c-0.2,0.22-0.35,0.48-0.47,0.74
						c-0.06-0.03-0.11-0.05-0.16-0.07l-0.03-0.03c-0.03-0.07-0.09-0.11-0.14-0.15c-0.07-0.05-0.15-0.09-0.22-0.14
						c-0.05-0.04-0.1-0.08-0.12-0.15c-0.03,0.06-0.04,0.1,0.01,0.15c0.03,0.04,0.07,0.07,0.12,0.1c0.06,0.04,0.12,0.08,0.18,0.12
						c0.03,0.02,0.07,0.05,0.06,0.1c-0.01,0.04-0.09,0.08-0.14,0.07c-0.02,0-0.03-0.01-0.05-0.02c-0.06-0.02-0.13-0.01-0.17,0.04
						c-0.07,0.07-0.15,0.09-0.23,0.12c-0.01,0-0.03,0.01-0.04,0.02c0.03,0.01,0.05,0.02,0.08,0.02C2,20.43,2.06,20.45,2.11,20.5
						c0.06,0.06,0.14,0.06,0.21,0.04c0.02-0.01,0.05-0.02,0.07,0c0.03,0.03,0.07,0.06,0.09,0.1c0.01,0.01-0.01,0.05-0.02,0.06
						c-0.03,0.02-0.06,0.04-0.1,0.05c-0.05,0.03-0.11,0.05-0.16,0.09c-0.07,0.05-0.11,0.12-0.09,0.23c0.02-0.02,0.02-0.03,0.03-0.04
						c0.05-0.08,0.11-0.13,0.19-0.16c0.07-0.02,0.13-0.05,0.19-0.09c0.07-0.04,0.12-0.09,0.1-0.18c0.06-0.03,0.12-0.06,0.18-0.09
						c0.16,0.26,0.27,0.56,0.48,0.79C3.22,21.41,3.17,21.48,3.12,21.54 M0.05,20.45c0.12,0.05,0.24,0.09,0.36,0.13
						c0.1,0.03,0.2,0.05,0.29-0.04c0.12,0.17,0.28,0.13,0.36-0.02c0.05,0.04,0.09,0.07,0.13,0.11c0.15,0.13,0.27,0.29,0.39,0.45
						c0.15,0.2,0.3,0.41,0.46,0.61c0.07,0.09,0.15,0.17,0.23,0.24c0.24,0.2,0.49,0.25,0.78,0.1c0,0.02,0.01,0.05,0.01,0.07
						c0.02,0.1,0,0.17-0.08,0.24c-0.08,0.06-0.13,0.15-0.2,0.23c-0.07-0.02-0.13-0.05-0.2-0.06c-0.09-0.02-0.16,0.02-0.21,0.1
						c-0.05,0.07-0.05,0.15-0.01,0.22c0.02,0.04,0.04,0.08,0.06,0.12c0.11,0.16,0.22,0.33,0.33,0.49c0.01,0.01,0.02,0.02,0.04,0.04
						c0-0.04,0-0.06,0-0.08c0-0.04,0-0.07,0-0.11c0-0.07,0-0.13,0-0.2c0.01-0.26,0.1-0.49,0.27-0.67c0.02-0.02,0.03-0.03,0.05-0.05
						c0.02,0.03,0.03,0.06,0.04,0.09c0.08,0.15,0.15,0.31,0.23,0.45c0.1,0.18,0.24,0.3,0.42,0.37c0.22,0.08,0.44,0.08,0.64-0.07
						c0.06-0.04,0.1-0.05,0.17-0.02c0.12,0.05,0.2,0.03,0.28-0.09c0.02-0.03,0.04-0.06,0.05-0.09c0.02-0.05,0.05-0.06,0.09-0.07
						c0.28-0.04,0.49-0.25,0.55-0.55c0.03-0.17,0.02-0.33-0.01-0.5c-0.11-0.54-0.39-0.94-0.83-1.22c-0.02-0.02-0.05-0.03-0.08-0.05
						c0.03-0.04,0.06-0.07,0.09-0.11c0.03,0.02,0.05,0.04,0.08,0.06c0.07,0.05,0.15,0.1,0.24,0.12c0.07,0.02,0.14,0.02,0.21-0.03
						c0.09-0.07,0.13-0.2,0.09-0.32c-0.04-0.11-0.13-0.17-0.25-0.16c-0.11,0.01-0.2,0.06-0.29,0.12c-0.02,0.02-0.05,0.04-0.08,0.06
						c-0.03-0.04-0.05-0.07-0.09-0.11c0.02-0.01,0.03-0.02,0.04-0.03c0.34-0.2,0.58-0.49,0.74-0.86c0.11-0.25,0.16-0.51,0.14-0.79
						c-0.02-0.32-0.28-0.62-0.56-0.63c-0.04,0-0.06-0.02-0.08-0.06c-0.03-0.06-0.07-0.11-0.11-0.16c-0.06-0.06-0.13-0.08-0.21-0.03
						c-0.03,0.02-0.06,0.03-0.1,0.05c-0.09-0.09-0.2-0.16-0.32-0.18c0.04-0.01,0.08-0.02,0.12-0.03c0.08-0.03,0.14-0.04,0.21,0.02
						c0.06,0.06,0.14,0.05,0.21,0c0.04-0.03,0.08-0.06,0.11-0.1s0.06-0.06,0.11-0.05c0.13,0.02,0.25-0.02,0.36-0.09
						c0.16-0.11,0.25-0.27,0.29-0.46c0.1-0.52-0.04-0.98-0.32-1.39c-0.07-0.1-0.16-0.18-0.24-0.28c0.03-0.02,0.06-0.05,0.09-0.08
						c0.03,0.03,0.05,0.06,0.08,0.09c0.07,0.07,0.14,0.13,0.23,0.16c0.14,0.04,0.26-0.03,0.29-0.18c0.03-0.15-0.05-0.27-0.2-0.3
						c-0.1-0.02-0.2,0.01-0.29,0.05c-0.03,0.01-0.05,0.02-0.09,0.03c-0.02-0.04-0.03-0.08-0.05-0.12c0.02-0.01,0.03-0.01,0.04-0.02
						c0.31-0.09,0.56-0.28,0.78-0.54c0.18-0.21,0.3-0.46,0.35-0.75c0.06-0.33-0.13-0.69-0.42-0.77l-0.02-0.01
						c-0.02-0.05-0.03-0.09-0.04-0.13c-0.06-0.16-0.12-0.19-0.28-0.15c-0.05,0.01-0.07,0-0.1-0.04c-0.06-0.09-0.14-0.15-0.23-0.19
						c-0.28-0.11-0.55-0.08-0.79,0.11c-0.15,0.12-0.26,0.27-0.36,0.44c-0.02,0.03-0.03,0.05-0.05,0.08
						c-0.02-0.02-0.03-0.04-0.04-0.06c-0.13-0.21-0.16-0.45-0.11-0.69c0.02-0.1,0.04-0.19,0.06-0.29c0-0.02,0-0.04,0.01-0.06
						c-0.13,0.09-0.24,0.2-0.35,0.3c-0.07,0.07-0.13,0.14-0.18,0.22c-0.07,0.11-0.03,0.25,0.09,0.3c0.05,0.02,0.11,0.02,0.16,0.02
						c0.04,0,0.08-0.01,0.11-0.02c0.07,0.13,0.15,0.25,0.22,0.37c-0.02,0.06-0.04,0.13-0.06,0.19c-0.05-0.04-0.09-0.07-0.13-0.09
						c-0.15-0.08-0.31-0.09-0.48-0.04c-0.12,0.04-0.23,0.1-0.33,0.18c-0.2,0.16-0.39,0.33-0.59,0.5c-0.14,0.12-0.28,0.24-0.44,0.33
						c-0.05,0.03-0.1,0.06-0.16,0.07c-0.02-0.08-0.06-0.13-0.13-0.15C1.57,13.92,1.51,13.96,1.45,14c-0.05-0.08-0.12-0.1-0.2-0.09
						c-0.13,0.02-0.26,0.02-0.4,0.03c-0.02,0-0.03,0.01-0.06,0.01c0.1,0.07,0.2,0.13,0.29,0.19c0.1,0.07,0.21,0.13,0.33,0.06
						c0.03,0.08,0.07,0.13,0.14,0.14c0.07,0.02,0.13-0.02,0.18-0.08c0.13,0.15,0.23,0.32,0.31,0.49c0.12,0.26,0.23,0.52,0.36,0.78
						c0.06,0.12,0.13,0.23,0.21,0.33c0.13,0.17,0.31,0.26,0.52,0.26c0.05,0,0.11-0.02,0.16-0.02c-0.01,0.05-0.01,0.1-0.01,0.15
						c0,0.04-0.02,0.07-0.05,0.09c-0.09,0.05-0.18,0.11-0.26,0.2l-0.03,0.02c-0.03-0.02-0.06-0.05-0.09-0.07
						c-0.04-0.02-0.08-0.04-0.13-0.05C2.6,16.42,2.45,16.52,2.5,16.7c0.01,0.03,0.01,0.06,0.02,0.08c0.06,0.16,0.12,0.32,0.18,0.48
						c0.02,0.04,0.04,0.09,0.06,0.13c-0.15,0.19-0.29,0.38-0.39,0.59C2.36,18,2.35,18.02,2.35,18.04c-0.05,0.14,0.02,0.27,0.15,0.3
						c0.06,0.01,0.12,0,0.17-0.02c0.04-0.01,0.08-0.03,0.12-0.05c0.06,0.13,0.15,0.22,0.25,0.31c0.01,0.01,0.03,0.03,0.03,0.04
						c0,0.07-0.01,0.13-0.02,0.2c-0.06-0.02-0.11-0.05-0.17-0.06c-0.18-0.05-0.34-0.02-0.5,0.08c-0.13,0.08-0.24,0.19-0.34,0.31
						c-0.16,0.21-0.31,0.42-0.47,0.63c-0.12,0.16-0.25,0.32-0.4,0.45c-0.04,0.04-0.08,0.07-0.13,0.1C1,20.24,0.95,20.21,0.87,20.2
						c-0.08,0-0.14,0.05-0.18,0.12c-0.07-0.08-0.15-0.08-0.23-0.04c-0.08,0.03-0.16,0.05-0.25,0.08C0.14,20.38,0.08,20.4,0,20.43
						C0.03,20.44,0.04,20.45,0.05,20.45"/>
				</defs>
				<clipPath id="SVGID_35_">
					<use xlink:href="#SVGID_34_"  style="overflow:visible;"/>
				</clipPath>
				
					<linearGradient id="SVGID_36_" gradientUnits="userSpaceOnUse" x1="-1089.9414" y1="277.3304" x2="-1089.804" y2="277.3304" gradientTransform="matrix(91.2905 0 0 -91.2905 99505.3906 25335.25)">
					<stop  offset="0" style="stop-color:#B05105"/>
					<stop  offset="0.1495" style="stop-color:#B05105"/>
					<stop  offset="0.4059" style="stop-color:#C37015"/>
					<stop  offset="0.7131" style="stop-color:#DEA030"/>
					<stop  offset="0.7976" style="stop-color:#E6B446"/>
					<stop  offset="0.9754" style="stop-color:#FAE786"/>
					<stop  offset="1" style="stop-color:#FDEE91"/>
				</linearGradient>
				<rect x="0.01" y="11.75" class="st11" width="6.35" height="11.75"/>
			</g>
		</g>
	</g>
	<g>
		<g>
			<g>
				<defs>
					<path id="SVGID_37_" d="M11.79,9.29c0.02-0.14,0.03-0.27,0.05-0.4c0.1,0.02,0.19,0.03,0.29,0.05v0.39
						C12.01,9.32,11.91,9.31,11.79,9.29 M11.19,10.02c0.07-0.03,0.13-0.07,0.2-0.09c0.08-0.04,0.16-0.03,0.24,0.04
						c0.02,0.02,0.04,0.04,0.08,0.06c0.04-0.06,0.08-0.12,0.11-0.18c0.06-0.12,0.02-0.25-0.01-0.38c0.1-0.01,0.19-0.02,0.29-0.02
						c-0.11,0.32-0.1,0.46,0.05,0.6c0.13-0.13,0.26-0.09,0.39,0c0.05,0.04,0.1,0.07,0.16,0.09c0.03,0.01,0.06,0.01,0.1,0.02
						c-0.04-0.13-0.06-0.25-0.1-0.35c-0.05-0.14-0.06-0.26,0.05-0.36c0.01,0,0.01-0.02,0.01-0.03c-0.14-0.2-0.31-0.2-0.5-0.12V9
						c0.06,0,0.11,0,0.15-0.01c0.08-0.01,0.17-0.01,0.25-0.02c0.07-0.01,0.12-0.1,0.08-0.16c-0.07-0.11-0.03-0.2,0.01-0.31
						c0.05-0.11,0.09-0.23,0.15-0.35c-0.12-0.01-0.2,0.05-0.28,0.09c-0.14,0.07-0.27,0.08-0.38-0.07c-0.16,0.15-0.19,0.34-0.12,0.56
						h-0.25c0.01-0.08,0.01-0.14,0.01-0.21c0-0.08,0-0.16-0.01-0.24c-0.02-0.12-0.08-0.15-0.16-0.08c-0.07,0.06-0.14,0.05-0.21,0.01
						c-0.08-0.04-0.16-0.08-0.24-0.12c-0.04-0.02-0.08-0.04-0.14-0.07c0.05,0.17,0.09,0.32,0.14,0.47c0.02,0.07,0.03,0.14-0.02,0.21
						c-0.05,0.08-0.04,0.14,0.02,0.2c0.08,0.07,0.17,0.1,0.27,0.07c0.05-0.02,0.1-0.03,0.16-0.05v0.36
						c-0.19-0.08-0.38-0.19-0.53,0.06c0.11,0.15,0.07,0.3-0.01,0.44c-0.02,0.03-0.04,0.07-0.05,0.11c-0.02,0.05-0.03,0.1-0.05,0.16
						C11.1,10.07,11.15,10.04,11.19,10.02"/>
				</defs>
				<clipPath id="SVGID_38_">
					<use xlink:href="#SVGID_37_"  style="overflow:visible;"/>
				</clipPath>
				
					<linearGradient id="SVGID_39_" gradientUnits="userSpaceOnUse" x1="-1089.9414" y1="276.7437" x2="-1089.804" y2="276.7437" gradientTransform="matrix(91.2905 0 0 -91.2905 99505.3906 25273.1641)">
					<stop  offset="0" style="stop-color:#B05105"/>
					<stop  offset="0.1495" style="stop-color:#B05105"/>
					<stop  offset="0.4059" style="stop-color:#C37015"/>
					<stop  offset="0.7131" style="stop-color:#DEA030"/>
					<stop  offset="0.7976" style="stop-color:#E6B446"/>
					<stop  offset="0.9754" style="stop-color:#FAE786"/>
					<stop  offset="1" style="stop-color:#FDEE91"/>
				</linearGradient>
				<rect x="11.04" y="8.02" class="st12" width="1.87" height="2.14"/>
			</g>
		</g>
	</g>
	<g>
		<g>
			<g>
				<defs>
					<path id="SVGID_40_" d="M12.2,36.94c0.1,0.13,0.2,0.27,0.3,0.4c0.02,0.02,0.04,0.04,0.06,0.06c0.12,0.12,0.28,0.03,0.31-0.09
						c0.01-0.05,0.02-0.1,0.02-0.14s-0.01-0.08-0.01-0.12l0.02-0.02c0.1-0.03,0.19-0.09,0.28-0.16c0.03-0.02,0.06-0.03,0.09-0.01
						c0.04,0.02,0.08,0.04,0.13,0.06c-0.04,0.05-0.07,0.1-0.1,0.15c-0.1,0.2-0.11,0.41-0.03,0.61c0.05,0.12,0.1,0.25,0.17,0.36
						c0.13,0.21,0.27,0.42,0.41,0.63v-0.39c-0.05-0.1-0.1-0.21-0.15-0.31c-0.08-0.17-0.13-0.35-0.12-0.55
						c0.01-0.13,0.04-0.24,0.13-0.33c0.04-0.05,0.09-0.08,0.15-0.11v-0.27c-0.11,0-0.25-0.05-0.38-0.12
						c0.13-0.18,0.25-0.35,0.38-0.53v-0.11c-0.16,0.24-0.42,0.58-0.49,0.62c-0.21-0.15-0.39-0.32-0.5-0.57
						c-0.08-0.2-0.05-0.42,0.08-0.57c0.07,0.08,0.13,0.16,0.2,0.24c0.07,0.08,0.14,0.15,0.23,0.22c-0.05-0.23-0.1-0.44-0.13-0.66
						c0.13-0.04,0.26-0.03,0.4,0.01c-0.04,0.07-0.07,0.12-0.1,0.18c-0.07,0.14-0.01,0.28,0.13,0.3c0.05,0.01,0.11,0,0.17,0h0.01
						v-0.47c-0.15-0.12-0.33-0.17-0.52-0.17h-0.02c-0.02,0-0.03-0.01-0.06-0.01c0-0.08,0.01-0.15,0.01-0.22s0.03-0.13,0.08-0.18
						c0.15-0.13,0.32-0.18,0.51-0.13l0,0v-0.19c-0.16-0.04-0.31-0.02-0.45,0.07c-0.12,0.07-0.2,0.17-0.25,0.3
						c-0.02,0.05-0.04,0.08-0.09,0.09s-0.09,0.03-0.13,0.06c-0.07,0.04-0.12,0.11-0.1,0.2c0.02,0.1-0.02,0.15-0.08,0.22
						c-0.19,0.2-0.23,0.45-0.18,0.71c0.03,0.16,0.1,0.31,0.21,0.43c0.09,0.1,0.2,0.2,0.29,0.3c0.02,0.02,0.04,0.04,0.07,0.08
						c-0.2,0.14-0.41,0.19-0.64,0.14c-0.09-0.02-0.18-0.05-0.27-0.08c-0.04-0.01-0.07-0.03-0.1-0.05l-0.01,0.03
						C12.15,36.86,12.17,36.9,12.2,36.94"/>
				</defs>
				<clipPath id="SVGID_41_">
					<use xlink:href="#SVGID_40_"  style="overflow:visible;"/>
				</clipPath>
				
					<linearGradient id="SVGID_42_" gradientUnits="userSpaceOnUse" x1="-1089.9414" y1="278.6273" x2="-1089.804" y2="278.6273" gradientTransform="matrix(91.2905 0 0 -91.2905 99505.3906 25472.4902)">
					<stop  offset="0" style="stop-color:#B05105"/>
					<stop  offset="0.1495" style="stop-color:#B05105"/>
					<stop  offset="0.4059" style="stop-color:#C37015"/>
					<stop  offset="0.7131" style="stop-color:#DEA030"/>
					<stop  offset="0.7976" style="stop-color:#E6B446"/>
					<stop  offset="0.9754" style="stop-color:#FAE786"/>
					<stop  offset="1" style="stop-color:#FDEE91"/>
				</linearGradient>
				<rect x="12.12" y="34.29" class="st13" width="1.74" height="4.36"/>
			</g>
		</g>
	</g>
	<g>
		<g>
			<g>
				<defs>
					<path id="SVGID_43_" d="M12.09,35.12c-0.03,0.17-0.13,0.38-0.36,0.45c-0.24,0.07-0.48,0.04-0.72-0.04L11,35.52
						c0.01-0.14,0.15-0.97,0.19-1.07c0.04,0.05,0.08,0.09,0.11,0.13c0.04,0.04,0.07,0.09,0.1,0.13c0.09,0.1,0.22,0.08,0.28-0.04
						c0.01-0.02,0.02-0.05,0.03-0.08c0.02-0.05,0.03-0.11,0.05-0.16c0.13,0.08,0.24,0.22,0.26,0.33c-0.14,0.11-0.31,0.19-0.48,0.28
						c0.19,0.05,0.36,0.06,0.54,0.05C12.09,35.11,12.09,35.12,12.09,35.12L12.09,35.12 M12.33,34.44c-0.05,0.08-0.12,0.14-0.19,0.21
						c-0.13-0.16-0.27-0.3-0.44-0.38c-0.18-0.08-0.36-0.1-0.54-0.06c-0.06-0.07-0.11-0.14-0.16-0.2c-0.06-0.06-0.13-0.09-0.21-0.1
						c-0.08,0-0.15,0.01-0.23,0.02c0.02-0.06,0.03-0.13,0.05-0.2c0,0,0.02-0.01,0.03-0.02c0.19-0.1,0.39-0.15,0.6-0.16
						c0.31-0.02,0.6,0.05,0.87,0.24c0.16,0.12,0.25,0.29,0.26,0.5c0,0.01,0,0.01,0,0.02C12.36,34.35,12.35,34.4,12.33,34.44
						 M10.92,35.46c-0.15-0.09-0.29-0.16-0.38-0.32c0.1-0.06,0.19-0.11,0.28-0.18c0.08-0.07,0.15-0.15,0.24-0.23
						C11.01,34.98,10.97,35.22,10.92,35.46 M11.03,34.5c0,0.1-0.04,0.18-0.1,0.25c-0.12,0.14-0.27,0.22-0.44,0.31
						c-0.04-0.09-0.09-0.18-0.11-0.27c-0.07-0.2-0.07-0.41,0.05-0.59c0.08-0.13,0.2-0.19,0.34-0.19C10.9,34,11,34.1,11.01,34.24
						c-0.11,0.03-0.23,0.06-0.35,0.13c0.14,0,0.26-0.05,0.38,0C11.04,34.42,11.03,34.46,11.03,34.5 M10.21,35.12
						c-0.1,0-0.2,0.01-0.29,0.01c-0.12-0.01-0.25-0.02-0.37-0.03c-0.04,0-0.07-0.02-0.08-0.07C9.46,35,9.44,34.97,9.43,34.94
						c-0.07-0.14-0.14-0.28-0.2-0.42c-0.04-0.09-0.07-0.18-0.09-0.3c0.25,0.02,0.48-0.03,0.68-0.23c-0.02,0.2-0.05,0.38-0.04,0.57
						c0.17-0.07,0.31-0.16,0.47-0.26c-0.05,0.15-0.08,0.28-0.05,0.41c0.02,0.13,0.07,0.26,0.11,0.39
						C10.27,35.1,10.24,35.12,10.21,35.12 M9.6,33.98c-0.16,0.09-0.32,0.08-0.49,0.05c0-0.04-0.01-0.08-0.01-0.12
						c0-0.17,0.05-0.33,0.11-0.49c0.05-0.13,0.15-0.17,0.25-0.22c0.06,0.09,0.08,0.19,0.1,0.29h0.02c0-0.1,0.01-0.2,0.01-0.31
						c0.07-0.02,0.13,0,0.18,0.05C9.85,33.3,9.9,33.4,9.9,33.51l0,0C9.89,33.73,9.78,33.88,9.6,33.98 M10.17,33.36
						c0,0.02,0,0.06-0.02,0.07c-0.05,0.04-0.1,0.08-0.15,0.12c-0.05-0.32-0.19-0.47-0.46-0.49c-0.04-0.09-0.07-0.18-0.11-0.27
						c-0.11-0.27-0.3-0.45-0.56-0.55l-0.02-0.01c-0.02-0.01-0.03-0.02-0.05-0.03c0.03-0.07,0.05-0.14,0.08-0.2
						c0.02-0.07,0.07-0.12,0.13-0.14c0.18-0.08,0.36-0.06,0.52,0.05c0.13,0.09,0.24,0.2,0.33,0.33c0.14,0.2,0.22,0.42,0.28,0.66
						c0.03,0.12,0.04,0.24,0.04,0.37C10.18,33.3,10.17,33.33,10.17,33.36 M9.03,33.65C9.01,33.76,9.01,33.88,9,34
						c-0.13-0.01-0.29-0.11-0.43-0.27c0.19-0.14,0.38-0.27,0.57-0.41C9.1,33.44,9.05,33.54,9.03,33.65 M8.48,35.73
						c-0.03-0.21-0.07-0.41-0.09-0.62c-0.03-0.19-0.02-0.38,0.04-0.56c0.04-0.12,0.11-0.22,0.22-0.27c0.12-0.06,0.25-0.06,0.38-0.06
						c0.05,0.3,0.22,0.55,0.31,0.82c-0.06,0.04-0.11,0.07-0.16,0.1C9.12,35.08,9.06,35.09,9,35.13s-0.12,0.08-0.17,0.12
						c-0.06,0.05-0.13,0.08-0.21,0.07c-0.01,0-0.03,0-0.05,0c0.05,0.05,0.09,0.06,0.15,0.05c0.07-0.01,0.13-0.04,0.18-0.08
						c0.04-0.03,0.07-0.05,0.12-0.07c0.02-0.01,0.05,0,0.06,0.01c0.04,0.04,0.03,0.15-0.01,0.19c-0.05,0.05-0.1,0.12-0.09,0.2
						c0.01,0.08-0.01,0.14-0.03,0.21c-0.01,0.03-0.02,0.05-0.03,0.1c0.02-0.02,0.03-0.03,0.04-0.04c0.06-0.07,0.13-0.12,0.22-0.15
						c0.03-0.01,0.06-0.05,0.09-0.08c0.02-0.03,0.03-0.06,0.04-0.09c0.02-0.04,0.09-0.09,0.12-0.08c0.05,0.02,0.04,0.06,0.04,0.1
						c0,0.06,0,0.12,0,0.18c0,0.05,0,0.11,0.01,0.16c0.01,0.06,0.04,0.11,0.11,0.12c-0.04-0.08-0.05-0.16-0.04-0.23
						c0.01-0.08,0.01-0.16,0.01-0.24c0-0.06,0-0.13-0.03-0.18c-0.01-0.01-0.01-0.03-0.01-0.05c0.01-0.06,0.02-0.11,0.03-0.17
						c0.26,0.05,0.52,0.05,0.79,0c0.02,0.08,0.05,0.16,0.06,0.23c0.03,0.1,0.02,0.2-0.02,0.29c-0.05,0.11-0.12,0.19-0.2,0.26
						c-0.13,0.1-0.27,0.15-0.42,0.18c-0.22,0.04-0.43,0.08-0.65,0.12c-0.16,0.03-0.32,0.08-0.47,0.18c-0.04,0.03-0.08,0.06-0.13,0.1
						c0-0.06,0.01-0.12,0.01-0.18c0-0.01,0-0.02,0-0.03C8.54,36.14,8.51,35.94,8.48,35.73 M8.48,33.67
						c-0.15-0.21-0.28-0.44-0.31-0.71c-0.02-0.21,0.07-0.42,0.24-0.52c0.04,0.1,0.08,0.2,0.12,0.29s0.08,0.19,0.16,0.29
						c0.02-0.24,0.03-0.45,0.07-0.67c0.14,0.01,0.25,0.06,0.37,0.14c-0.06,0.05-0.11,0.09-0.15,0.14c-0.11,0.11-0.09,0.26,0.04,0.33
						c0.05,0.03,0.1,0.04,0.16,0.06c0.05,0.02,0.09,0.03,0.14,0.05C9.25,33.18,8.59,33.64,8.48,33.67 M7.25,33.64
						c0.05,0.16,0.11,0.32,0.17,0.48c0.01,0.03,0.02,0.05,0.04,0.08c0.08,0.16,0.26,0.12,0.32,0.02c0.02-0.04,0.04-0.09,0.06-0.13
						c0.01-0.04,0.02-0.08,0.03-0.12l0.03-0.01c0.11,0.01,0.21-0.02,0.31-0.05c0.04-0.01,0.06-0.01,0.09,0.02s0.07,0.06,0.1,0.1
						c-0.05,0.04-0.1,0.07-0.14,0.11c-0.15,0.15-0.22,0.35-0.21,0.57c0.01,0.13,0.03,0.27,0.06,0.4c0.07,0.28,0.16,0.55,0.23,0.83
						c0.05,0.19,0.09,0.38,0.09,0.59c-0.07,0-0.14,0.02-0.18,0.08s-0.04,0.13-0.01,0.21c-0.14,0.04-0.17,0.17-0.2,0.29
						c-0.03,0.11-0.05,0.23-0.09,0.35c0.02-0.02,0.04-0.02,0.05-0.03c0.1-0.09,0.2-0.19,0.31-0.27c0.07-0.05,0.11-0.12,0.09-0.22
						c0.07-0.01,0.14-0.03,0.18-0.1s0.04-0.13,0-0.21c0.05-0.04,0.1-0.05,0.16-0.07c0.17-0.05,0.35-0.07,0.53-0.09
						c0.25-0.02,0.49-0.05,0.74-0.07c0.12-0.01,0.24-0.05,0.36-0.12c0.15-0.08,0.26-0.21,0.32-0.39c0.02-0.05,0.02-0.1,0.04-0.17
						c0.06,0.03,0.11,0.06,0.17,0.09c0.03,0.14,0.05,0.28,0.08,0.43c-0.02,0.02-0.06,0.04-0.09,0.07c-0.04,0.04-0.08,0.09-0.1,0.14
						c-0.05,0.12,0.01,0.26,0.13,0.28c0.09,0.02,0.18,0.02,0.27,0.02c0.15,0,0.29-0.02,0.45-0.04c-0.02-0.01-0.03-0.03-0.04-0.04
						c-0.07-0.05-0.15-0.11-0.22-0.16c-0.19-0.15-0.31-0.34-0.36-0.59c0-0.02,0-0.04-0.01-0.07c0.03,0.01,0.06,0.02,0.09,0.02
						c0.18,0.05,0.36,0.08,0.54,0.05c0.3-0.05,0.51-0.23,0.64-0.51c0.05-0.1,0.06-0.2,0.05-0.31c-0.01-0.05,0-0.08,0.05-0.1
						c0.14-0.09,0.16-0.15,0.1-0.32c-0.01-0.04-0.03-0.08-0.05-0.13l0.01-0.03c0.16-0.27,0.07-0.68-0.18-0.87
						c-0.22-0.17-0.46-0.26-0.73-0.28c-0.32-0.02-0.62,0.03-0.91,0.19c-0.01,0.01-0.02,0.01-0.04,0.02
						c-0.01-0.04-0.02-0.08-0.04-0.13c0.03-0.02,0.06-0.03,0.08-0.04c0.09-0.04,0.18-0.1,0.24-0.18c0.09-0.12,0.07-0.27-0.05-0.36
						c-0.12-0.09-0.25-0.05-0.33,0.08c-0.05,0.09-0.06,0.19-0.07,0.29c0,0.02,0,0.05,0,0.08c0,0.01,0,0.03,0,0.04
						c-0.04,0-0.08,0.01-0.12,0.01c0-0.04,0-0.08,0-0.13c0-0.09,0-0.17-0.01-0.26c-0.06-0.51-0.25-0.95-0.65-1.25
						c-0.15-0.12-0.32-0.16-0.5-0.12C9,31.64,8.89,31.7,8.81,31.81c-0.03,0.04-0.06,0.06-0.11,0.05s-0.09,0-0.14,0.01
						c-0.08,0.01-0.14,0.06-0.15,0.15c-0.01,0.1-0.06,0.14-0.14,0.18c-0.24,0.12-0.35,0.34-0.38,0.61
						c-0.02,0.17,0.01,0.33,0.08,0.48c0.06,0.13,0.13,0.26,0.19,0.39c0.01,0.03,0.03,0.05,0.05,0.1c-0.23,0.06-0.45,0.04-0.65-0.09
						c-0.08-0.05-0.16-0.11-0.23-0.16c-0.03-0.02-0.05-0.05-0.08-0.08l-0.02,0.02C7.22,33.55,7.23,33.59,7.25,33.64"/>
				</defs>
				<clipPath id="SVGID_44_">
					<use xlink:href="#SVGID_43_"  style="overflow:visible;"/>
				</clipPath>
				
					<linearGradient id="SVGID_45_" gradientUnits="userSpaceOnUse" x1="-1089.9414" y1="278.4943" x2="-1089.804" y2="278.4943" gradientTransform="matrix(91.2905 0 0 -91.2905 99505.3906 25458.416)">
					<stop  offset="0" style="stop-color:#B05105"/>
					<stop  offset="0.1495" style="stop-color:#B05105"/>
					<stop  offset="0.4059" style="stop-color:#C37015"/>
					<stop  offset="0.7131" style="stop-color:#DEA030"/>
					<stop  offset="0.7976" style="stop-color:#E6B446"/>
					<stop  offset="0.9754" style="stop-color:#FAE786"/>
					<stop  offset="1" style="stop-color:#FDEE91"/>
				</linearGradient>
				<rect x="7.21" y="31.6" class="st14" width="5.38" height="5.86"/>
			</g>
		</g>
	</g>
	<g>
		<g>
			<g>
				<defs>
					<rect id="SVGID_46_" x="13.86" width="0.45" height="40.43"/>
				</defs>
				<clipPath id="SVGID_47_">
					<use xlink:href="#SVGID_46_"  style="overflow:visible;"/>
				</clipPath>
				
					<linearGradient id="SVGID_48_" gradientUnits="userSpaceOnUse" x1="-1089.9414" y1="277.5089" x2="-1089.804" y2="277.5089" gradientTransform="matrix(91.2905 0 0 -91.2905 99505.3906 25354.1426)">
					<stop  offset="0" style="stop-color:#B05105"/>
					<stop  offset="0.1495" style="stop-color:#B05105"/>
					<stop  offset="0.4059" style="stop-color:#C37015"/>
					<stop  offset="0.7131" style="stop-color:#DEA030"/>
					<stop  offset="0.7976" style="stop-color:#E6B446"/>
					<stop  offset="0.9754" style="stop-color:#FAE786"/>
					<stop  offset="1" style="stop-color:#FDEE91"/>
				</linearGradient>
				<rect x="13.86" class="st15" width="0.45" height="40.43"/>
			</g>
		</g>
	</g>
</g>
</svg>
