<?xml version="1.0" encoding="utf-8"?>
<!-- Generator: Adobe Illustrator 25.0.1, SVG Export Plug-In . SVG Version: 6.00 Build 0)  -->
<svg version="1.1" id="Calque_1" xmlns="http://www.w3.org/2000/svg" xmlns:xlink="http://www.w3.org/1999/xlink" x="0px" y="0px"
	 viewBox="0 0 14.3 40.43" style="enable-background:new 0 0 14.3 40.43;" xml:space="preserve">
<style type="text/css">
	.st0{clip-path:url(#SVGID_2_);fill:url(#SVGID_3_);}
	.st1{clip-path:url(#SVGID_5_);fill:url(#SVGID_6_);}
	.st2{clip-path:url(#SVGID_8_);fill:url(#SVGID_9_);}
	.st3{clip-path:url(#SVGID_11_);fill:url(#SVGID_12_);}
	.st4{clip-path:url(#SVGID_14_);fill:url(#SVGID_15_);}
	.st5{clip-path:url(#SVGID_17_);fill:url(#SVGID_18_);}
	.st6{clip-path:url(#SVGID_20_);fill:url(#SVGID_21_);}
	.st7{clip-path:url(#SVGID_23_);fill:url(#SVGID_24_);}
	.st8{clip-path:url(#SVGID_26_);fill:url(#SVGID_27_);}
	.st9{clip-path:url(#SVGID_29_);fill:url(#SVGID_30_);}
	.st10{clip-path:url(#SVGID_32_);fill:url(#SVGID_33_);}
	.st11{clip-path:url(#SVGID_35_);fill:url(#SVGID_36_);}
	.st12{clip-path:url(#SVGID_38_);fill:url(#SVGID_39_);}
	.st13{clip-path:url(#SVGID_41_);fill:url(#SVGID_42_);}
	.st14{clip-path:url(#SVGID_44_);fill:url(#SVGID_45_);}
	.st15{clip-path:url(#SVGID_47_);fill:url(#SVGID_48_);}
</style>
<g>
	<g>
		<g>
			<g>
				<defs>
					<path id="SVGID_1_" d="M0.45,4.86C0.48,4.81,0.51,4.75,0.54,4.7C0.6,4.58,0.56,4.46,0.45,4.42V4.86z"/>
				</defs>
				<clipPath id="SVGID_2_">
					<use xlink:href="#SVGID_1_"  style="overflow:visible;"/>
				</clipPath>
				
					<linearGradient id="SVGID_3_" gradientUnits="userSpaceOnUse" x1="-1345.1504" y1="276.4383" x2="-1345.0129" y2="276.4383" gradientTransform="matrix(-91.2905 0 0 -91.2905 -122789.2344 25240.832)">
					<stop  offset="0" style="stop-color:#B05105"/>
					<stop  offset="0.1495" style="stop-color:#B05105"/>
					<stop  offset="0.4059" style="stop-color:#C37015"/>
					<stop  offset="0.7131" style="stop-color:#DEA030"/>
					<stop  offset="0.7976" style="stop-color:#E6B446"/>
					<stop  offset="0.9754" style="stop-color:#FAE786"/>
					<stop  offset="1" style="stop-color:#FDEE91"/>
				</linearGradient>
				<rect x="0.45" y="4.42" class="st0" width="0.16" height="0.44"/>
			</g>
		</g>
	</g>
	<g>
		<g>
			<g>
				<defs>
					<path id="SVGID_4_" d="M5.43,18.21c-0.12,0.25-0.24,0.5-0.38,0.75c-0.06,0.11-0.14,0.21-0.21,0.31
						c-0.33,0.42-0.74,0.66-1.22,0.74c-0.04,0.01-0.08,0-0.12,0c-0.17-1-0.34-1.98-0.51-2.96c0.02-0.02,0.02-0.02,0.03-0.03
						C3.05,17.02,3.07,17,3.1,17c0.38-0.1,0.76-0.1,1.13,0.04c0.45,0.17,0.81,0.49,1.16,0.85c0.05,0.06,0.08,0.11,0.08,0.17
						C5.47,18.1,5.46,18.15,5.43,18.21 M5.33,22.65c-0.02,0.02-0.04,0.04-0.06,0.06c-0.19,0.15-0.37,0.31-0.56,0.45
						c-0.47,0.34-0.98,0.46-1.53,0.32c-0.06-0.02-0.12-0.04-0.19-0.06c0.17-0.99,0.34-1.97,0.51-2.97c0.13,0.02,0.24,0.02,0.35,0.05
						c0.34,0.08,0.63,0.28,0.88,0.56c0.3,0.33,0.5,0.73,0.69,1.15c0.03,0.07,0.05,0.13,0.05,0.19C5.46,22.48,5.42,22.56,5.33,22.65
						 M4.01,26.34c0,0.11-0.04,0.19-0.13,0.25c-0.04,0.03-0.09,0.06-0.14,0.08C3,27.03,2.27,26.97,1.57,26.5
						c-0.06-0.04-0.12-0.1-0.2-0.16c0.49-0.85,0.98-1.69,1.46-2.52c0.03,0.01,0.04,0.01,0.05,0.02c0.02,0.01,0.05,0.03,0.07,0.05
						c0.3,0.19,0.53,0.47,0.7,0.81C3.9,25.21,4,25.76,4,26.34C4.01,26.33,4.01,26.33,4.01,26.34 M4.03,14.29
						C4.02,15.25,3.65,16,2.98,16.56c-0.04,0.03-0.08,0.05-0.13,0.09c-0.49-0.84-0.98-1.68-1.48-2.54c0.14-0.1,0.26-0.19,0.39-0.27
						c0.32-0.19,0.66-0.27,1.01-0.28c0.38-0.01,0.74,0.07,1.07,0.27C3.95,13.9,4.01,14,4.02,14.15C4.03,14.2,4.03,14.24,4.03,14.29
						C4.03,14.28,4.03,14.29,4.03,14.29 M0.45,10.88c0.2-0.05,0.41-0.07,0.61-0.08c0.19-0.01,0.27,0.06,0.33,0.26
						c0.05,0.15,0.08,0.3,0.11,0.45c0.1,0.47,0.13,0.94,0.03,1.41c-0.07,0.33-0.21,0.63-0.41,0.91c-0.23-0.18-0.45-0.35-0.68-0.52
						v0.5c1.61,1.53,2.62,3.83,2.62,6.41c0,2.59-1.02,4.9-2.62,6.43v0.5c0.22-0.17,0.44-0.34,0.66-0.51
						c0.13,0.14,0.21,0.3,0.28,0.47c0.18,0.45,0.24,0.93,0.22,1.42c-0.02,0.31-0.08,0.61-0.21,0.89c-0.08,0.16-0.19,0.24-0.35,0.24
						c-0.2,0.01-0.39,0-0.58-0.05L0.44,29.6v3.87c0.18-0.02,0.31-0.12,0.38-0.31c0.03-0.09,0.06-0.19,0.07-0.29
						c0.01-0.19-0.05-0.35-0.2-0.45c-0.04-0.03-0.09-0.05-0.13-0.09c-0.1-0.09-0.13-0.19-0.09-0.32c0.02-0.06,0.04-0.11,0.06-0.16
						c0.28-0.58,0.57-1.16,0.85-1.74c0.05-0.11,0.13-0.16,0.24-0.18c0.61-0.07,1.22-0.16,1.83-0.23c0.07-0.01,0.13,0.01,0.2,0.01
						c0.02,0.07,0.03,0.12,0.05,0.18c0.04,0.12,0.08,0.24,0.13,0.35c0.18,0.35,0.63,0.37,0.83,0.03c0.09-0.15,0.12-0.31,0.09-0.48
						c-0.02-0.15-0.1-0.25-0.21-0.33c-0.13-0.09-0.27-0.14-0.41-0.17C4.09,29.27,4.05,29.26,4,29.25c0.02-0.23,0.05-0.44,0.07-0.66
						c0.03-0.36,0.06-0.73,0.09-1.09c0.01-0.12,0.02-0.24,0.05-0.35c0.06-0.29,0.21-0.52,0.43-0.69c0.03-0.02,0.07-0.05,0.1-0.07
						c0.41-0.19,0.78-0.46,1.17-0.69c0.18-0.11,0.33-0.07,0.48,0.1c0.07,0.08,0.15,0.15,0.23,0.22c0.15,0.11,0.31,0.1,0.46-0.01
						c0.29-0.21,0.36-0.59,0.15-0.91c-0.08-0.13-0.19-0.2-0.32-0.2c-0.1,0-0.2,0.02-0.31,0.04c-0.07,0.01-0.13,0.03-0.2,0.05
						c-0.02-0.05-0.03-0.09-0.04-0.13c-0.12-0.47-0.24-0.95-0.39-1.41c-0.2-0.61-0.1-1.18,0.29-1.66c0.3-0.37,0.57-0.76,0.83-1.15
						c0.02-0.03,0.05-0.06,0.07-0.1c0.05,0.03,0.09,0.07,0.13,0.1c0.11,0.06,0.22,0.14,0.33,0.18c0.24,0.09,0.45-0.02,0.56-0.27
						c0.08-0.18,0.08-0.37,0.01-0.56c-0.1-0.26-0.34-0.39-0.57-0.3c-0.11,0.04-0.22,0.12-0.32,0.18c-0.04,0.02-0.07,0.05-0.11,0.08
						c-0.02-0.01-0.03-0.02-0.04-0.03c-0.29-0.37-0.61-0.71-0.84-1.15c-0.06-0.12-0.14-0.22-0.22-0.33
						C6.06,18.37,6.03,18.33,6,18.28c-0.17-0.24-0.22-0.51-0.16-0.81c0.12-0.63,0.31-1.23,0.57-1.8c0.02-0.05,0.05-0.09,0.08-0.15
						c0.04,0.01,0.08,0.03,0.11,0.04c0.1,0.01,0.2,0.04,0.3,0.03c0.14-0.01,0.26-0.09,0.34-0.23c0.07-0.13,0.12-0.27,0.11-0.43
						c0-0.06-0.01-0.12-0.03-0.17c-0.08-0.22-0.35-0.42-0.56-0.39c-0.13,0.01-0.23,0.08-0.31,0.21c-0.03,0.06-0.06,0.12-0.1,0.17
						c-0.09,0.12-0.2,0.16-0.33,0.11c-0.05-0.02-0.1-0.05-0.15-0.08c-0.5-0.32-0.99-0.65-1.49-0.97c-0.08-0.05-0.12-0.13-0.13-0.23
						c-0.06-0.5-0.11-1-0.17-1.5c-0.01-0.1-0.02-0.2-0.03-0.3c-0.01-0.08-0.02-0.16-0.01-0.25c0.01-0.11,0.03-0.23,0.05-0.35
						c0.06-0.02,0.13-0.03,0.19-0.05c0.09-0.04,0.19-0.07,0.28-0.12c0.21-0.13,0.27-0.35,0.22-0.61c-0.07-0.34-0.41-0.54-0.7-0.43
						c-0.12,0.05-0.2,0.15-0.25,0.28c-0.05,0.16-0.09,0.32-0.14,0.5c-0.02,0-0.05,0.01-0.08,0.01c-0.48,0.05-0.96-0.04-1.43-0.13
						C2,10.6,1.83,10.56,1.65,10.53c-0.12-0.02-0.2-0.07-0.26-0.21c-0.3-0.65-0.6-1.3-0.89-1.96C0.49,8.33,0.47,8.29,0.45,8.25
						c0.03-0.03,0.07-0.06,0.1-0.09c0.09-0.1,0.18-0.19,0.26-0.3c0.12-0.18,0.11-0.38,0.01-0.58C0.73,7.1,0.61,7,0.45,6.98V10.88
						L0.45,10.88z"/>
				</defs>
				<clipPath id="SVGID_5_">
					<use xlink:href="#SVGID_4_"  style="overflow:visible;"/>
				</clipPath>
				
					<linearGradient id="SVGID_6_" gradientUnits="userSpaceOnUse" x1="-1345.1504" y1="277.5098" x2="-1345.0129" y2="277.5098" gradientTransform="matrix(-91.2905 0 0 -91.2905 -122789.2344 25354.2441)">
					<stop  offset="0" style="stop-color:#B05105"/>
					<stop  offset="0.1495" style="stop-color:#B05105"/>
					<stop  offset="0.4059" style="stop-color:#C37015"/>
					<stop  offset="0.7131" style="stop-color:#DEA030"/>
					<stop  offset="0.7976" style="stop-color:#E6B446"/>
					<stop  offset="0.9754" style="stop-color:#FAE786"/>
					<stop  offset="1" style="stop-color:#FDEE91"/>
				</linearGradient>
				<rect x="0.43" y="6.99" class="st1" width="7.85" height="26.49"/>
			</g>
		</g>
	</g>
	<g>
		<g>
			<g>
				<defs>
					<path id="SVGID_7_" d="M5.59,13.15C5.48,13.1,5.38,13.05,5.27,13c0.05-0.13,0.1-0.24,0.15-0.35c0.1,0.04,0.18,0.07,0.29,0.11
						C5.67,12.9,5.63,13.03,5.59,13.15 M4.46,13.43c0.04,0,0.08,0,0.12,0c0.24-0.01,0.26,0,0.41,0.21c0.2-0.09,0.27-0.26,0.25-0.52
						c0.1,0.06,0.18,0.12,0.27,0.18c-0.14,0.16-0.22,0.33-0.12,0.54l0.02,0.01c0.16-0.05,0.27,0.03,0.36,0.17
						c0.05,0.08,0.1,0.16,0.19,0.2c0.01-0.04,0.02-0.07,0.02-0.11c0-0.07,0-0.14,0-0.21C5.97,13.73,6,13.59,6.15,13.52
						c-0.04-0.3-0.24-0.31-0.45-0.33c0.05-0.11,0.09-0.22,0.14-0.34c0.04,0.04,0.06,0.07,0.09,0.1c0.08,0.09,0.17,0.14,0.28,0.12
						c0.1-0.01,0.14-0.07,0.12-0.18c-0.01-0.08,0.02-0.13,0.06-0.18c0.08-0.09,0.16-0.18,0.24-0.27c0.02-0.02,0.03-0.05,0.07-0.09
						c-0.09,0-0.15,0-0.21,0c-0.08,0-0.15-0.01-0.23-0.02c-0.07-0.01-0.12-0.04-0.15-0.11c-0.05-0.11-0.12-0.12-0.19-0.02
						c-0.04,0.06-0.07,0.14-0.11,0.21c-0.03,0.06-0.05,0.13-0.08,0.2c-0.08-0.05-0.15-0.09-0.22-0.13c0.13-0.16,0.21-0.33,0.12-0.55
						c-0.02,0-0.04,0-0.06,0.01c-0.11,0.03-0.2-0.02-0.27-0.11c-0.05-0.06-0.09-0.13-0.14-0.19c-0.03-0.03-0.06-0.06-0.12-0.11
						c0,0.17-0.01,0.3-0.01,0.44c0,0.1-0.01,0.19-0.1,0.24c-0.06,0.03-0.06,0.14,0,0.18C5,12.45,5.08,12.5,5.15,12.55
						c0.04,0.03,0.08,0.05,0.13,0.09c-0.04,0.09-0.07,0.17-0.11,0.26c-0.09-0.09-0.17-0.2-0.3-0.2c-0.07,0-0.14,0.02-0.22,0.02
						c0.02,0.09,0.03,0.16,0.04,0.24c-0.12,0.13-0.23,0.27-0.37,0.43C4.4,13.42,4.43,13.43,4.46,13.43"/>
				</defs>
				<clipPath id="SVGID_8_">
					<use xlink:href="#SVGID_7_"  style="overflow:visible;"/>
				</clipPath>
				
					<linearGradient id="SVGID_9_" gradientUnits="userSpaceOnUse" x1="-1345.1504" y1="277.0044" x2="-1345.0129" y2="277.0044" gradientTransform="matrix(-91.2905 0 0 -91.2905 -122789.2344 25300.7422)">
					<stop  offset="0" style="stop-color:#B05105"/>
					<stop  offset="0.1495" style="stop-color:#B05105"/>
					<stop  offset="0.4059" style="stop-color:#C37015"/>
					<stop  offset="0.7131" style="stop-color:#DEA030"/>
					<stop  offset="0.7976" style="stop-color:#E6B446"/>
					<stop  offset="0.9754" style="stop-color:#FAE786"/>
					<stop  offset="1" style="stop-color:#FDEE91"/>
				</linearGradient>
				<rect x="4.34" y="11.54" class="st2" width="2.36" height="2.67"/>
			</g>
		</g>
	</g>
	<g>
		<g>
			<g>
				<defs>
					<path id="SVGID_10_" d="M7.25,17.97c-0.09-0.09-0.17-0.16-0.27-0.25c0.08-0.1,0.16-0.19,0.24-0.29
						c0.08,0.07,0.16,0.14,0.24,0.21C7.38,17.75,7.32,17.85,7.25,17.97 M6.1,17.84c0.03,0.02,0.07,0.02,0.1,0.03
						c0.24,0.07,0.25,0.09,0.34,0.34c0.22-0.01,0.33-0.17,0.38-0.41c0.08,0.1,0.14,0.18,0.21,0.27c-0.17,0.1-0.29,0.24-0.25,0.48
						c0.01,0,0.03,0.01,0.04,0.01c0.12,0.01,0.2,0.08,0.24,0.21c0.02,0.06,0.04,0.12,0.06,0.18c0.02,0.05,0.05,0.1,0.09,0.18
						c0.03-0.07,0.06-0.11,0.07-0.16c0.02-0.05,0.03-0.11,0.04-0.16c0.03-0.16,0.1-0.28,0.26-0.3c0.04-0.31-0.16-0.38-0.34-0.48
						c0.07-0.09,0.14-0.17,0.22-0.27c0.02,0.05,0.04,0.09,0.06,0.13c0.05,0.11,0.13,0.19,0.24,0.2c0.09,0.02,0.14-0.02,0.16-0.13
						c0.01-0.07,0.04-0.11,0.1-0.14c0.1-0.06,0.19-0.11,0.29-0.17c0.03-0.02,0.06-0.04,0.11-0.07c-0.12-0.05-0.23-0.1-0.34-0.14
						c-0.1-0.04-0.18-0.08-0.2-0.22c-0.01-0.08-0.07-0.11-0.14-0.06c-0.05,0.04-0.1,0.09-0.15,0.14c-0.05,0.06-0.1,0.13-0.16,0.21
						c-0.06-0.07-0.11-0.13-0.17-0.19c0.07-0.07,0.14-0.13,0.19-0.2c0.06-0.08,0.07-0.18,0.06-0.28l-0.02-0.02
						c-0.16,0-0.24-0.11-0.3-0.27c-0.03-0.1-0.06-0.21-0.15-0.29c-0.04,0.13-0.08,0.26-0.12,0.38c-0.03,0.1-0.06,0.2-0.17,0.22
						c-0.06,0.01-0.08,0.12-0.04,0.18c0.05,0.07,0.1,0.14,0.16,0.21c0.04,0.05,0.07,0.09,0.11,0.14c-0.02,0.03-0.04,0.06-0.06,0.08
						c-0.03,0.04-0.07,0.09-0.12,0.14c-0.08-0.24-0.21-0.36-0.43-0.34c-0.01,0.02-0.02,0.03-0.02,0.04
						c0.02,0.14-0.05,0.22-0.16,0.28c-0.11,0.05-0.2,0.12-0.32,0.19C6.03,17.8,6.07,17.83,6.1,17.84"/>
				</defs>
				<clipPath id="SVGID_11_">
					<use xlink:href="#SVGID_10_"  style="overflow:visible;"/>
				</clipPath>
				
					<linearGradient id="SVGID_12_" gradientUnits="userSpaceOnUse" x1="-1345.1504" y1="277.335" x2="-1345.0129" y2="277.335" gradientTransform="matrix(-91.2905 0 0 -91.2905 -122789.2344 25335.7344)">
					<stop  offset="0" style="stop-color:#B05105"/>
					<stop  offset="0.1495" style="stop-color:#B05105"/>
					<stop  offset="0.4059" style="stop-color:#C37015"/>
					<stop  offset="0.7131" style="stop-color:#DEA030"/>
					<stop  offset="0.7976" style="stop-color:#E6B446"/>
					<stop  offset="0.9754" style="stop-color:#FAE786"/>
					<stop  offset="1" style="stop-color:#FDEE91"/>
				</linearGradient>
				<rect x="5.98" y="16.25" class="st3" width="2.52" height="2.87"/>
			</g>
		</g>
	</g>
	<g>
		<g>
			<g>
				<defs>
					<path id="SVGID_13_" d="M12.15,26.49c-0.15,0.03-0.28,0.11-0.41,0.2c-0.17,0.12-0.33,0.24-0.49,0.36
						c-0.11,0.08-0.24,0.14-0.37,0.16c-0.1,0.02-0.19,0.01-0.28-0.03c-0.08-0.03-0.14-0.09-0.18-0.17
						c-0.03-0.06-0.06-0.12-0.09-0.19c0.2-0.15,0.37-0.33,0.51-0.53c0.04,0.03,0.08,0.06,0.12,0.09c0.01,0.01,0.02,0.02,0.02,0.03
						c0.02,0.06,0.05,0.1,0.09,0.14c0.05,0.05,0.1,0.1,0.15,0.15c0.05,0.05,0.08,0.1,0.1,0.18c0.04-0.06,0.03-0.11,0-0.15
						c-0.03-0.04-0.06-0.07-0.09-0.11s-0.07-0.07-0.11-0.12c-0.02-0.03-0.05-0.05-0.03-0.09c0.02-0.03,0.09-0.04,0.13-0.03
						c0.03,0.01,0.05,0.03,0.08,0.04s0.08,0.01,0.1-0.01c0.07-0.04,0.15-0.05,0.23-0.05c0.01,0,0.02,0,0.05,0
						c-0.04-0.02-0.05-0.03-0.08-0.04c-0.05-0.03-0.1-0.06-0.14-0.12c-0.04-0.06-0.1-0.08-0.17-0.07c-0.05,0-0.12-0.07-0.12-0.12
						c0-0.02,0.02-0.04,0.04-0.05c0.04-0.02,0.08-0.02,0.12-0.03c0.06-0.01,0.12-0.03,0.16-0.07c0.04-0.03,0.06-0.07,0.06-0.14
						c-0.02,0.01-0.02,0.02-0.03,0.03c-0.05,0.06-0.11,0.08-0.18,0.09c-0.06,0.01-0.12,0.02-0.18,0.03
						c-0.06,0.02-0.12,0.05-0.12,0.13c-0.05,0.01-0.1,0.02-0.16,0.04c-0.09-0.24-0.13-0.51-0.27-0.74c0.08-0.09,0.17-0.18,0.28-0.22
						c0.1-0.04,0.2-0.02,0.3,0.03c0.15,0.07,0.26,0.19,0.35,0.33c0.1,0.15,0.19,0.31,0.29,0.47s0.21,0.32,0.34,0.46
						c0.03,0.04,0.07,0.07,0.11,0.11C12.24,26.48,12.19,26.48,12.15,26.49 M10.51,25.12c-0.07-0.07-0.14-0.15-0.22-0.2
						c-0.08-0.06-0.16-0.09-0.26-0.14c0.21-0.04,0.41-0.08,0.61-0.12C10.64,24.85,10.6,25.03,10.51,25.12 M10.78,26.2
						c-0.07,0.09-0.14,0.18-0.22,0.27c-0.06,0.07-0.13,0.13-0.2,0.19c-0.02,0.02-0.05,0.03-0.07,0.05
						c-0.05-0.11-0.09-0.23-0.15-0.33c-0.06-0.1-0.15-0.17-0.27-0.24c0.16-0.05,0.31-0.08,0.46-0.15c-0.11-0.13-0.23-0.23-0.35-0.35
						c0.24,0,0.42-0.13,0.57-0.31c0.06,0.09,0.09,0.17,0.11,0.25c0.04,0.13,0.07,0.27,0.11,0.41c0.01,0.03,0.01,0.06,0.03,0.09
						c0.01,0.02,0.01,0.03,0.01,0.04C10.8,26.16,10.79,26.18,10.78,26.2 M10.1,27.37c-0.17-0.13-0.33-0.25-0.51-0.38
						c0.1,0,0.2,0,0.29-0.01s0.18-0.05,0.28-0.07c0.01,0.04,0.01,0.07,0.01,0.11C10.17,27.14,10.13,27.25,10.1,27.37 M10.11,25.51
						c-0.17,0.05-0.33,0.03-0.46-0.12c-0.07-0.08-0.09-0.17-0.08-0.27C9.58,25.05,9.6,25,9.66,24.97c0.06,0.07,0.12,0.13,0.18,0.2
						l0.01-0.01C9.82,25.08,9.77,25,9.76,24.9c0.1-0.03,0.19-0.07,0.29-0.02c0.13,0.06,0.25,0.13,0.35,0.25
						c0.02,0.03,0.04,0.05,0.06,0.09C10.36,25.35,10.26,25.47,10.11,25.51 M9.74,24.22c-0.06,0-0.11,0.01-0.18,0.01
						c0.03-0.13,0.08-0.24,0.16-0.34C9.87,24,10,24.13,10.15,24.28c-0.01-0.11-0.04-0.2-0.06-0.29c-0.03-0.09-0.06-0.18-0.09-0.27
						c0.17-0.05,0.34,0.02,0.45,0.17c0.14,0.2,0.19,0.43,0.21,0.67c-0.09,0.05-0.78,0.2-0.89,0.18c0.02-0.05,0.04-0.09,0.06-0.13
						c0.02-0.05,0.05-0.09,0.07-0.14c0.01-0.03,0.01-0.05,0.01-0.07C9.92,24.29,9.85,24.22,9.74,24.22 M9.34,26.63
						c-0.07-0.1-0.06-0.23,0.03-0.31c0.09-0.09,0.2-0.13,0.33-0.1c0.19,0.04,0.3,0.17,0.37,0.35c0.03,0.08,0.05,0.16,0.08,0.25
						c-0.16,0.05-0.31,0.1-0.47,0.09c-0.08-0.01-0.15-0.03-0.21-0.09c-0.02-0.03-0.05-0.05-0.08-0.08c0.05-0.11,0.16-0.16,0.25-0.25
						C9.53,26.52,9.44,26.58,9.34,26.63 M9.44,25.53c-0.02,0-0.04-0.02-0.05-0.03c-0.09-0.1-0.18-0.2-0.24-0.32
						c-0.1-0.19-0.17-0.4-0.2-0.62c-0.02-0.15-0.01-0.29,0.02-0.44c0.04-0.19,0.15-0.31,0.31-0.38c0.05-0.02,0.11-0.02,0.17,0.01
						c0.05,0.03,0.11,0.05,0.16,0.08c-0.01,0.02-0.01,0.04-0.02,0.05L9.58,23.9c-0.11,0.24-0.13,0.48-0.05,0.73
						c0.03,0.08,0.05,0.16,0.09,0.25c-0.16,0.19-0.17,0.38-0.02,0.63C9.55,25.51,9.49,25.52,9.44,25.53 M8.98,27.65
						c-0.05-0.09-0.05-0.26-0.02-0.39c0.04,0.03,0.08,0.05,0.12,0.08c0.02,0.01,0.04,0.03,0.06,0.03c0.11,0.03,0.2-0.04,0.21-0.16
						c0-0.05,0-0.1-0.01-0.15c0-0.05,0-0.11,0-0.16c0.08,0.04,0.65,0.48,0.73,0.57v0.02C9.96,27.7,9.82,27.88,9.62,28
						c-0.19,0.11-0.37,0.04-0.49-0.05c-0.01,0-0.01-0.01-0.02-0.03c0.12-0.12,0.23-0.24,0.32-0.4C9.29,27.57,9.13,27.63,8.98,27.65
						 M8.81,29.99c-0.04-0.1-0.07-0.2-0.12-0.29s-0.11-0.17-0.18-0.26c0.2,0.06,0.4,0.13,0.6,0.19C9.03,29.81,8.93,29.95,8.81,29.99
						 M8.6,27.65c-0.04-0.01-0.08-0.04-0.11-0.08c-0.11-0.14-0.16-0.31-0.12-0.5c0.06-0.3,0.21-0.54,0.43-0.74
						c0.14-0.13,0.31-0.24,0.49-0.3c0.02-0.01,0.03-0.01,0.03-0.01c0.06,0.04,0.11,0.07,0.15,0.1c-0.05,0.05-0.11,0.09-0.16,0.14
						s-0.07,0.13-0.08,0.2c0,0.08,0,0.15,0.01,0.24c-0.14,0.1-0.25,0.24-0.32,0.41s-0.08,0.35-0.07,0.54
						C8.76,27.66,8.68,27.67,8.6,27.65 M9.18,29.55c-0.1,0.01-0.8-0.2-0.89-0.27c0.04-0.03,0.08-0.06,0.11-0.09
						c0.04-0.03,0.09-0.06,0.12-0.1c0.1-0.1,0.07-0.24-0.05-0.3c-0.05-0.03-0.11-0.05-0.17-0.07c0.08-0.11,0.17-0.19,0.29-0.24
						c0.09,0.18,0.16,0.36,0.23,0.56c0.04-0.11,0.05-0.2,0.06-0.3c0.01-0.1,0.02-0.19,0.03-0.29c0.17,0.03,0.31,0.19,0.34,0.38
						c0.01,0.06,0.02,0.13,0.02,0.19C9.29,29.2,9.24,29.38,9.18,29.55 M9.74,32.05c-0.15-0.04-0.3-0.04-0.46-0.02
						c-0.2,0.03-0.4,0.06-0.6,0.09c-0.14,0.02-0.28,0.01-0.41-0.03C8.18,32.05,8.1,32,8.03,31.92c-0.06-0.07-0.09-0.15-0.09-0.25
						c0-0.07,0-0.14,0-0.22c0.25-0.04,0.47-0.12,0.69-0.24c0.03,0.05,0.05,0.1,0.07,0.14c0.01,0.01,0.01,0.03,0.01,0.04
						c-0.01,0.06,0,0.12,0.02,0.17c0.02,0.07,0.05,0.14,0.07,0.21c0.02,0.06,0.04,0.13,0.02,0.21c0.06-0.04,0.07-0.09,0.07-0.14
						c-0.01-0.05-0.02-0.1-0.04-0.14c-0.02-0.05-0.04-0.1-0.05-0.16c-0.01-0.03-0.02-0.07,0.01-0.1c0.03-0.02,0.1,0.01,0.13,0.04
						C8.96,31.5,8.97,31.53,9,31.55c0.03,0.02,0.07,0.05,0.1,0.04c0.08-0.01,0.16,0.02,0.23,0.06c0.01,0.01,0.02,0.01,0.05,0.02
						c-0.02-0.04-0.04-0.05-0.05-0.07c-0.04-0.05-0.07-0.1-0.08-0.17c-0.01-0.08-0.06-0.12-0.13-0.15
						c-0.05-0.02-0.08-0.12-0.06-0.17c0.01-0.02,0.04-0.03,0.05-0.03c0.04,0.01,0.08,0.02,0.12,0.03c0.06,0.02,0.12,0.03,0.18,0.01
						c0.05-0.01,0.09-0.04,0.12-0.09c-0.02,0-0.03,0.01-0.04,0.01c-0.07,0.03-0.13,0.02-0.2,0C9.23,31.02,9.17,31,9.11,30.98
						c-0.06-0.02-0.13-0.01-0.16,0.06C8.9,31.03,8.84,31.01,8.78,31c0.01-0.27,0.1-0.53,0.06-0.81c0.12-0.04,0.23-0.08,0.35-0.06
						c0.11,0.02,0.19,0.09,0.26,0.17c0.11,0.14,0.16,0.3,0.18,0.48c0.03,0.19,0.05,0.38,0.08,0.57c0.03,0.2,0.06,0.39,0.12,0.59
						c0.02,0.05,0.03,0.1,0.05,0.15C9.83,32.08,9.79,32.06,9.74,32.05 M8.28,30.16c-0.18-0.03-0.31-0.13-0.37-0.33
						c-0.03-0.1-0.02-0.2,0.04-0.29c0.03-0.06,0.08-0.1,0.15-0.09c0.03,0.09,0.06,0.18,0.09,0.27H8.2
						c-0.01-0.09-0.02-0.19,0.01-0.28c0.1,0.02,0.2,0.02,0.27,0.12c0.09,0.12,0.18,0.24,0.22,0.4c0.01,0.03,0.02,0.07,0.02,0.11
						C8.58,30.13,8.44,30.19,8.28,30.16 M7.95,30.97c-0.01-0.12-0.07-0.23-0.15-0.35c0.17,0.04,0.32,0.08,0.48,0.09
						c-0.05-0.17-0.11-0.32-0.18-0.49c0.23,0.12,0.44,0.09,0.65,0c0.02,0.11,0.01,0.2,0,0.29c-0.02,0.14-0.05,0.28-0.07,0.43
						C8.67,30.97,8.66,31,8.66,31.03c0,0.04-0.02,0.07-0.05,0.08c-0.1,0.05-0.21,0.1-0.31,0.14c-0.08,0.03-0.17,0.06-0.26,0.08
						c-0.03,0.01-0.06,0.01-0.09,0.01c0-0.04,0-0.08,0-0.12c0-0.03,0-0.05,0-0.08C7.95,31.09,7.95,31.03,7.95,30.97 M7.66,29.84
						c-0.02-0.01-0.03-0.03-0.03-0.05c-0.05-0.13-0.08-0.27-0.09-0.42c-0.01-0.23,0.01-0.45,0.07-0.66c0.05-0.14,0.11-0.27,0.2-0.39
						c0.12-0.15,0.27-0.21,0.45-0.2c0.06,0,0.11,0.03,0.15,0.09c0.04,0.05,0.08,0.1,0.12,0.16c-0.02,0.02-0.03,0.03-0.04,0.04
						l-0.02,0.01c-0.2,0.16-0.32,0.38-0.35,0.65c-0.01,0.09-0.02,0.18-0.03,0.27c-0.23,0.1-0.31,0.27-0.28,0.57
						C7.76,29.88,7.71,29.87,7.66,29.84 M7.5,31.85c-0.1-0.2-0.2-0.39-0.31-0.6c0.1,0.05,0.18,0.1,0.27,0.13
						c0.09,0.03,0.19,0.05,0.29,0.07C7.71,31.62,7.61,31.73,7.5,31.85 M7.11,30.81c-0.03-0.13,0.04-0.24,0.16-0.27
						c0.12-0.04,0.24-0.02,0.34,0.07c0.16,0.13,0.21,0.3,0.2,0.5c0,0.09-0.02,0.17-0.03,0.27c-0.17-0.03-0.33-0.06-0.47-0.14
						c-0.07-0.05-0.13-0.1-0.15-0.19C7.15,31,7.14,30.97,7.12,30.93c0.1-0.08,0.21-0.07,0.33-0.11C7.33,30.79,7.22,30.8,7.11,30.81
						 M6.35,31.57c0-0.11,0.06-0.27,0.15-0.37c0.03,0.04,0.05,0.09,0.08,0.13c0.01,0.02,0.03,0.05,0.04,0.06
						c0.09,0.08,0.2,0.06,0.26-0.05c0.02-0.05,0.04-0.1,0.06-0.14c0.02-0.05,0.04-0.1,0.06-0.15c0.06,0.07,0.4,0.76,0.44,0.88
						l-0.01,0.01c-0.19,0.14-0.39,0.24-0.62,0.25C6.6,32.2,6.46,32.04,6.39,31.9c0-0.01,0-0.02,0-0.03c0.16-0.05,0.31-0.1,0.46-0.21
						C6.67,31.64,6.51,31.62,6.35,31.57 M7.23,30.45c-0.07,0.03-0.12,0.08-0.16,0.15s-0.06,0.14-0.09,0.22
						c-0.17,0.02-0.32,0.1-0.46,0.22c-0.14,0.12-0.22,0.28-0.29,0.46c-0.08-0.04-0.16-0.07-0.22-0.13
						c-0.03-0.03-0.06-0.08-0.07-0.13c-0.04-0.19-0.02-0.36,0.1-0.51c0.18-0.24,0.42-0.39,0.7-0.47c0.19-0.05,0.38-0.07,0.57-0.04
						c0.02,0,0.03,0.01,0.04,0.01c0.04,0.06,0.07,0.11,0.1,0.16C7.37,30.42,7.3,30.43,7.23,30.45 M5.95,31.49l0.02,0.02
						c-0.01,0.05-0.01,0.09-0.01,0.13c-0.01,0.16,0.03,0.21,0.17,0.25c0.04,0.01,0.06,0.03,0.07,0.08c0.02,0.1,0.06,0.19,0.12,0.26
						c0.19,0.21,0.42,0.31,0.69,0.26c0.17-0.03,0.32-0.11,0.46-0.21c0.02-0.02,0.04-0.03,0.07-0.05c0.01,0.03,0.01,0.05,0.01,0.06
						c0.02,0.23-0.04,0.44-0.16,0.62c-0.05,0.07-0.1,0.14-0.15,0.21c-0.01,0.02-0.02,0.03-0.03,0.05c0.14-0.02,0.27-0.05,0.4-0.1
						c0.08-0.02,0.16-0.06,0.23-0.1c0.1-0.06,0.12-0.2,0.04-0.28c-0.03-0.04-0.08-0.06-0.13-0.09c-0.03-0.02-0.07-0.02-0.09-0.03
						c-0.01-0.14-0.03-0.27-0.04-0.4c0.04-0.04,0.08-0.09,0.12-0.13c0.03,0.05,0.05,0.1,0.08,0.14c0.1,0.14,0.22,0.21,0.38,0.24
						c0.11,0.02,0.23,0.02,0.34-0.01c0.22-0.05,0.45-0.1,0.67-0.16c0.16-0.04,0.32-0.07,0.49-0.08c0.05,0,0.11-0.01,0.16,0.02
						c-0.01,0.07,0.01,0.13,0.06,0.18s0.12,0.04,0.18,0.03c0.01,0.09,0.06,0.13,0.14,0.16c0.11,0.04,0.23,0.1,0.34,0.15
						c0.01,0.01,0.03,0.01,0.05,0.01c-0.06-0.1-0.11-0.2-0.17-0.28c-0.06-0.1-0.12-0.2-0.25-0.2c0.01-0.08-0.01-0.14-0.07-0.18
						c-0.05-0.05-0.12-0.04-0.18-0.02c-0.05-0.18-0.07-0.36-0.07-0.54c0-0.12,0-0.25,0-0.37c0-0.14,0-0.29,0-0.43
						c0-0.12-0.02-0.25-0.05-0.37c-0.05-0.2-0.16-0.35-0.33-0.44c-0.04-0.02-0.09-0.03-0.15-0.05c0.02-0.04,0.05-0.08,0.07-0.12
						c0.02-0.03,0.04-0.05,0.08-0.05c0.1,0,0.19-0.01,0.29-0.05h0.03c0.02,0.03,0.03,0.07,0.05,0.1s0.05,0.07,0.08,0.1
						c0.09,0.07,0.25,0.05,0.28-0.11c0-0.03,0.01-0.05,0.01-0.08c0.01-0.16,0.02-0.31,0.02-0.47c0-0.04,0-0.09,0-0.13l-0.02-0.01
						c-0.02,0.03-0.03,0.06-0.05,0.09c-0.05,0.07-0.1,0.15-0.16,0.21c-0.14,0.17-0.32,0.25-0.55,0.27c0.01-0.04,0.01-0.07,0.02-0.1
						c0.02-0.13,0.05-0.26,0.07-0.4c0.02-0.15,0.01-0.3-0.05-0.44c-0.1-0.23-0.25-0.39-0.49-0.42c-0.08-0.01-0.13-0.03-0.17-0.11
						c-0.01-0.02-0.02-0.04-0.04-0.06c0.03,0,0.07,0,0.11-0.01s0.07,0,0.09,0.04c0.05,0.08,0.13,0.14,0.21,0.17
						c0.25,0.1,0.49,0.08,0.71-0.1c0.14-0.11,0.24-0.25,0.32-0.4c0.01-0.02,0.03-0.05,0.04-0.07c0.02,0.02,0.03,0.04,0.04,0.05
						c0.11,0.19,0.14,0.4,0.1,0.62c-0.02,0.09-0.03,0.17-0.05,0.26c0,0.02,0,0.04-0.01,0.06c0.11-0.09,0.22-0.18,0.31-0.27
						c0.06-0.06,0.12-0.12,0.16-0.2c0.06-0.1,0.02-0.23-0.08-0.27c-0.05-0.02-0.1-0.02-0.15-0.02c-0.03,0-0.07,0.01-0.09,0.01
						c-0.07-0.11-0.13-0.22-0.2-0.33c0.02-0.06,0.04-0.12,0.05-0.17c0.05,0.03,0.08,0.06,0.12,0.08c0.14,0.08,0.28,0.09,0.43,0.04
						c0.11-0.04,0.21-0.09,0.3-0.16c0.18-0.15,0.35-0.3,0.53-0.45c0.13-0.11,0.26-0.21,0.4-0.3c0.04-0.03,0.09-0.06,0.14-0.06
						c0.02,0.07,0.06,0.11,0.12,0.13c0.07,0.02,0.12-0.02,0.17-0.06c0.05,0.07,0.11,0.09,0.18,0.08c0.12-0.01,0.24-0.02,0.36-0.03
						c0.02,0,0.03-0.01,0.05-0.01c-0.09-0.06-0.17-0.12-0.26-0.17c-0.09-0.06-0.19-0.12-0.3-0.05c-0.03-0.07-0.06-0.11-0.13-0.13
						c-0.07-0.02-0.12,0.02-0.17,0.07c-0.12-0.13-0.2-0.29-0.28-0.44c-0.11-0.23-0.21-0.47-0.32-0.7c-0.05-0.11-0.12-0.21-0.19-0.3
						c-0.12-0.15-0.27-0.24-0.46-0.23c-0.05,0-0.1,0.01-0.15,0.02c0-0.05,0.01-0.09,0.01-0.13c0-0.04,0.02-0.06,0.05-0.08
						c0.09-0.05,0.17-0.1,0.23-0.18l0.02-0.01c0.03,0.02,0.06,0.04,0.09,0.06c0.04,0.02,0.07,0.04,0.11,0.05
						c0.1,0.02,0.24-0.07,0.2-0.23c-0.01-0.02-0.01-0.05-0.02-0.07c-0.05-0.14-0.11-0.29-0.17-0.43c-0.02-0.04-0.04-0.08-0.05-0.12
						h-0.03c0,0.04,0,0.07-0.01,0.11c-0.02,0.09-0.03,0.18-0.06,0.26c-0.06,0.21-0.19,0.37-0.37,0.49
						c-0.01-0.04-0.02-0.07-0.02-0.09c-0.03-0.13-0.06-0.25-0.1-0.38c-0.04-0.14-0.11-0.27-0.22-0.36c-0.18-0.15-0.38-0.22-0.6-0.14
						c-0.07,0.03-0.13,0.04-0.19-0.02c-0.06-0.05-0.13-0.04-0.19,0c-0.03,0.03-0.07,0.05-0.1,0.09c-0.03,0.04-0.06,0.05-0.1,0.05
						c-0.12-0.02-0.23,0.01-0.33,0.08c-0.14,0.1-0.23,0.24-0.26,0.42c-0.09,0.47,0.03,0.88,0.29,1.25c0.06,0.09,0.14,0.17,0.22,0.25
						c-0.03,0.02-0.05,0.05-0.08,0.07c-0.03-0.03-0.05-0.05-0.07-0.08c-0.06-0.06-0.13-0.12-0.21-0.14
						c-0.12-0.04-0.23,0.03-0.26,0.16c-0.03,0.13,0.05,0.25,0.17,0.27c0.09,0.01,0.18-0.01,0.27-0.04c0.02-0.01,0.05-0.02,0.08-0.03
						c0.02,0.04,0.03,0.07,0.05,0.11c-0.02,0.01-0.03,0.01-0.03,0.01c-0.28,0.08-0.51,0.25-0.7,0.48c-0.16,0.19-0.27,0.42-0.32,0.67
						c-0.05,0.3,0.12,0.62,0.38,0.69l0.03,0.01c0.01,0.04,0.02,0.08,0.04,0.12c0.02,0.06,0.05,0.1,0.07,0.12c-0.02,0-0.04,0-0.06,0
						c-0.04,0.01-0.09,0.02-0.13,0.04s-0.07,0.02-0.11-0.01c-0.1-0.07-0.21-0.1-0.33-0.08c-0.17,0.02-0.31,0.11-0.41,0.26
						c-0.27,0.38-0.33,0.82-0.25,1.29c0.02,0.11,0.06,0.22,0.09,0.34c-0.03,0.01-0.07,0.02-0.11,0.02
						c-0.01-0.04-0.02-0.07-0.03-0.11c-0.03-0.09-0.07-0.17-0.13-0.23c-0.1-0.1-0.23-0.09-0.31,0.02s-0.06,0.25,0.05,0.33
						C7.1,29.98,7.19,30,7.28,30.01c0.03,0,0.05,0.01,0.08,0.01c0,0.04,0,0.08,0,0.12c-0.02,0-0.03,0-0.04,0
						c-0.29-0.06-0.57-0.01-0.84,0.1c-0.23,0.1-0.42,0.25-0.57,0.46c-0.08,0.11-0.11,0.25-0.11,0.38
						C5.77,31.22,5.83,31.39,5.95,31.49"/>
				</defs>
				<clipPath id="SVGID_14_">
					<use xlink:href="#SVGID_13_"  style="overflow:visible;"/>
				</clipPath>
				
					<linearGradient id="SVGID_15_" gradientUnits="userSpaceOnUse" x1="-1345.1504" y1="278.0648" x2="-1345.0129" y2="278.0648" gradientTransform="matrix(-91.2905 0 0 -91.2905 -122789.2344 25412.9551)">
					<stop  offset="0" style="stop-color:#B05105"/>
					<stop  offset="0.1495" style="stop-color:#B05105"/>
					<stop  offset="0.4059" style="stop-color:#C37015"/>
					<stop  offset="0.7131" style="stop-color:#DEA030"/>
					<stop  offset="0.7976" style="stop-color:#E6B446"/>
					<stop  offset="0.9754" style="stop-color:#FAE786"/>
					<stop  offset="1" style="stop-color:#FDEE91"/>
				</linearGradient>
				<rect x="5.77" y="23.4" class="st4" width="7.4" height="9.77"/>
			</g>
		</g>
	</g>
	<g>
		<g>
			<g>
				<defs>
					<path id="SVGID_16_" d="M7.15,23.12C7.09,23,7.03,22.9,6.96,22.78c0.11-0.07,0.2-0.13,0.3-0.19c0.06,0.1,0.12,0.19,0.18,0.28
						C7.34,22.96,7.25,23.03,7.15,23.12 M6.08,22.59c0.04,0.04,0.08,0.07,0.13,0.1c0.14,0.09,0.23,0.21,0.19,0.41
						c0.22,0.07,0.37-0.03,0.49-0.26c0.05,0.12,0.09,0.22,0.13,0.33c-0.19,0.03-0.34,0.13-0.37,0.37c0.02,0.01,0.05,0.03,0.07,0.04
						c0.08,0.04,0.13,0.12,0.14,0.22c0.01,0.07,0.01,0.15,0.02,0.22c0.01,0.06,0.02,0.12,0.03,0.21c0.05-0.05,0.08-0.08,0.11-0.11
						c0.03-0.04,0.05-0.09,0.08-0.14c0.1-0.19,0.13-0.21,0.33-0.22c0.13-0.27-0.05-0.4-0.2-0.57c0.09-0.06,0.18-0.12,0.28-0.18
						c0.01,0.05,0.02,0.09,0.02,0.13c0.02,0.13,0.07,0.24,0.18,0.3c0.08,0.04,0.14,0.02,0.17-0.07c0.03-0.07,0.07-0.1,0.14-0.11
						c0.14-0.02,0.27-0.05,0.43-0.08c-0.03-0.03-0.05-0.06-0.08-0.08c-0.09-0.08-0.17-0.15-0.26-0.23c-0.05-0.05-0.09-0.11-0.08-0.2
						c0.02-0.12-0.05-0.17-0.15-0.13c-0.07,0.03-0.14,0.07-0.2,0.11c-0.05,0.03-0.09,0.07-0.15,0.11c-0.04-0.09-0.08-0.17-0.12-0.26
						c0.2-0.03,0.34-0.14,0.37-0.37c-0.01-0.01-0.02-0.02-0.03-0.03c-0.13-0.05-0.18-0.17-0.19-0.31c-0.01-0.08-0.02-0.16-0.02-0.24
						c-0.01-0.03-0.02-0.07-0.04-0.12c-0.07,0.1-0.13,0.2-0.19,0.28c-0.03,0.04-0.05,0.08-0.08,0.12C7.2,21.88,7.15,21.9,7.1,21.9
						c-0.12,0-0.16,0.06-0.11,0.19c0.05,0.13,0.1,0.26,0.15,0.4c-0.07,0.06-0.14,0.1-0.21,0.15c-0.08-0.33-0.13-0.4-0.34-0.46
						c-0.02,0.04-0.04,0.08-0.05,0.12c-0.02,0.07-0.06,0.1-0.12,0.11C6.29,22.43,6.15,22.46,6,22.49
						C6.03,22.54,6.05,22.57,6.08,22.59"/>
				</defs>
				<clipPath id="SVGID_17_">
					<use xlink:href="#SVGID_16_"  style="overflow:visible;"/>
				</clipPath>
				
					<linearGradient id="SVGID_18_" gradientUnits="userSpaceOnUse" x1="-1345.1504" y1="277.6893" x2="-1345.0129" y2="277.6893" gradientTransform="matrix(-91.2905 0 0 -91.2905 -122789.2344 25373.2422)">
					<stop  offset="0" style="stop-color:#B05105"/>
					<stop  offset="0.1495" style="stop-color:#B05105"/>
					<stop  offset="0.4059" style="stop-color:#C37015"/>
					<stop  offset="0.7131" style="stop-color:#DEA030"/>
					<stop  offset="0.7976" style="stop-color:#E6B446"/>
					<stop  offset="0.9754" style="stop-color:#FAE786"/>
					<stop  offset="1" style="stop-color:#FDEE91"/>
				</linearGradient>
				<rect x="6" y="21.44" class="st5" width="2.45" height="2.81"/>
			</g>
		</g>
	</g>
	<g>
		<g>
			<g>
				<defs>
					<path id="SVGID_19_" d="M5.43,27.94c-0.03-0.13-0.06-0.25-0.09-0.38c0.12-0.03,0.22-0.05,0.34-0.08
						c0.03,0.12,0.06,0.22,0.09,0.33C5.65,27.86,5.55,27.9,5.43,27.94 M4.57,27.1c0.02,0.03,0.04,0.07,0.07,0.1
						c0.11,0.14,0.18,0.28,0.08,0.47c0.19,0.15,0.35,0.1,0.52-0.06c0.04,0.11,0.03,0.22,0.05,0.34c-0.19-0.02-0.36,0.01-0.46,0.25
						c0.01,0.01,0.04,0.02,0.05,0.03c0.08,0.07,0.1,0.17,0.08,0.28c-0.01,0.07-0.03,0.14-0.04,0.21c-0.01,0.06-0.01,0.12-0.02,0.21
						c0.06-0.03,0.1-0.05,0.14-0.08s0.08-0.08,0.12-0.11c0.14-0.13,0.18-0.14,0.36-0.08c0.19-0.21,0.06-0.4-0.04-0.61
						c0.11-0.02,0.2-0.05,0.31-0.07c-0.01,0.08-0.02,0.14-0.02,0.21c0,0.11,0.03,0.21,0.1,0.28c0.06,0.06,0.12,0.06,0.18-0.01
						C6.1,28.4,6.14,28.39,6.2,28.4c0.09,0.01,0.19,0.03,0.28,0.05c0.05,0.01,0.09,0.01,0.17,0.02c-0.04-0.06-0.06-0.1-0.08-0.13
						c-0.05-0.08-0.1-0.16-0.15-0.25c-0.05-0.08-0.07-0.16-0.03-0.25s0-0.16-0.08-0.16s-0.16,0.02-0.24,0.03
						c-0.06,0.01-0.11,0.03-0.18,0.05c-0.02-0.1-0.03-0.18-0.04-0.27c0.09-0.01,0.17-0.02,0.26-0.04c0.09-0.03,0.15-0.1,0.2-0.2
						c-0.02-0.02-0.03-0.04-0.04-0.05c-0.09-0.08-0.11-0.18-0.09-0.31c0.01-0.08,0.03-0.16,0.04-0.24c0.01-0.05,0.01-0.1,0.01-0.17
						c-0.04,0.02-0.06,0.03-0.08,0.05c-0.09,0.07-0.17,0.14-0.26,0.22c-0.06,0.05-0.12,0.07-0.19,0.04
						c-0.08-0.04-0.14,0.02-0.14,0.11c0.01,0.15,0.02,0.3,0.04,0.46c-0.08,0.02-0.15,0.04-0.25,0.06c0.04-0.24,0.01-0.44-0.19-0.57
						c-0.02,0.03-0.05,0.06-0.07,0.1c-0.04,0.06-0.08,0.08-0.14,0.06c-0.13-0.03-0.25-0.04-0.38-0.06c-0.02,0-0.03,0-0.06,0
						C4.53,27.01,4.55,27.06,4.57,27.1"/>
				</defs>
				<clipPath id="SVGID_20_">
					<use xlink:href="#SVGID_19_"  style="overflow:visible;"/>
				</clipPath>
				
					<linearGradient id="SVGID_21_" gradientUnits="userSpaceOnUse" x1="-1345.1504" y1="278.0236" x2="-1345.0129" y2="278.0236" gradientTransform="matrix(-91.2905 0 0 -91.2905 -122789.2344 25408.623)">
					<stop  offset="0" style="stop-color:#B05105"/>
					<stop  offset="0.1495" style="stop-color:#B05105"/>
					<stop  offset="0.4059" style="stop-color:#C37015"/>
					<stop  offset="0.7131" style="stop-color:#DEA030"/>
					<stop  offset="0.7976" style="stop-color:#E6B446"/>
					<stop  offset="0.9754" style="stop-color:#FAE786"/>
					<stop  offset="1" style="stop-color:#FDEE91"/>
				</linearGradient>
				<rect x="4.5" y="26.48" class="st6" width="2.15" height="2.46"/>
			</g>
		</g>
	</g>
	<g>
		<g>
			<g>
				<defs>
					<path id="SVGID_22_" d="M2.16,31.55c0.01-0.13,0-0.26,0.03-0.39c0.11,0.01,0.22,0.03,0.32,0.04v0.34L2.16,31.55L2.16,31.55z
						 M1.55,32.3c0.04-0.01,0.08-0.03,0.11-0.05c0.14-0.08,0.27-0.11,0.39,0.03c0.15-0.1,0.19-0.19,0.17-0.36
						c-0.01-0.07-0.02-0.14-0.04-0.24c0.11,0.01,0.21,0.02,0.31,0.04c-0.02,0.06-0.04,0.1-0.05,0.14c-0.04,0.11-0.05,0.21,0,0.32
						c0.04,0.11,0.1,0.13,0.2,0.08c0.06-0.03,0.11-0.02,0.16,0.01c0.1,0.05,0.19,0.11,0.29,0.16c0.03,0.02,0.06,0.03,0.1,0.05
						c-0.02-0.07-0.03-0.13-0.05-0.18c-0.03-0.1-0.05-0.2-0.08-0.3c-0.02-0.08-0.01-0.14,0.04-0.2c0.07-0.1,0.05-0.17-0.06-0.21
						c-0.06-0.02-0.12-0.03-0.18-0.03s-0.12-0.01-0.18-0.02c-0.01,0-0.01-0.01-0.03-0.02c0.01-0.08,0.02-0.17,0.03-0.27
						c0.18,0.09,0.34,0.1,0.49-0.06c-0.01-0.02-0.01-0.03-0.02-0.05c-0.07-0.12-0.06-0.24-0.01-0.36c0.03-0.06,0.06-0.11,0.08-0.17
						c0.02-0.05,0.04-0.11,0.06-0.18c-0.04,0.01-0.07,0.01-0.09,0.02c-0.1,0.04-0.2,0.08-0.31,0.12c-0.06,0.02-0.12,0.02-0.18-0.03
						c-0.08-0.07-0.15-0.04-0.18,0.07c-0.02,0.1-0.04,0.21-0.05,0.31C2.46,30.96,2.45,31,2.45,31.05c-0.08-0.01-0.15-0.02-0.23-0.03
						c0.02-0.11,0.05-0.21,0.06-0.31c0.01-0.11-0.04-0.21-0.12-0.3c-0.06,0.04-0.11,0.08-0.17,0.12c-0.15-0.08-0.31-0.16-0.48-0.26
						c0.01,0.07,0.02,0.11,0.02,0.15c0.01,0.05,0.03,0.09,0.05,0.14c0.07,0.17,0.1,0.33-0.05,0.47c0.15,0.2,0.31,0.22,0.52,0.11
						C2.03,31.26,2.02,31.37,2,31.48c-0.12-0.05-0.23-0.1-0.34-0.05c-0.05,0.02-0.1,0.07-0.15,0.1c0.01,0.03,0.02,0.05,0.02,0.06
						c0.07,0.12,0.06,0.23,0,0.35c-0.03,0.05-0.06,0.11-0.09,0.16c-0.02,0.05-0.04,0.11-0.07,0.19C1.47,32.31,1.51,32.31,1.55,32.3"
						/>
				</defs>
				<clipPath id="SVGID_23_">
					<use xlink:href="#SVGID_22_"  style="overflow:visible;"/>
				</clipPath>
				
					<linearGradient id="SVGID_24_" gradientUnits="userSpaceOnUse" x1="-1345.1504" y1="278.2765" x2="-1345.0129" y2="278.2765" gradientTransform="matrix(-91.2905 0 0 -91.2905 -122789.2344 25435.3828)">
					<stop  offset="0" style="stop-color:#B05105"/>
					<stop  offset="0.1495" style="stop-color:#B05105"/>
					<stop  offset="0.4059" style="stop-color:#C37015"/>
					<stop  offset="0.7131" style="stop-color:#DEA030"/>
					<stop  offset="0.7976" style="stop-color:#E6B446"/>
					<stop  offset="0.9754" style="stop-color:#FAE786"/>
					<stop  offset="1" style="stop-color:#FDEE91"/>
				</linearGradient>
				<rect x="1.4" y="30.29" class="st7" width="1.9" height="2.19"/>
			</g>
		</g>
	</g>
	<g>
		<g>
			<g>
				<defs>
					<path id="SVGID_25_" d="M8.47,10.71c0.07-0.1,0.14-0.18,0.19-0.28c0.05-0.1,0.09-0.21,0.13-0.32c0.13,0.05,0.24,0.2,0.34,0.4
						C8.91,10.57,8.69,10.64,8.47,10.71 M8.48,11.09c-0.04-0.04-0.09-0.07-0.13-0.11c-0.04-0.03-0.08-0.06-0.12-0.1
						c0.1-0.07,0.86-0.3,0.97-0.29c0.09,0.25,0.14,0.51,0.09,0.78c-0.04,0.21-0.18,0.38-0.37,0.41c-0.01-0.11-0.02-0.22-0.03-0.32
						s-0.03-0.21-0.07-0.33c-0.08,0.22-0.15,0.42-0.25,0.62c-0.13-0.05-0.23-0.14-0.32-0.26c0.07-0.03,0.13-0.05,0.18-0.08
						c0.08-0.04,0.12-0.11,0.12-0.18C8.54,11.19,8.52,11.13,8.48,11.09 M8.66,8.62c-0.02,0.05-0.05,0.1-0.08,0.16
						C8.35,8.65,8.1,8.56,7.83,8.52c0-0.09,0-0.16,0-0.24c0-0.1,0.04-0.2,0.1-0.27C8.01,7.92,8.1,7.86,8.2,7.83
						c0.15-0.05,0.3-0.06,0.45-0.04c0.22,0.03,0.43,0.07,0.65,0.1c0.17,0.02,0.33,0.03,0.5-0.02c0.05-0.02,0.1-0.03,0.15-0.05
						C9.93,7.88,9.91,7.93,9.89,7.98C9.83,8.19,9.79,8.4,9.76,8.62C9.73,8.83,9.71,9.04,9.68,9.24C9.65,9.43,9.6,9.61,9.48,9.76
						C9.41,9.86,9.32,9.94,9.2,9.95C9.07,9.97,8.94,9.93,8.82,9.88C8.85,9.58,8.76,9.29,8.75,9c0.07-0.02,0.12-0.03,0.18-0.05
						c0.04,0.08,0.1,0.08,0.17,0.06C9.17,9,9.23,8.98,9.3,8.96c0.07-0.03,0.14-0.03,0.22,0c0.01,0.01,0.02,0.01,0.05,0.01
						C9.53,8.9,9.49,8.87,9.44,8.86c-0.07-0.02-0.13,0-0.2,0.02C9.2,8.89,9.15,8.91,9.11,8.91c-0.02,0-0.05-0.01-0.06-0.03
						C9.03,8.83,9.07,8.72,9.11,8.7c0.07-0.03,0.13-0.08,0.14-0.16S9.3,8.4,9.34,8.34C9.35,8.32,9.37,8.3,9.4,8.26
						C9.37,8.27,9.36,8.28,9.34,8.29C9.27,8.33,9.19,8.36,9.09,8.36c-0.03,0-0.07,0.02-0.11,0.05C8.96,8.42,8.95,8.45,8.93,8.48
						C8.9,8.52,8.82,8.54,8.79,8.52C8.75,8.49,8.77,8.45,8.78,8.41C8.79,8.35,8.81,8.3,8.83,8.24c0.02-0.05,0.03-0.1,0.04-0.16
						c0.01-0.06,0-0.11-0.07-0.15c0.02,0.09,0,0.16-0.02,0.23C8.75,8.24,8.72,8.31,8.7,8.39C8.67,8.45,8.66,8.51,8.67,8.57v0.01
						C8.67,8.6,8.67,8.61,8.66,8.62 M8.1,10.42c-0.03,0.1-0.06,0.19-0.09,0.29c-0.07,0-0.12-0.04-0.16-0.1
						c-0.06-0.1-0.07-0.2-0.04-0.31c0.06-0.21,0.21-0.33,0.4-0.36c0.17-0.03,0.33,0.03,0.48,0.12c-0.01,0.04-0.01,0.08-0.02,0.12
						c-0.05,0.17-0.13,0.3-0.24,0.43c-0.08,0.1-0.19,0.11-0.3,0.13C8.1,10.63,8.1,10.53,8.1,10.42L8.1,10.42z M7.68,9.42
						C7.77,9.3,7.83,9.18,7.84,9.04c0.01-0.09,0.01-0.18,0.01-0.28c0-0.04,0-0.09,0-0.13c0.03,0,0.06,0,0.09,0.01
						c0.09,0.03,0.19,0.06,0.28,0.1c0.12,0.05,0.23,0.1,0.34,0.15C8.6,8.91,8.62,8.93,8.62,8.98c0,0.03,0.01,0.07,0.01,0.1
						c0.02,0.16,0.05,0.31,0.08,0.47c0.01,0.1,0.02,0.2,0,0.31c-0.24-0.1-0.47-0.13-0.71,0c0.08-0.19,0.15-0.35,0.2-0.53
						C8.02,9.34,7.86,9.38,7.68,9.42 M8.34,12.06c-0.04,0.06-0.1,0.09-0.16,0.09c-0.19,0.01-0.36-0.06-0.49-0.22
						c-0.1-0.13-0.17-0.27-0.22-0.43c-0.08-0.23-0.09-0.48-0.08-0.72c0.01-0.16,0.04-0.31,0.09-0.45c0.01-0.02,0.02-0.05,0.04-0.06
						c0.06-0.03,0.12-0.04,0.18-0.06c-0.04,0.32,0.05,0.51,0.3,0.62c0.01,0.1,0.02,0.2,0.03,0.3c0.03,0.3,0.16,0.53,0.38,0.71
						l0.02,0.02c0.01,0.01,0.03,0.03,0.04,0.04C8.43,11.95,8.38,12,8.34,12.06 M7.31,8.59c-0.1,0.04-0.19,0.09-0.29,0.15
						C7.14,8.51,7.25,8.3,7.36,8.08c0.12,0.13,0.23,0.25,0.27,0.43C7.52,8.54,7.41,8.55,7.31,8.59 M7.48,9.44
						C7.37,9.53,7.24,9.55,7.1,9.52c-0.13-0.04-0.2-0.16-0.17-0.3C7.05,9.23,7.17,9.24,7.3,9.21C7.18,9.16,7.05,9.17,6.94,9.08
						C6.96,9.04,6.97,9,6.98,8.96C7.01,8.87,7.07,8.8,7.15,8.75C7.31,8.67,7.48,8.64,7.66,8.6c0.01,0.1,0.03,0.2,0.03,0.29
						c0,0.01,0,0.02,0,0.04C7.7,9.14,7.64,9.31,7.48,9.44 M6.82,8.97C6.79,8.91,6.77,8.85,6.75,8.8S6.71,8.69,6.69,8.64
						C6.62,8.52,6.5,8.5,6.41,8.59C6.39,8.61,6.37,8.63,6.36,8.66C6.33,8.7,6.3,8.75,6.27,8.8C6.17,8.69,6.1,8.51,6.11,8.4
						c0.17-0.06,0.34-0.08,0.53-0.11c-0.16-0.11-0.33-0.17-0.5-0.23c0-0.02,0-0.03,0-0.03c0.07-0.15,0.23-0.32,0.47-0.31
						c0.25,0.01,0.47,0.12,0.67,0.27L7.3,8.01C7.25,8.14,6.88,8.89,6.82,8.97 M7.18,9.84c0,0-0.02,0.01-0.04,0.01
						C6.93,9.88,6.73,9.87,6.52,9.81C6.22,9.72,5.96,9.56,5.76,9.3c-0.12-0.17-0.15-0.36-0.1-0.56C5.67,8.69,5.7,8.63,5.73,8.6
						C5.8,8.54,5.89,8.5,5.98,8.46c0.08,0.2,0.17,0.37,0.32,0.51C6.45,9.1,6.62,9.18,6.8,9.21C6.84,9.3,6.86,9.38,6.9,9.45
						S7,9.58,7.07,9.61s0.15,0.04,0.22,0.06C7.26,9.72,7.22,9.78,7.18,9.84 M5.6,9.37c0.16,0.23,0.37,0.4,0.62,0.51
						c0.3,0.13,0.6,0.18,0.92,0.11c0.01,0,0.02,0,0.04,0c0,0.04,0,0.08,0,0.13c-0.03,0-0.06,0.01-0.09,0.01
						c-0.1,0.01-0.2,0.03-0.28,0.1c-0.12,0.09-0.14,0.24-0.05,0.36c0.09,0.12,0.23,0.13,0.33,0.03c0.07-0.07,0.11-0.16,0.14-0.25
						c0.01-0.04,0.02-0.07,0.03-0.12c0.04,0.01,0.08,0.02,0.12,0.03c-0.04,0.13-0.08,0.25-0.1,0.37c-0.09,0.51-0.02,0.98,0.27,1.4
						c0.11,0.16,0.26,0.26,0.45,0.28c0.13,0.02,0.25-0.01,0.36-0.09c0.04-0.03,0.08-0.03,0.12-0.01c0.04,0.02,0.09,0.03,0.14,0.04
						c0.08,0.01,0.15-0.01,0.19-0.1s0.1-0.11,0.18-0.12c0.26-0.04,0.43-0.21,0.54-0.46c0.07-0.15,0.08-0.31,0.06-0.48
						c-0.02-0.14-0.05-0.29-0.07-0.43c-0.01-0.03-0.01-0.06-0.02-0.11c0.24,0.02,0.44,0.11,0.59,0.29c0.06,0.07,0.12,0.15,0.18,0.23
						c0.02,0.03,0.04,0.07,0.06,0.1l0.03-0.01c0-0.05,0-0.1,0-0.15c-0.01-0.17-0.02-0.34-0.03-0.52c0-0.03-0.01-0.06-0.02-0.08
						c-0.03-0.18-0.21-0.2-0.3-0.12c-0.04,0.03-0.06,0.07-0.09,0.11c-0.02,0.03-0.04,0.07-0.06,0.1H9.83
						c-0.1-0.04-0.21-0.05-0.31-0.05c-0.04,0-0.06-0.01-0.08-0.05c-0.02-0.04-0.05-0.08-0.07-0.13c0.06-0.02,0.11-0.03,0.16-0.06
						c0.19-0.1,0.31-0.26,0.36-0.48c0.03-0.13,0.05-0.27,0.05-0.4c0.01-0.16,0.01-0.31,0-0.47c0-0.13,0-0.27,0-0.4
						c0-0.2,0.02-0.39,0.08-0.59c0.07,0.02,0.13,0.03,0.2-0.02c0.06-0.05,0.08-0.11,0.07-0.2c0.14,0,0.21-0.11,0.28-0.21
						c0.06-0.1,0.12-0.2,0.18-0.31c-0.03,0.01-0.04,0.01-0.06,0.02c-0.12,0.05-0.24,0.11-0.37,0.16c-0.08,0.03-0.14,0.08-0.15,0.18
						c-0.07-0.01-0.14-0.02-0.2,0.03C9.92,7.58,9.9,7.64,9.91,7.72C9.85,7.75,9.79,7.74,9.74,7.74C9.56,7.73,9.38,7.69,9.21,7.65
						C8.96,7.59,8.72,7.53,8.48,7.48C8.35,7.45,8.23,7.45,8.11,7.47C7.94,7.5,7.8,7.59,7.69,7.74C7.66,7.78,7.64,7.83,7.61,7.88
						c-0.05-0.05-0.09-0.1-0.13-0.14C7.49,7.59,7.51,7.45,7.52,7.3c0.03-0.01,0.07-0.02,0.1-0.04c0.05-0.03,0.1-0.05,0.14-0.1
						c0.08-0.09,0.06-0.25-0.04-0.31c-0.08-0.04-0.17-0.07-0.25-0.1C7.33,6.7,7.18,6.67,7.03,6.64C7.04,6.66,7.05,6.68,7.06,6.7
						c0.05,0.08,0.11,0.15,0.17,0.23c0.14,0.2,0.21,0.42,0.18,0.68c0,0.02-0.01,0.04-0.01,0.07C7.37,7.66,7.34,7.64,7.32,7.62
						C7.17,7.52,7,7.43,6.82,7.4c-0.3-0.05-0.55,0.05-0.75,0.28C5.99,7.75,5.95,7.85,5.93,7.95C5.92,8,5.91,8.03,5.86,8.04
						C5.7,8.07,5.66,8.13,5.67,8.31c0,0.05,0.01,0.09,0.02,0.14L5.67,8.47c-0.13,0.12-0.19,0.3-0.19,0.48
						C5.48,9.1,5.52,9.25,5.6,9.37"/>
				</defs>
				<clipPath id="SVGID_26_">
					<use xlink:href="#SVGID_25_"  style="overflow:visible;"/>
				</clipPath>
				
					<linearGradient id="SVGID_27_" gradientUnits="userSpaceOnUse" x1="-1345.1504" y1="276.7708" x2="-1345.0129" y2="276.7708" gradientTransform="matrix(-91.2905 0 0 -91.2905 -122789.2344 25276.0254)">
					<stop  offset="0" style="stop-color:#B05105"/>
					<stop  offset="0.1495" style="stop-color:#B05105"/>
					<stop  offset="0.4059" style="stop-color:#C37015"/>
					<stop  offset="0.7131" style="stop-color:#DEA030"/>
					<stop  offset="0.7976" style="stop-color:#E6B446"/>
					<stop  offset="0.9754" style="stop-color:#FAE786"/>
					<stop  offset="1" style="stop-color:#FDEE91"/>
				</linearGradient>
				<rect x="5.48" y="6.64" class="st8" width="5.27" height="5.68"/>
			</g>
		</g>
	</g>
	<g>
		<g>
			<g>
				<defs>
					<path id="SVGID_28_" d="M0.45,2.32C0.49,2.44,0.51,2.56,0.5,2.69C0.49,2.77,0.48,2.85,0.45,2.92v0.53
						C0.5,3.47,0.56,3.49,0.61,3.52C0.56,3.6,0.5,3.67,0.45,3.75v0.12c0.12-0.16,0.23-0.29,0.27-0.32C0.92,3.7,1.1,3.87,1.21,4.12
						c0.08,0.2,0.05,0.42-0.08,0.57C1.07,4.61,1,4.53,0.93,4.46C0.87,4.38,0.8,4.3,0.7,4.24C0.76,4.47,0.8,4.68,0.83,4.9
						C0.7,4.93,0.58,4.92,0.45,4.89v0.1c0.1,0.03,0.2,0.06,0.31,0.06h0.02c0.02,0,0.03,0.01,0.06,0.01c0,0.08-0.01,0.15-0.01,0.22
						c0,0.07-0.03,0.13-0.08,0.18c-0.1,0.08-0.2,0.12-0.3,0.14v0.19C0.53,5.77,0.6,5.75,0.68,5.7c0.12-0.07,0.2-0.17,0.25-0.3
						c0.02-0.05,0.04-0.08,0.09-0.09C1.07,5.3,1.11,5.28,1.15,5.25c0.07-0.04,0.12-0.11,0.1-0.2C1.23,4.95,1.27,4.9,1.33,4.83
						c0.19-0.2,0.23-0.45,0.18-0.71c-0.02-0.16-0.09-0.3-0.2-0.42c-0.09-0.1-0.2-0.2-0.29-0.3C1,3.38,0.97,3.35,0.94,3.32
						c0.2-0.14,0.41-0.19,0.64-0.14C1.67,3.2,1.76,3.23,1.85,3.26c0.04,0.01,0.07,0.03,0.1,0.05l0.01-0.03
						C1.94,3.24,1.92,3.19,1.89,3.16c-0.1-0.13-0.2-0.27-0.3-0.4C1.57,2.73,1.55,2.72,1.53,2.7C1.41,2.57,1.25,2.67,1.22,2.79
						C1.21,2.84,1.21,2.89,1.2,2.93c0,0.04,0.01,0.08,0.01,0.12L1.19,3.07c-0.1,0.03-0.2,0.09-0.28,0.16
						c-0.03,0.02-0.06,0.03-0.1,0.01S0.73,3.21,0.68,3.19c0.04-0.05,0.07-0.1,0.1-0.15c0.1-0.2,0.11-0.41,0.03-0.61
						C0.77,2.3,0.71,2.18,0.64,2.07c-0.06-0.1-0.13-0.2-0.19-0.29V2.32L0.45,2.32z"/>
				</defs>
				<clipPath id="SVGID_29_">
					<use xlink:href="#SVGID_28_"  style="overflow:visible;"/>
				</clipPath>
				
					<linearGradient id="SVGID_30_" gradientUnits="userSpaceOnUse" x1="-1345.1504" y1="276.379" x2="-1345.0129" y2="276.379" gradientTransform="matrix(-91.2905 0 0 -91.2905 -122789.2344 25234.5645)">
					<stop  offset="0" style="stop-color:#B05105"/>
					<stop  offset="0.1495" style="stop-color:#B05105"/>
					<stop  offset="0.4059" style="stop-color:#C37015"/>
					<stop  offset="0.7131" style="stop-color:#DEA030"/>
					<stop  offset="0.7976" style="stop-color:#E6B446"/>
					<stop  offset="0.9754" style="stop-color:#FAE786"/>
					<stop  offset="1" style="stop-color:#FDEE91"/>
				</linearGradient>
				<rect x="0.45" y="1.78" class="st9" width="1.52" height="4.01"/>
			</g>
		</g>
	</g>
	<g>
		<g>
			<g>
				<defs>
					<path id="SVGID_31_" d="M4.65,6.84c0.04-0.12,0.09-0.22,0.11-0.33s0.02-0.23,0.03-0.34c0.13,0.01,0.29,0.11,0.43,0.27
						C5.03,6.57,4.84,6.7,4.65,6.84 M4.77,7.2c-0.05-0.03-0.1-0.04-0.16-0.06C4.56,7.12,4.52,7.1,4.47,7.08
						c0.07-0.1,0.73-0.56,0.84-0.59c0.15,0.21,0.27,0.44,0.3,0.72c0.02,0.21-0.07,0.42-0.24,0.52c-0.04-0.1-0.08-0.2-0.12-0.29
						c-0.04-0.1-0.08-0.19-0.16-0.29C5.08,7.38,5.06,7.59,5.02,7.81C4.88,7.8,4.77,7.75,4.65,7.67C4.71,7.62,4.76,7.58,4.8,7.53
						c0.05-0.05,0.07-0.1,0.07-0.16C4.88,7.3,4.84,7.24,4.77,7.2 M4.58,6.75C4.54,6.87,4.43,6.91,4.33,6.97
						c-0.06-0.09-0.08-0.19-0.1-0.29H4.21c0,0.1-0.01,0.2-0.01,0.31c-0.07,0.02-0.13,0-0.18-0.05C3.94,6.87,3.9,6.77,3.9,6.66
						c0-0.23,0.11-0.38,0.29-0.48C4.34,6.1,4.51,6.1,4.68,6.14c0,0.04,0.01,0.08,0.01,0.12c0,0.01,0,0.01,0,0.02
						C4.69,6.44,4.64,6.6,4.58,6.75 M4.91,8.17C4.88,8.24,4.84,8.28,4.77,8.31C4.59,8.39,4.42,8.37,4.25,8.26
						c-0.13-0.09-0.24-0.2-0.33-0.34C3.79,7.73,3.7,7.5,3.65,7.26C3.61,7.11,3.6,6.96,3.61,6.8c0-0.02,0-0.06,0.02-0.07
						c0.05-0.04,0.1-0.08,0.15-0.12C3.83,6.94,3.97,7.09,4.24,7.1c0.04,0.1,0.07,0.19,0.11,0.28c0.11,0.27,0.3,0.45,0.56,0.55
						l0.02,0.01c0.02,0.01,0.03,0.02,0.05,0.03C4.95,8.04,4.93,8.1,4.91,8.17 M3.59,5.45C3.57,5.32,3.52,5.2,3.48,5.06
						c0.03-0.01,0.06-0.02,0.09-0.02c0.1,0,0.2-0.01,0.29-0.01c0.12,0.01,0.25,0.02,0.37,0.04c0.04,0,0.07,0.02,0.08,0.07
						C4.32,5.17,4.34,5.2,4.35,5.23c0.07,0.14,0.14,0.28,0.2,0.42c0.04,0.09,0.07,0.18,0.09,0.3C4.4,5.94,4.17,5.98,3.97,6.18
						c0.02-0.2,0.05-0.38,0.04-0.57C3.84,5.68,3.7,5.77,3.54,5.87C3.57,5.76,3.6,5.66,3.6,5.57C3.6,5.53,3.6,5.49,3.59,5.45
						 M4.26,4.79C4.25,4.84,4.24,4.9,4.22,4.96c-0.26-0.05-0.52-0.05-0.79,0C3.41,4.88,3.39,4.8,3.37,4.73
						c-0.03-0.1-0.02-0.2,0.02-0.29c0.05-0.11,0.12-0.19,0.2-0.26C3.73,4.08,3.87,4.02,4.02,4c0.22-0.04,0.43-0.08,0.65-0.12
						C4.83,3.84,4.99,3.79,5.14,3.7c0.04-0.03,0.08-0.06,0.13-0.1c0,0.06-0.01,0.12-0.01,0.18c0,0.22,0.02,0.44,0.05,0.65
						c0.03,0.2,0.06,0.41,0.09,0.62c0.03,0.19,0.02,0.38-0.04,0.56C5.31,5.72,5.25,5.82,5.14,5.88C5.02,5.94,4.89,5.94,4.76,5.94
						c-0.05-0.3-0.22-0.55-0.31-0.82c0.06-0.04,0.11-0.07,0.16-0.1c0.06,0.06,0.12,0.05,0.18,0.01C4.85,4.98,4.91,4.94,4.96,4.9
						c0.06-0.05,0.13-0.08,0.21-0.07c0.01,0,0.03,0,0.05,0c-0.05-0.06-0.1-0.07-0.15-0.07C5,4.77,4.94,4.8,4.88,4.84
						C4.85,4.87,4.81,4.9,4.77,4.91c-0.02,0.01-0.05,0-0.06-0.01c-0.05-0.03-0.04-0.15,0-0.19c0.05-0.05,0.1-0.12,0.09-0.2
						c-0.01-0.08,0-0.14,0.03-0.21c0.01-0.02,0.02-0.05,0.03-0.1C4.83,4.23,4.83,4.24,4.82,4.24C4.75,4.31,4.69,4.37,4.6,4.39
						C4.56,4.4,4.53,4.44,4.51,4.47C4.49,4.5,4.48,4.53,4.47,4.57C4.46,4.61,4.39,4.66,4.35,4.65C4.3,4.63,4.31,4.59,4.31,4.55
						c0-0.06,0-0.12,0-0.18c0-0.05,0-0.11-0.01-0.16c0-0.06-0.03-0.11-0.11-0.13c0.04,0.08,0.05,0.16,0.04,0.23
						c0,0.08,0,0.16-0.01,0.24c0,0.06,0,0.13,0.03,0.18c0,0.01,0.01,0.02,0.01,0.03C4.26,4.78,4.26,4.78,4.26,4.79 M2.75,5.79
						c0-0.05,0.01-0.09,0.01-0.13c0-0.1,0.04-0.18,0.1-0.25C2.98,5.27,3.13,5.2,3.3,5.1c0.04,0.09,0.09,0.18,0.11,0.27
						c0.07,0.2,0.07,0.41-0.06,0.59c-0.08,0.13-0.2,0.19-0.34,0.19C2.89,6.16,2.79,6.06,2.78,5.92c0.11-0.03,0.23-0.06,0.35-0.13
						C2.99,5.79,2.87,5.84,2.75,5.79 M2.96,5.2C2.88,5.26,2.81,5.35,2.73,5.43C2.77,5.18,2.82,4.94,2.86,4.7
						c0.15,0.09,0.29,0.16,0.38,0.32C3.14,5.08,3.05,5.13,2.96,5.2 M1.7,5.07c0-0.02-0.01-0.03-0.01-0.03
						c0.03-0.17,0.13-0.38,0.36-0.45C2.3,4.52,2.54,4.55,2.77,4.63l0.01,0.01c0,0.15-0.15,0.98-0.18,1.08
						C2.56,5.67,2.52,5.63,2.48,5.58c-0.03-0.04-0.07-0.09-0.1-0.13C2.29,5.35,2.16,5.37,2.1,5.49C2.08,5.51,2.08,5.54,2.07,5.57
						C2.05,5.62,2.04,5.68,2.02,5.73C1.9,5.66,1.79,5.51,1.76,5.4C1.9,5.29,2.07,5.21,2.24,5.12C2.05,5.07,1.88,5.07,1.7,5.07
						 M3.18,6.44c0,0-0.02,0.01-0.03,0.02c-0.19,0.1-0.39,0.15-0.6,0.16c-0.31,0.02-0.6-0.05-0.87-0.24
						c-0.16-0.12-0.25-0.29-0.26-0.5c0-0.05,0.01-0.11,0.03-0.15c0.05-0.08,0.12-0.14,0.2-0.21c0.13,0.16,0.26,0.3,0.44,0.38
						S2.45,6,2.63,5.96C2.7,6.03,2.75,6.09,2.8,6.15c0.06,0.06,0.13,0.09,0.21,0.1c0.08,0,0.15-0.01,0.23-0.02
						C3.22,6.29,3.2,6.36,3.18,6.44 M1.54,6.5C1.76,6.67,2,6.76,2.27,6.78C2.59,6.8,2.9,6.75,3.18,6.58c0.01,0,0.02,0,0.04-0.01
						C3.23,6.61,3.24,6.65,3.26,6.7C3.23,6.71,3.2,6.72,3.17,6.73c-0.09,0.04-0.18,0.1-0.24,0.19C2.84,7.04,2.86,7.19,2.98,7.28
						C3.09,7.36,3.23,7.33,3.3,7.19C3.35,7.1,3.37,7.01,3.37,6.9c0-0.04,0-0.07,0-0.12c0.04,0,0.08-0.01,0.12-0.01
						c0,0.04,0,0.08,0,0.13c0,0.09,0,0.17,0.01,0.26C3.55,7.66,3.74,8.1,4.14,8.4c0.15,0.12,0.32,0.16,0.5,0.12
						c0.13-0.03,0.24-0.09,0.32-0.2C5,8.27,5.03,8.26,5.08,8.27c0.05,0.01,0.09,0,0.14-0.01C5.3,8.24,5.37,8.2,5.38,8.11
						c0.01-0.1,0.06-0.14,0.14-0.18C5.75,7.81,5.87,7.59,5.9,7.32c0.02-0.17-0.01-0.33-0.08-0.48C5.76,6.71,5.7,6.58,5.64,6.45
						C5.62,6.42,5.61,6.4,5.59,6.35c0.23-0.06,0.45-0.04,0.65,0.08C6.32,6.49,6.39,6.55,6.47,6.6C6.5,6.63,6.53,6.66,6.55,6.68
						l0.02-0.02C6.56,6.61,6.55,6.57,6.54,6.52C6.48,6.36,6.43,6.2,6.37,6.04C6.36,6.01,6.35,5.99,6.33,5.96
						C6.25,5.81,6.08,5.84,6.01,5.95C5.98,5.98,5.97,6.03,5.95,6.08C5.94,6.11,5.93,6.15,5.92,6.2H5.9c-0.11,0-0.21,0.02-0.32,0.05
						C5.55,6.27,5.52,6.26,5.49,6.23s-0.07-0.06-0.1-0.1c0.05-0.04,0.1-0.07,0.14-0.11c0.15-0.15,0.22-0.35,0.21-0.57
						C5.72,5.33,5.7,5.19,5.67,5.06C5.6,4.78,5.51,4.51,5.44,4.23c-0.06-0.19-0.1-0.38-0.09-0.59c0.07,0,0.14-0.02,0.18-0.08
						s0.04-0.13,0.01-0.21c0.14-0.04,0.17-0.17,0.2-0.29C5.78,2.94,5.8,2.82,5.83,2.7C5.81,2.71,5.79,2.72,5.78,2.73
						C5.68,2.82,5.58,2.91,5.47,3C5.41,3.06,5.36,3.12,5.38,3.22C5.31,3.23,5.24,3.24,5.2,3.31s-0.04,0.13,0,0.21
						C5.15,3.56,5.1,3.57,5.04,3.59C4.86,3.64,4.69,3.67,4.51,3.68c-0.25,0.03-0.5,0.05-0.75,0.08C3.64,3.77,3.52,3.81,3.41,3.87
						C3.25,3.96,3.14,4.08,3.09,4.26c-0.02,0.05-0.02,0.1-0.04,0.17C2.99,4.4,2.94,4.36,2.88,4.33C2.85,4.19,2.83,4.05,2.8,3.9
						c0.02-0.02,0.06-0.04,0.09-0.07c0.04-0.04,0.08-0.09,0.1-0.14c0.05-0.12-0.01-0.26-0.13-0.28C2.78,3.4,2.69,3.39,2.6,3.39
						c-0.15,0-0.29,0.02-0.45,0.04C2.17,3.45,2.18,3.46,2.2,3.47c0.07,0.05,0.15,0.11,0.22,0.16c0.19,0.15,0.31,0.34,0.36,0.59
						c0,0.02,0,0.04,0.01,0.07c-0.03,0-0.06-0.01-0.09-0.02C2.52,4.22,2.34,4.19,2.16,4.22c-0.3,0.05-0.51,0.23-0.64,0.51
						c-0.05,0.1-0.06,0.2-0.05,0.31c0.01,0.05,0,0.08-0.05,0.1C1.28,5.23,1.26,5.3,1.32,5.46C1.33,5.5,1.35,5.54,1.37,5.59
						L1.36,5.62c-0.05,0.09-0.08,0.2-0.08,0.31C1.28,6.15,1.38,6.37,1.54,6.5"/>
				</defs>
				<clipPath id="SVGID_32_">
					<use xlink:href="#SVGID_31_"  style="overflow:visible;"/>
				</clipPath>
				
					<linearGradient id="SVGID_33_" gradientUnits="userSpaceOnUse" x1="-1345.1504" y1="276.5051" x2="-1345.0129" y2="276.5051" gradientTransform="matrix(-91.2905 0 0 -91.2905 -122789.2344 25247.918)">
					<stop  offset="0" style="stop-color:#B05105"/>
					<stop  offset="0.1495" style="stop-color:#B05105"/>
					<stop  offset="0.4059" style="stop-color:#C37015"/>
					<stop  offset="0.7131" style="stop-color:#DEA030"/>
					<stop  offset="0.7976" style="stop-color:#E6B446"/>
					<stop  offset="0.9754" style="stop-color:#FAE786"/>
					<stop  offset="1" style="stop-color:#FDEE91"/>
				</linearGradient>
				<rect x="1.26" y="2.7" class="st10" width="5.31" height="5.86"/>
			</g>
		</g>
	</g>
	<g>
		<g>
			<g>
				<defs>
					<path id="SVGID_34_" d="M12.79,20.77c-0.19,0.18-0.37,0.37-0.55,0.56c-0.09,0.09-0.18,0.17-0.27,0.24s-0.2,0.12-0.31,0.14
						c-0.18,0.04-0.34,0-0.47-0.16c-0.05-0.07-0.1-0.13-0.15-0.2c0.21-0.23,0.32-0.53,0.48-0.79c0.06,0.03,0.12,0.06,0.18,0.09
						c-0.02,0.09,0.04,0.14,0.1,0.18c0.06,0.03,0.13,0.06,0.19,0.09c0.08,0.03,0.14,0.08,0.19,0.16c0.01,0.01,0.02,0.02,0.03,0.04
						c0.01-0.11-0.03-0.18-0.09-0.23c-0.05-0.04-0.11-0.06-0.16-0.09c-0.03-0.02-0.07-0.03-0.1-0.05c-0.01-0.01-0.03-0.05-0.02-0.06
						c0.03-0.04,0.06-0.07,0.09-0.1c0.02-0.02,0.05-0.01,0.07,0c0.08,0.02,0.15,0.02,0.21-0.04c0.05-0.05,0.11-0.08,0.18-0.09
						c0.03-0.01,0.05-0.02,0.08-0.02c-0.02-0.02-0.03-0.02-0.04-0.02c-0.08-0.02-0.16-0.05-0.23-0.12
						c-0.05-0.05-0.11-0.05-0.17-0.04c-0.02,0-0.03,0.01-0.05,0.02c-0.04,0.01-0.12-0.03-0.14-0.07c-0.02-0.05,0.03-0.08,0.06-0.1
						c0.06-0.04,0.12-0.08,0.18-0.12c0.04-0.03,0.08-0.06,0.12-0.1c0.04-0.05,0.04-0.09,0.01-0.15c-0.02,0.07-0.06,0.11-0.12,0.15
						c-0.07,0.05-0.15,0.09-0.22,0.14c-0.06,0.04-0.12,0.08-0.14,0.15l-0.03,0.03c-0.05,0.02-0.11,0.05-0.16,0.07
						c-0.12-0.27-0.26-0.52-0.47-0.74c0.04-0.06,0.08-0.11,0.12-0.16c0.13-0.18,0.29-0.22,0.49-0.18c0.2,0.04,0.37,0.16,0.51,0.32
						c0.17,0.18,0.33,0.37,0.49,0.56c0.16,0.17,0.33,0.32,0.55,0.38l0.01,0.02C13.06,20.52,12.92,20.64,12.79,20.77 M10.39,20.13
						c0.29-0.06,0.46-0.27,0.6-0.54c0.04,0.05,0.06,0.07,0.08,0.1c0.1,0.16,0.2,0.33,0.3,0.49c0.03,0.05,0.05,0.1,0.07,0.15
						c0.02,0.03,0.01,0.06-0.01,0.09c-0.07,0.13-0.13,0.27-0.2,0.41c-0.06,0.11-0.13,0.21-0.19,0.32c-0.02,0.03-0.04,0.05-0.07,0.07
						c-0.06-0.08-0.1-0.16-0.16-0.22c-0.06-0.07-0.12-0.13-0.19-0.17c-0.07-0.05-0.15-0.08-0.23-0.12c0.17-0.09,0.32-0.18,0.48-0.29
						C10.72,20.33,10.56,20.24,10.39,20.13 M11.46,13.74c-0.02,0.09-0.06,0.15-0.12,0.2c-0.05,0.05-0.11,0.11-0.16,0.16
						c-0.04,0.04-0.08,0.09-0.1,0.16c0,0.01-0.02,0.03-0.03,0.04c-0.04,0.03-0.09,0.06-0.13,0.1c-0.16-0.23-0.34-0.42-0.57-0.59
						c0.03-0.08,0.07-0.15,0.1-0.21c0.04-0.09,0.11-0.16,0.2-0.2c0.1-0.04,0.21-0.05,0.31-0.03c0.15,0.02,0.29,0.09,0.42,0.18
						c0.18,0.13,0.36,0.27,0.55,0.4c0.14,0.1,0.29,0.18,0.45,0.22c0.05,0.01,0.1,0.02,0.15,0.03c-0.04,0.04-0.08,0.08-0.12,0.12
						c-0.14,0.16-0.26,0.33-0.37,0.51c-0.11,0.17-0.21,0.35-0.33,0.52c-0.1,0.16-0.22,0.29-0.39,0.37
						c-0.11,0.05-0.22,0.08-0.33,0.04c-0.13-0.05-0.22-0.14-0.31-0.24c0.16-0.26,0.19-0.56,0.3-0.83c0.07,0.02,0.12,0.03,0.18,0.04
						c0,0.09,0.06,0.12,0.13,0.14s0.13,0.03,0.2,0.04c0.08,0.01,0.14,0.04,0.2,0.1c0.01,0.01,0.02,0.02,0.04,0.03
						c0-0.07-0.03-0.12-0.07-0.15c-0.05-0.05-0.12-0.07-0.18-0.08c-0.04-0.01-0.09-0.02-0.13-0.03c-0.02-0.01-0.04-0.03-0.04-0.05
						c0-0.06,0.08-0.13,0.13-0.13c0.07,0,0.15-0.01,0.19-0.08c0.04-0.06,0.09-0.1,0.15-0.13c0.02-0.01,0.05-0.02,0.08-0.05
						c-0.03,0-0.04,0-0.06,0c-0.09,0-0.17-0.01-0.25-0.06c-0.03-0.02-0.08-0.01-0.11-0.01s-0.06,0.03-0.09,0.04
						c-0.04,0.02-0.12,0-0.14-0.03c-0.02-0.05,0.01-0.08,0.03-0.11c0.04-0.05,0.08-0.09,0.12-0.13c0.03-0.04,0.07-0.08,0.1-0.12
						c0.02-0.03,0.03-0.05,0.03-0.08C11.49,13.8,11.48,13.78,11.46,13.74 M11.52,17.45c-0.01,0.16,0,0.32-0.02,0.47
						c-0.02,0.2-0.11,0.38-0.24,0.53c-0.01,0.01-0.02,0.02-0.04,0.04L11.2,18.5c-0.02-0.07-0.05-0.14-0.07-0.21
						c-0.05-0.14-0.12-0.28-0.21-0.4c-0.17-0.21-0.37-0.32-0.6-0.34c0.11-0.03,0.22-0.09,0.32-0.18c0.12-0.1,0.2-0.24,0.25-0.4
						c0.04-0.14,0.07-0.28,0.11-0.42c0.01-0.03,0.02-0.06,0.03-0.1c0.21,0.13,0.35,0.31,0.42,0.55c0.03,0.1,0.05,0.2,0.06,0.29
						c0.01,0.04,0.01,0.08,0.01,0.12h0.01C11.53,17.42,11.52,17.43,11.52,17.45 M10.93,22.06c-0.22-0.1-0.44-0.19-0.66-0.31
						c0.24-0.01,0.43-0.13,0.61-0.27c0.05,0.1,0.07,0.2,0.07,0.32C10.95,21.89,10.94,21.98,10.93,22.06 M10.89,19.35
						c-0.1-0.05-0.2-0.12-0.3-0.16c-0.1-0.04-0.21-0.06-0.33-0.09c0.23-0.1,0.45-0.2,0.67-0.3c0.01,0.09,0.02,0.17,0.02,0.26
						C10.95,19.16,10.94,19.26,10.89,19.35 M10.04,16.08c0.1-0.06,0.2-0.1,0.29-0.16c0.09-0.06,0.16-0.15,0.24-0.23
						c0.09,0.11,0.14,0.3,0.14,0.52C10.49,16.17,10.27,16.13,10.04,16.08 M9.85,14.55c0.13-0.07,0.23-0.15,0.3-0.26
						c0.06-0.11,0.11-0.24,0.17-0.36c0.03,0.02,0.05,0.03,0.08,0.05c0.07,0.07,0.15,0.14,0.22,0.21c0.09,0.1,0.16,0.2,0.25,0.3
						c0.03,0.03,0.03,0.07,0.02,0.11c-0.01,0.03-0.02,0.07-0.03,0.1c-0.04,0.15-0.08,0.3-0.12,0.45c-0.03,0.09-0.06,0.19-0.13,0.28
						c-0.17-0.2-0.37-0.34-0.64-0.34c0.14-0.13,0.27-0.24,0.39-0.38C10.2,14.64,10.03,14.6,9.85,14.55 M9.88,21.44
						c-0.05-0.05-0.07-0.11-0.07-0.17c0-0.1,0.03-0.19,0.09-0.26c0.13-0.14,0.28-0.18,0.45-0.14c0.26,0.06,0.38,0.27,0.49,0.51
						c-0.03,0.03-0.05,0.05-0.08,0.07c-0.14,0.11-0.3,0.16-0.46,0.2c-0.13,0.03-0.23-0.04-0.34-0.11c0.06-0.09,0.11-0.17,0.16-0.26
						C10.03,21.31,9.96,21.38,9.88,21.44 M10.58,19.88c-0.1,0.09-0.21,0.13-0.34,0.14c-0.17,0-0.31-0.07-0.4-0.23
						c-0.07-0.12-0.05-0.25,0.05-0.34c0.09,0.09,0.19,0.18,0.3,0.24c-0.06-0.12-0.17-0.2-0.21-0.35c0.04-0.02,0.07-0.04,0.11-0.07
						c0.09-0.07,0.19-0.07,0.29-0.05c0.17,0.03,0.32,0.13,0.49,0.22C10.79,19.62,10.71,19.77,10.58,19.88 M9.71,22.69
						c-0.08-0.11-0.12-0.3-0.1-0.43c0.06,0.02,0.12,0.04,0.17,0.06c0.17,0.05,0.29-0.06,0.26-0.25c-0.01-0.06-0.03-0.13-0.05-0.19
						c-0.01-0.04-0.02-0.09-0.03-0.13l0.02-0.01c0.32,0.13,0.65,0.27,0.96,0.44c-0.05,0.18-0.11,0.34-0.2,0.48
						c-0.06,0.09-0.13,0.18-0.2,0.25c-0.13,0.13-0.29,0.16-0.46,0.11c-0.03-0.01-0.06-0.02-0.1-0.03c0.12-0.2,0.24-0.38,0.3-0.6
						C10.09,22.49,9.9,22.6,9.71,22.69 M9.85,18.55c-0.03,0-0.06,0.01-0.09,0.02c-0.05,0.02-0.1,0.03-0.16,0.05
						c-0.02-0.14,0.02-0.32,0.11-0.46c0.17,0.1,0.33,0.19,0.51,0.29c-0.07-0.2-0.17-0.37-0.28-0.53c0.01-0.01,0.02-0.02,0.03-0.02
						c0.19-0.09,0.38-0.08,0.55,0.06c0.05,0.04,0.1,0.1,0.14,0.15c0.13,0.16,0.21,0.34,0.27,0.54c0,0.02,0.01,0.03,0.01,0.05
						c-0.14,0.1-0.89,0.44-0.97,0.45c0.01-0.03,0.01-0.06,0.02-0.09c0.02-0.09,0.05-0.17,0.06-0.25c0-0.02,0.01-0.04,0.01-0.06
						C10.04,18.63,9.97,18.55,9.85,18.55 M10.17,13.71c-0.11-0.03-0.21-0.06-0.31-0.08c-0.1-0.02-0.2-0.01-0.32-0.01
						c0.19-0.15,0.38-0.29,0.56-0.43c0.04,0.13,0.08,0.26,0.08,0.39C10.19,13.63,10.18,13.67,10.17,13.71 M9.83,15.64
						c-0.07,0.07-0.13,0.14-0.2,0.22c-0.07-0.03-0.09-0.1-0.1-0.17c-0.01-0.11,0.02-0.22,0.09-0.3c0.14-0.16,0.32-0.19,0.51-0.13
						c0.17,0.05,0.28,0.18,0.39,0.34c-0.02,0.03-0.05,0.07-0.07,0.1c-0.11,0.13-0.24,0.21-0.39,0.28c-0.11,0.05-0.21,0.01-0.32-0.02
						c0.01-0.11,0.06-0.2,0.11-0.29L9.83,15.64z M9.69,17.06c-0.09-0.11-0.15-0.23-0.18-0.38c0.07,0.01,0.13,0.01,0.2,0.02
						c0.15,0.01,0.23-0.12,0.18-0.27c-0.02-0.06-0.05-0.11-0.07-0.16c-0.02-0.05-0.05-0.09-0.07-0.15c0.12-0.02,0.89,0.14,0.99,0.2
						c-0.02,0.27-0.08,0.52-0.23,0.74c-0.12,0.17-0.32,0.25-0.5,0.19c0.03-0.1,0.07-0.2,0.1-0.3c0.03-0.1,0.06-0.2,0.07-0.33
						C10.01,16.79,9.86,16.94,9.69,17.06 M10.08,14.09c-0.08,0.2-0.21,0.34-0.42,0.39C9.53,14.5,9.4,14.46,9.3,14.36
						c-0.1-0.09-0.12-0.24-0.03-0.35c0.1,0.06,0.21,0.13,0.34,0.17c-0.1-0.11-0.22-0.16-0.28-0.28c0.03-0.03,0.06-0.05,0.09-0.08
						c0.06-0.07,0.14-0.1,0.24-0.11c0.18-0.01,0.34,0.05,0.52,0.1C10.14,13.91,10.12,14,10.08,14.09 M9.35,22.79
						c-0.08,0.02-0.16,0-0.22-0.05c-0.11-0.09-0.19-0.21-0.22-0.35c-0.04-0.16-0.02-0.33,0.01-0.49c0.11-0.49,0.37-0.86,0.75-1.13
						c0.02-0.02,0.04-0.03,0.06-0.03c0.07,0.03,0.14,0.05,0.21,0.08c-0.11,0.09-0.18,0.2-0.2,0.34c-0.02,0.14,0,0.27,0.08,0.38
						C9.7,21.72,9.6,21.9,9.54,22.1c-0.06,0.21-0.01,0.42,0.03,0.64C9.48,22.76,9.42,22.77,9.35,22.79 M9.72,20.14
						c-0.01-0.01-0.03-0.02-0.06-0.03c-0.28-0.19-0.49-0.45-0.64-0.77c-0.09-0.2-0.14-0.42-0.14-0.65c0-0.22,0.08-0.39,0.23-0.53
						c0.05-0.05,0.11-0.08,0.17-0.08c0.09,0.01,0.19,0.03,0.28,0.06C9.43,18.59,9.5,19,9.79,19.34c-0.12,0.28-0.1,0.52,0.14,0.72
						C9.86,20.09,9.79,20.11,9.72,20.14 M9.38,17.23c-0.06,0.03-0.12,0.03-0.18,0.01c-0.18-0.08-0.3-0.22-0.35-0.43
						c-0.04-0.16-0.04-0.32-0.02-0.49c0.03-0.25,0.11-0.47,0.22-0.69c0.07-0.13,0.16-0.25,0.27-0.36c0.02-0.02,0.04-0.04,0.06-0.04
						c0.06,0,0.12,0.02,0.18,0.03c-0.17,0.27-0.16,0.49,0.02,0.7c-0.03,0.1-0.06,0.19-0.09,0.28c-0.09,0.28-0.07,0.55,0.05,0.81
						l0.01,0.02c0.01,0.02,0.01,0.04,0.02,0.06C9.5,17.18,9.44,17.2,9.38,17.23 M9.28,13.38c-0.01-0.14-0.11-0.22-0.23-0.18
						c-0.03,0-0.05,0.02-0.07,0.03c-0.05,0.03-0.09,0.05-0.14,0.08c-0.04-0.15-0.03-0.34,0.02-0.44c0.17,0.03,0.34,0.09,0.52,0.16
						c-0.1-0.18-0.22-0.31-0.36-0.44c0.01-0.02,0.01-0.02,0.02-0.03c0.13-0.1,0.33-0.18,0.54-0.05c0.22,0.13,0.38,0.33,0.49,0.57
						v0.02c-0.09,0.1-0.73,0.59-0.82,0.63c0-0.06,0-0.12,0-0.18c0-0.05,0.01-0.1,0.01-0.15C9.28,13.39,9.28,13.39,9.28,13.38
						 M9.23,14.69c0,0-0.02,0-0.04-0.01C9,14.61,8.82,14.5,8.66,14.35c-0.24-0.22-0.4-0.49-0.47-0.82
						c-0.04-0.21,0.01-0.39,0.13-0.55c0.03-0.04,0.08-0.07,0.12-0.09c0.09-0.02,0.18-0.01,0.28-0.01c-0.01,0.21,0,0.42,0.08,0.61
						s0.2,0.34,0.35,0.45c0,0.09-0.01,0.18-0.01,0.27c0.01,0.08,0.03,0.16,0.09,0.23c0.05,0.06,0.12,0.11,0.18,0.16
						C9.35,14.62,9.3,14.65,9.23,14.69 M8.01,13.51c0.05,0.29,0.17,0.54,0.35,0.75c0.21,0.25,0.47,0.45,0.78,0.54
						c0.01,0,0.02,0.01,0.04,0.02c-0.02,0.04-0.03,0.08-0.05,0.12c-0.03-0.01-0.06-0.02-0.09-0.03c-0.09-0.04-0.19-0.06-0.29-0.05
						c-0.14,0.02-0.22,0.15-0.2,0.3c0.03,0.15,0.15,0.23,0.29,0.18c0.09-0.04,0.16-0.1,0.23-0.17c0.02-0.03,0.05-0.05,0.08-0.09
						c0.03,0.03,0.06,0.05,0.09,0.08c-0.08,0.1-0.17,0.18-0.24,0.28c-0.28,0.41-0.42,0.87-0.32,1.39c0.04,0.2,0.13,0.35,0.29,0.46
						c0.11,0.08,0.23,0.11,0.36,0.09c0.05-0.01,0.08,0.01,0.12,0.05c0.03,0.04,0.07,0.07,0.11,0.1c0.07,0.05,0.14,0.06,0.21,0
						s0.13-0.05,0.21-0.02c0.04,0.02,0.08,0.02,0.12,0.03c-0.12,0.02-0.22,0.09-0.32,0.18c-0.03-0.02-0.07-0.03-0.1-0.05
						c-0.08-0.05-0.15-0.03-0.21,0.03c-0.04,0.05-0.08,0.1-0.11,0.16c-0.02,0.04-0.04,0.06-0.08,0.06C9,17.93,8.74,18.23,8.72,18.55
						c-0.02,0.28,0.03,0.54,0.14,0.79c0.17,0.37,0.41,0.67,0.74,0.86c0.01,0.01,0.02,0.02,0.04,0.03c-0.03,0.04-0.05,0.07-0.09,0.11
						c-0.03-0.02-0.05-0.04-0.08-0.06c-0.09-0.07-0.19-0.11-0.29-0.12c-0.11-0.01-0.21,0.05-0.25,0.16c-0.04,0.12,0,0.25,0.09,0.32
						c0.06,0.05,0.14,0.05,0.21,0.03c0.09-0.02,0.17-0.06,0.24-0.12c0.02-0.02,0.05-0.04,0.08-0.06c0.03,0.04,0.05,0.07,0.09,0.11
						c-0.03,0.02-0.05,0.04-0.08,0.05c-0.43,0.28-0.71,0.69-0.83,1.22c-0.03,0.16-0.04,0.33-0.01,0.5c0.06,0.3,0.27,0.51,0.55,0.55
						c0.05,0.01,0.08,0.02,0.09,0.07c0.01,0.03,0.03,0.06,0.05,0.09c0.08,0.11,0.16,0.14,0.28,0.09c0.06-0.03,0.11-0.02,0.17,0.02
						c0.2,0.15,0.42,0.15,0.64,0.07c0.18-0.06,0.32-0.19,0.42-0.37c0.08-0.15,0.15-0.3,0.23-0.45c0.01-0.03,0.03-0.05,0.04-0.09
						c0.02,0.02,0.04,0.03,0.05,0.05c0.17,0.19,0.26,0.41,0.27,0.67c0,0.06,0,0.13,0,0.19c0,0.04,0,0.08,0,0.12
						c0,0.02,0,0.05,0,0.08c0.02-0.02,0.03-0.03,0.04-0.04c0.11-0.16,0.22-0.33,0.33-0.49c0.02-0.04,0.04-0.08,0.06-0.12
						c0.04-0.08,0.04-0.15-0.01-0.22c-0.05-0.08-0.13-0.11-0.21-0.1c-0.07,0.01-0.14,0.04-0.2,0.06c-0.07-0.08-0.12-0.17-0.2-0.23
						c-0.08-0.07-0.1-0.14-0.08-0.24c0.01-0.02,0.01-0.05,0.01-0.07c0.28,0.15,0.54,0.1,0.78-0.1c0.08-0.07,0.16-0.15,0.23-0.24
						c0.16-0.2,0.31-0.41,0.46-0.61c0.12-0.16,0.24-0.32,0.39-0.45c0.04-0.04,0.09-0.07,0.13-0.11c0.07,0.15,0.24,0.18,0.36,0.02
						c0.09,0.08,0.19,0.07,0.29,0.04c0.12-0.04,0.24-0.09,0.36-0.13c0.01,0,0.02-0.01,0.04-0.02c-0.07-0.02-0.14-0.05-0.21-0.07
						c-0.08-0.03-0.17-0.05-0.25-0.08c-0.09-0.03-0.16-0.04-0.23,0.04c-0.05-0.07-0.1-0.12-0.18-0.12s-0.13,0.04-0.17,0.13
						c-0.04-0.03-0.09-0.07-0.13-0.1c-0.15-0.13-0.28-0.29-0.4-0.45c-0.16-0.21-0.31-0.42-0.47-0.63c-0.09-0.13-0.21-0.23-0.34-0.31
						c-0.16-0.1-0.32-0.13-0.5-0.08c-0.05,0.01-0.1,0.04-0.17,0.06c-0.01-0.06-0.02-0.13-0.02-0.2c0-0.01,0.01-0.03,0.03-0.04
						c0.1-0.09,0.19-0.18,0.25-0.31c0.04,0.02,0.08,0.03,0.12,0.05c0.06,0.02,0.11,0.04,0.17,0.02c0.13-0.03,0.2-0.16,0.15-0.3
						c-0.01-0.02-0.02-0.04-0.02-0.06c-0.1-0.21-0.24-0.39-0.39-0.59c0.02-0.04,0.04-0.08,0.06-0.13c0.06-0.16,0.12-0.32,0.18-0.48
						c0.01-0.03,0.01-0.05,0.02-0.08c0.04-0.17-0.11-0.28-0.22-0.26c-0.04,0.01-0.09,0.03-0.13,0.05c-0.03,0.02-0.06,0.04-0.09,0.07
						l-0.03-0.02c-0.07-0.08-0.16-0.14-0.26-0.2c-0.03-0.02-0.05-0.04-0.05-0.09S11,16.13,11,16.08c0.06,0.01,0.11,0.02,0.16,0.02
						c0.21,0,0.38-0.09,0.51-0.26c0.08-0.1,0.15-0.21,0.21-0.33c0.13-0.26,0.24-0.52,0.36-0.78c0.08-0.17,0.18-0.35,0.31-0.49
						c0.05,0.05,0.11,0.09,0.18,0.08c0.07-0.02,0.12-0.06,0.14-0.14c0.13,0.07,0.23,0.01,0.33-0.06c0.09-0.06,0.18-0.12,0.29-0.19
						c-0.03-0.01-0.04-0.01-0.06-0.01c-0.13-0.01-0.26-0.02-0.4-0.03c-0.08-0.01-0.15,0-0.2,0.09c-0.06-0.05-0.12-0.08-0.19-0.06
						c-0.07,0.02-0.11,0.07-0.13,0.15c-0.06-0.01-0.11-0.04-0.16-0.07c-0.16-0.09-0.3-0.21-0.44-0.33c-0.19-0.17-0.39-0.34-0.59-0.5
						c-0.1-0.08-0.21-0.14-0.33-0.18c-0.16-0.05-0.32-0.04-0.48,0.04c-0.04,0.02-0.08,0.06-0.13,0.09
						c-0.02-0.06-0.04-0.13-0.06-0.19c0.07-0.12,0.14-0.24,0.22-0.37c0.03,0,0.07,0.02,0.11,0.02c0.05,0,0.11,0,0.16-0.02
						c0.11-0.05,0.16-0.19,0.09-0.3c-0.05-0.08-0.11-0.15-0.18-0.22c-0.11-0.11-0.22-0.21-0.35-0.3c0,0.02,0,0.04,0.01,0.06
						c0.02,0.09,0.04,0.19,0.06,0.29c0.04,0.25,0.01,0.48-0.11,0.69c-0.01,0.02-0.02,0.03-0.04,0.06c-0.02-0.03-0.03-0.06-0.05-0.08
						c-0.1-0.17-0.21-0.33-0.36-0.44c-0.25-0.19-0.51-0.22-0.79-0.11C9,12.25,8.92,12.31,8.86,12.4c-0.03,0.04-0.05,0.05-0.1,0.04
						c-0.16-0.04-0.21-0.01-0.28,0.15c-0.02,0.04-0.03,0.09-0.04,0.13l-0.02,0.01c-0.25,0.07-0.43,0.35-0.43,0.65
						C8,13.43,8,13.47,8.01,13.51"/>
				</defs>
				<clipPath id="SVGID_35_">
					<use xlink:href="#SVGID_34_"  style="overflow:visible;"/>
				</clipPath>
				
					<linearGradient id="SVGID_36_" gradientUnits="userSpaceOnUse" x1="-1345.1504" y1="277.3304" x2="-1345.0129" y2="277.3304" gradientTransform="matrix(-91.2905 0 0 -91.2905 -122789.2344 25335.25)">
					<stop  offset="0" style="stop-color:#B05105"/>
					<stop  offset="0.1495" style="stop-color:#B05105"/>
					<stop  offset="0.4059" style="stop-color:#C37015"/>
					<stop  offset="0.7131" style="stop-color:#DEA030"/>
					<stop  offset="0.7976" style="stop-color:#E6B446"/>
					<stop  offset="0.9754" style="stop-color:#FAE786"/>
					<stop  offset="1" style="stop-color:#FDEE91"/>
				</linearGradient>
				<rect x="8" y="11.75" class="st11" width="6.3" height="11.75"/>
			</g>
		</g>
	</g>
	<g>
		<g>
			<g>
				<defs>
					<path id="SVGID_37_" d="M2.19,9.33V8.94c0.09-0.02,0.19-0.03,0.29-0.05c0.02,0.14,0.03,0.26,0.05,0.4
						C2.41,9.31,2.3,9.32,2.19,9.33 M1.55,8.51c0.04,0.1,0.09,0.19,0.01,0.31C1.53,8.87,1.57,8.96,1.65,8.97
						C1.73,8.98,1.81,8.99,1.9,9c0.04,0,0.09,0,0.15,0v0.29C1.86,9.2,1.68,9.21,1.55,9.41c0,0.01,0.01,0.02,0.01,0.03
						c0.11,0.1,0.11,0.22,0.05,0.36c-0.04,0.11-0.07,0.22-0.1,0.35c0.04-0.01,0.07,0,0.1-0.02c0.05-0.03,0.11-0.06,0.16-0.09
						c0.13-0.09,0.26-0.13,0.39,0C2.3,9.9,2.32,9.76,2.21,9.44C2.3,9.45,2.4,9.46,2.5,9.47C2.48,9.6,2.44,9.72,2.49,9.84
						C2.52,9.9,2.56,9.96,2.6,10.02C2.64,10,2.66,9.98,2.68,9.96C2.76,9.9,2.84,9.89,2.92,9.93c0.07,0.03,0.13,0.06,0.2,0.09
						c0.05,0.02,0.09,0.05,0.16,0.01c-0.02-0.05-0.04-0.1-0.05-0.15C3.21,9.84,3.19,9.8,3.17,9.77C3.09,9.63,3.06,9.48,3.16,9.33
						C3.01,9.08,2.82,9.19,2.63,9.27V8.91c0.05,0.02,0.1,0.03,0.16,0.05c0.1,0.03,0.19,0,0.27-0.07c0.06-0.06,0.07-0.12,0.02-0.2
						C3.03,8.62,3.04,8.56,3.06,8.48C3.1,8.34,3.15,8.19,3.2,8.02C3.14,8.04,3.1,8.06,3.06,8.08C2.98,8.12,2.9,8.16,2.82,8.2
						C2.75,8.24,2.68,8.25,2.61,8.19C2.53,8.13,2.46,8.16,2.44,8.28C2.43,8.36,2.43,8.44,2.43,8.52c0,0.07,0.01,0.14,0.01,0.21H2.19
						c0.07-0.22,0.04-0.41-0.12-0.56C1.96,8.33,1.83,8.32,1.69,8.25C1.6,8.2,1.52,8.15,1.4,8.16C1.46,8.28,1.5,8.4,1.55,8.51"/>
				</defs>
				<clipPath id="SVGID_38_">
					<use xlink:href="#SVGID_37_"  style="overflow:visible;"/>
				</clipPath>
				
					<linearGradient id="SVGID_39_" gradientUnits="userSpaceOnUse" x1="-1345.1504" y1="276.7437" x2="-1345.0129" y2="276.7437" gradientTransform="matrix(-91.2905 0 0 -91.2905 -122789.2344 25273.1641)">
					<stop  offset="0" style="stop-color:#B05105"/>
					<stop  offset="0.1495" style="stop-color:#B05105"/>
					<stop  offset="0.4059" style="stop-color:#C37015"/>
					<stop  offset="0.7131" style="stop-color:#DEA030"/>
					<stop  offset="0.7976" style="stop-color:#E6B446"/>
					<stop  offset="0.9754" style="stop-color:#FAE786"/>
					<stop  offset="1" style="stop-color:#FDEE91"/>
				</linearGradient>
				<rect x="1.4" y="8.02" class="st12" width="1.87" height="2.14"/>
			</g>
		</g>
	</g>
	<g>
		<g>
			<g>
				<defs>
					<path id="SVGID_40_" d="M0.45,34.51L0.45,34.51c0.19-0.05,0.36,0,0.51,0.13c0.05,0.05,0.08,0.11,0.08,0.18s0.01,0.14,0.01,0.22
						c-0.02,0-0.04,0.01-0.06,0.01H0.97c-0.2,0-0.37,0.06-0.52,0.17v0.47h0.01c0.05,0,0.11,0.01,0.17,0c0.15-0.02,0.2-0.16,0.13-0.3
						c-0.03-0.06-0.07-0.12-0.1-0.18c0.14-0.04,0.26-0.05,0.4-0.01c-0.02,0.22-0.07,0.43-0.13,0.66c0.1-0.07,0.16-0.14,0.23-0.22
						s0.13-0.16,0.2-0.24c0.13,0.15,0.16,0.38,0.08,0.57c-0.11,0.25-0.29,0.42-0.5,0.57c-0.06-0.05-0.32-0.38-0.49-0.62v0.11
						c0.13,0.18,0.26,0.36,0.38,0.53c-0.14,0.07-0.27,0.12-0.38,0.12v0.27c0.05,0.03,0.1,0.06,0.15,0.11
						c0.09,0.09,0.12,0.21,0.13,0.33c0.01,0.2-0.04,0.38-0.12,0.55c-0.05,0.1-0.1,0.21-0.15,0.31v0.39
						c0.14-0.21,0.28-0.42,0.41-0.63C0.94,37.9,1,37.78,1.04,37.65c0.07-0.19,0.06-0.4-0.04-0.6C0.98,37,0.94,36.96,0.9,36.9
						c0.04-0.02,0.09-0.04,0.13-0.06s0.06-0.01,0.09,0.01c0.09,0.07,0.18,0.12,0.28,0.16l0.02,0.02c0,0.04-0.01,0.08-0.01,0.12
						c0,0.05,0,0.1,0.02,0.14c0.03,0.12,0.19,0.22,0.31,0.09c0.02-0.02,0.04-0.04,0.06-0.06c0.1-0.13,0.2-0.27,0.3-0.4
						c0.03-0.04,0.05-0.08,0.08-0.12l-0.01-0.03c-0.03,0.02-0.07,0.03-0.1,0.05c-0.09,0.03-0.18,0.06-0.27,0.08
						c-0.23,0.05-0.43,0-0.64-0.14c0.03-0.03,0.05-0.05,0.07-0.08c0.1-0.1,0.2-0.2,0.29-0.3c0.11-0.12,0.18-0.26,0.21-0.43
						c0.05-0.27,0-0.52-0.18-0.71c-0.06-0.06-0.1-0.12-0.08-0.22c0.02-0.09-0.03-0.16-0.1-0.2c-0.04-0.02-0.09-0.05-0.13-0.06
						c-0.05-0.01-0.08-0.03-0.09-0.09c-0.05-0.13-0.13-0.23-0.25-0.3c-0.14-0.09-0.3-0.11-0.45-0.07L0.45,34.51L0.45,34.51z"/>
				</defs>
				<clipPath id="SVGID_41_">
					<use xlink:href="#SVGID_40_"  style="overflow:visible;"/>
				</clipPath>
				
					<linearGradient id="SVGID_42_" gradientUnits="userSpaceOnUse" x1="-1345.1504" y1="278.6273" x2="-1345.0129" y2="278.6273" gradientTransform="matrix(-91.2905 0 0 -91.2905 -122789.2344 25472.4902)">
					<stop  offset="0" style="stop-color:#B05105"/>
					<stop  offset="0.1495" style="stop-color:#B05105"/>
					<stop  offset="0.4059" style="stop-color:#C37015"/>
					<stop  offset="0.7131" style="stop-color:#DEA030"/>
					<stop  offset="0.7976" style="stop-color:#E6B446"/>
					<stop  offset="0.9754" style="stop-color:#FAE786"/>
					<stop  offset="1" style="stop-color:#FDEE91"/>
				</linearGradient>
				<rect x="0.45" y="34.29" class="st13" width="1.74" height="4.36"/>
			</g>
		</g>
	</g>
	<g>
		<g>
			<g>
				<defs>
					<path id="SVGID_43_" d="M5.31,34c-0.01-0.12-0.01-0.23-0.03-0.35c-0.02-0.11-0.07-0.21-0.11-0.33
						c0.19,0.14,0.38,0.27,0.57,0.41C5.6,33.89,5.45,33.99,5.31,34 M6.14,32.96c-0.03,0.27-0.15,0.5-0.31,0.71
						c-0.11-0.03-0.77-0.49-0.84-0.59c0.05-0.02,0.1-0.04,0.14-0.05c0.05-0.02,0.11-0.03,0.16-0.06c0.13-0.07,0.15-0.23,0.04-0.33
						c-0.05-0.05-0.1-0.09-0.15-0.14c0.12-0.08,0.24-0.13,0.37-0.14c0.04,0.22,0.06,0.43,0.07,0.67c0.07-0.1,0.11-0.19,0.16-0.29
						s0.08-0.19,0.12-0.29c0.15,0.09,0.24,0.26,0.24,0.45C6.14,32.92,6.14,32.94,6.14,32.96 M5.21,33.9c0,0.04-0.01,0.08-0.01,0.12
						c-0.17,0.03-0.34,0.04-0.49-0.05c-0.18-0.1-0.29-0.25-0.29-0.48c0-0.12,0.04-0.21,0.13-0.28c0.05-0.05,0.11-0.07,0.18-0.05
						c0,0.1,0.01,0.21,0.01,0.31h0.02c0.02-0.1,0.04-0.2,0.1-0.29c0.1,0.06,0.2,0.1,0.25,0.22c0.06,0.15,0.11,0.31,0.11,0.47
						C5.21,33.9,5.21,33.9,5.21,33.9 M5.45,32.23l-0.02,0.01c-0.26,0.1-0.45,0.28-0.56,0.55c-0.04,0.09-0.07,0.18-0.11,0.27
						c-0.27,0.02-0.41,0.17-0.46,0.49c-0.05-0.04-0.1-0.08-0.15-0.12c-0.01-0.01-0.02-0.05-0.02-0.07c-0.01-0.16,0-0.31,0.04-0.46
						c0.05-0.24,0.14-0.46,0.28-0.66c0.09-0.13,0.2-0.25,0.33-0.33c0.16-0.11,0.34-0.13,0.52-0.05c0.06,0.03,0.11,0.07,0.13,0.14
						c0.02,0.07,0.05,0.13,0.08,0.2C5.48,32.21,5.47,32.22,5.45,32.23 M5.09,34.51c-0.06,0.14-0.13,0.28-0.2,0.42
						c-0.02,0.03-0.03,0.06-0.04,0.09c-0.01,0.05-0.04,0.06-0.08,0.07c-0.12,0.01-0.25,0.03-0.37,0.03c-0.1,0.01-0.2,0-0.29-0.01
						c-0.03,0-0.06-0.01-0.09-0.02c0.04-0.13,0.08-0.26,0.11-0.39c0.02-0.13,0-0.27-0.05-0.41c0.16,0.1,0.31,0.19,0.47,0.26
						c0-0.19-0.02-0.37-0.04-0.57c0.2,0.2,0.43,0.24,0.68,0.23C5.16,34.33,5.13,34.42,5.09,34.51 M5.66,36.47
						c-0.14-0.1-0.3-0.15-0.47-0.18c-0.22-0.04-0.43-0.08-0.65-0.12c-0.15-0.03-0.29-0.09-0.42-0.18c-0.09-0.07-0.16-0.15-0.2-0.26
						c-0.04-0.09-0.05-0.19-0.02-0.29c0.02-0.07,0.04-0.15,0.06-0.23c0.27,0.05,0.53,0.05,0.79,0c0.01,0.06,0.02,0.12,0.03,0.17
						c0,0.02,0,0.03-0.01,0.05c-0.03,0.06-0.03,0.12-0.03,0.18c0,0.08,0.01,0.16,0.01,0.24c0.01,0.08,0,0.15-0.04,0.23
						c0.08-0.02,0.1-0.06,0.11-0.12c0.01-0.05,0.01-0.11,0.01-0.16c0-0.06-0.01-0.12,0-0.18c0-0.04,0-0.09,0.04-0.1
						C4.91,35.5,4.98,35.56,5,35.6c0.01,0.03,0.02,0.07,0.04,0.09c0.02,0.03,0.05,0.07,0.09,0.08c0.09,0.02,0.16,0.08,0.22,0.15
						c0.01,0.01,0.02,0.02,0.04,0.04c-0.02-0.05-0.02-0.07-0.03-0.1c-0.02-0.07-0.04-0.13-0.03-0.21c0.01-0.08-0.03-0.15-0.09-0.2
						c-0.04-0.04-0.05-0.15-0.01-0.19c0.01-0.01,0.05-0.02,0.06-0.01c0.04,0.02,0.08,0.05,0.12,0.07c0.06,0.04,0.11,0.07,0.18,0.08
						c0.05,0.01,0.1-0.01,0.15-0.05c-0.02,0-0.03-0.01-0.05,0c-0.08,0.01-0.14-0.03-0.21-0.07c-0.05-0.04-0.11-0.09-0.17-0.12
						c-0.06-0.04-0.13-0.06-0.18,0.01c-0.05-0.03-0.1-0.07-0.16-0.1c0.09-0.27,0.26-0.52,0.31-0.82c0.13,0,0.26,0,0.38,0.06
						c0.11,0.05,0.17,0.16,0.22,0.27c0.07,0.18,0.07,0.37,0.04,0.56c-0.03,0.21-0.06,0.41-0.09,0.62c-0.03,0.22-0.06,0.43-0.05,0.65
						c0,0.06,0.01,0.11,0.01,0.18C5.74,36.53,5.7,36.49,5.66,36.47 M3.94,34.8c-0.03,0.09-0.07,0.17-0.11,0.27
						c-0.16-0.1-0.32-0.17-0.44-0.31c-0.06-0.07-0.1-0.15-0.1-0.25c0-0.04-0.01-0.08-0.01-0.13c0.12-0.04,0.24,0.01,0.38,0
						c-0.12-0.07-0.24-0.1-0.35-0.13c0.01-0.14,0.11-0.23,0.24-0.23c0.14,0.01,0.25,0.07,0.34,0.19c0.07,0.11,0.1,0.22,0.1,0.33
						C3.98,34.62,3.97,34.71,3.94,34.8 M3.39,35.46c-0.05-0.24-0.09-0.48-0.14-0.73c0.09,0.09,0.16,0.17,0.24,0.23
						c0.08,0.07,0.18,0.12,0.28,0.18C3.67,35.3,3.53,35.38,3.39,35.46 M3.3,35.53c-0.24,0.08-0.47,0.11-0.72,0.04
						c-0.24-0.07-0.33-0.27-0.36-0.45c0-0.01,0-0.02,0.01-0.03c0.18,0.01,0.35,0,0.54-0.05c-0.17-0.09-0.33-0.17-0.48-0.28
						c0.03-0.11,0.14-0.25,0.26-0.33c0.02,0.05,0.03,0.11,0.05,0.16c0.01,0.03,0.01,0.06,0.03,0.08c0.07,0.12,0.19,0.14,0.28,0.04
						c0.04-0.04,0.07-0.09,0.1-0.13c0.04-0.04,0.07-0.09,0.11-0.13C3.16,34.55,3.3,35.38,3.3,35.53L3.3,35.53z M3.53,33.91
						c-0.08,0-0.15,0.04-0.21,0.1c-0.06,0.06-0.11,0.13-0.16,0.2c-0.18-0.03-0.36-0.01-0.54,0.06c-0.18,0.08-0.32,0.22-0.44,0.38
						c-0.07-0.07-0.15-0.13-0.19-0.21c-0.02-0.04-0.04-0.1-0.03-0.15c0.01-0.21,0.09-0.38,0.26-0.5c0.26-0.19,0.55-0.26,0.87-0.24
						c0.21,0.01,0.41,0.06,0.6,0.16c0.02,0.01,0.03,0.02,0.03,0.02c0.02,0.08,0.04,0.14,0.05,0.2C3.69,33.93,3.61,33.91,3.53,33.91
						 M1.89,34.54l0.01,0.03c-0.02,0.05-0.04,0.09-0.05,0.13c-0.05,0.16-0.03,0.23,0.1,0.32C1.99,35.05,2,35.07,2,35.12
						c-0.01,0.11,0,0.21,0.05,0.31c0.13,0.29,0.34,0.47,0.64,0.51c0.18,0.03,0.36,0,0.54-0.05c0.03-0.01,0.05-0.02,0.09-0.02
						c0,0.03,0,0.05-0.01,0.07c-0.05,0.25-0.17,0.44-0.36,0.59c-0.07,0.06-0.15,0.11-0.22,0.16c-0.02,0.01-0.03,0.03-0.04,0.04
						c0.15,0.03,0.3,0.04,0.45,0.04c0.09,0,0.18,0,0.27-0.02c0.12-0.02,0.18-0.16,0.13-0.28c-0.02-0.05-0.06-0.1-0.1-0.14
						c-0.03-0.03-0.06-0.05-0.09-0.07c0.03-0.15,0.05-0.29,0.08-0.43c0.05-0.03,0.11-0.06,0.17-0.09c0.01,0.06,0.02,0.12,0.04,0.17
						c0.06,0.18,0.17,0.3,0.32,0.39c0.11,0.06,0.23,0.1,0.36,0.12c0.25,0.03,0.49,0.05,0.74,0.07c0.18,0.02,0.36,0.04,0.53,0.09
						c0.05,0.02,0.11,0.03,0.16,0.07c-0.03,0.07-0.03,0.14,0,0.21c0.04,0.07,0.11,0.09,0.18,0.1c-0.04,0.08,0,0.14,0.07,0.2
						c0.1,0.09,0.2,0.18,0.31,0.27c0.01,0.01,0.03,0.02,0.05,0.03c-0.03-0.13-0.06-0.24-0.09-0.35c-0.03-0.13-0.07-0.25-0.2-0.29
						c0.03-0.08,0.03-0.15-0.01-0.21c-0.04-0.07-0.11-0.08-0.18-0.08c0-0.21,0.04-0.4,0.09-0.59c0.07-0.28,0.16-0.55,0.23-0.83
						c0.03-0.13,0.05-0.26,0.06-0.4c0.01-0.22-0.05-0.42-0.21-0.57c-0.04-0.04-0.09-0.07-0.14-0.11c0.04-0.03,0.07-0.06,0.1-0.1
						c0.03-0.03,0.06-0.03,0.09-0.02c0.1,0.03,0.2,0.06,0.31,0.05l0.03,0.01c0.01,0.04,0.01,0.08,0.03,0.12
						c0.02,0.05,0.03,0.09,0.06,0.13c0.07,0.11,0.24,0.14,0.32-0.02c0.01-0.02,0.03-0.05,0.04-0.08C6.95,33.96,7,33.8,7.06,33.64
						c0.02-0.05,0.03-0.09,0.04-0.14l-0.02-0.02C7.05,33.51,7.03,33.54,7,33.56c-0.08,0.06-0.15,0.12-0.23,0.16
						c-0.2,0.12-0.41,0.15-0.65,0.09c0.02-0.04,0.03-0.07,0.05-0.1c0.06-0.13,0.13-0.26,0.19-0.39c0.07-0.15,0.1-0.31,0.08-0.48
						c-0.04-0.27-0.15-0.49-0.38-0.61c-0.08-0.04-0.13-0.08-0.14-0.18c-0.01-0.09-0.07-0.14-0.15-0.15
						c-0.05-0.01-0.09-0.01-0.14-0.01c-0.05,0.01-0.08-0.01-0.11-0.05c-0.08-0.11-0.19-0.18-0.32-0.2c-0.18-0.04-0.35,0.01-0.5,0.12
						c-0.4,0.3-0.59,0.74-0.65,1.25c-0.01,0.08-0.01,0.17-0.01,0.26c0,0.04,0,0.08,0,0.13c-0.04,0-0.08-0.01-0.12-0.01
						c0-0.05,0-0.09,0-0.12c0-0.1-0.02-0.2-0.07-0.29c-0.07-0.13-0.21-0.17-0.33-0.08c-0.12,0.09-0.14,0.24-0.05,0.36
						c0.06,0.09,0.15,0.14,0.24,0.18c0.03,0.01,0.05,0.02,0.08,0.04c-0.01,0.05-0.03,0.08-0.04,0.13c-0.02-0.01-0.03-0.01-0.04-0.02
						c-0.28-0.17-0.59-0.22-0.91-0.19c-0.27,0.02-0.51,0.11-0.73,0.28c-0.17,0.13-0.26,0.35-0.26,0.56
						C1.81,34.34,1.83,34.45,1.89,34.54"/>
				</defs>
				<clipPath id="SVGID_44_">
					<use xlink:href="#SVGID_43_"  style="overflow:visible;"/>
				</clipPath>
				
					<linearGradient id="SVGID_45_" gradientUnits="userSpaceOnUse" x1="-1345.1504" y1="278.4943" x2="-1345.0129" y2="278.4943" gradientTransform="matrix(-91.2905 0 0 -91.2905 -122789.2344 25458.416)">
					<stop  offset="0" style="stop-color:#B05105"/>
					<stop  offset="0.1495" style="stop-color:#B05105"/>
					<stop  offset="0.4059" style="stop-color:#C37015"/>
					<stop  offset="0.7131" style="stop-color:#DEA030"/>
					<stop  offset="0.7976" style="stop-color:#E6B446"/>
					<stop  offset="0.9754" style="stop-color:#FAE786"/>
					<stop  offset="1" style="stop-color:#FDEE91"/>
				</linearGradient>
				<rect x="1.79" y="31.6" class="st14" width="5.31" height="5.86"/>
			</g>
		</g>
	</g>
	<g>
		<g>
			<g>
				<defs>
					<rect id="SVGID_46_" width="0.45" height="40.43"/>
				</defs>
				<clipPath id="SVGID_47_">
					<use xlink:href="#SVGID_46_"  style="overflow:visible;"/>
				</clipPath>
				
					<linearGradient id="SVGID_48_" gradientUnits="userSpaceOnUse" x1="-1345.1504" y1="277.5089" x2="-1345.0129" y2="277.5089" gradientTransform="matrix(-91.2905 0 0 -91.2905 -122789.2344 25354.1426)">
					<stop  offset="0" style="stop-color:#B05105"/>
					<stop  offset="0.1495" style="stop-color:#B05105"/>
					<stop  offset="0.4059" style="stop-color:#C37015"/>
					<stop  offset="0.7131" style="stop-color:#DEA030"/>
					<stop  offset="0.7976" style="stop-color:#E6B446"/>
					<stop  offset="0.9754" style="stop-color:#FAE786"/>
					<stop  offset="1" style="stop-color:#FDEE91"/>
				</linearGradient>
				<rect class="st15" width="0.45" height="40.43"/>
			</g>
		</g>
	</g>
</g>
</svg>
